<?xml version="1.0" encoding="UTF-8"?><svg id="Layer_2" xmlns="http://www.w3.org/2000/svg" viewBox="0 0 360.44 197.27"><defs><style>.cls-1,.cls-2{fill:#fff;}.cls-2{font-family:ITCAvantGardeStd-Bk, 'ITCAvantGardeStd Bk';font-size:33.11px;}</style></defs><g id="Layer_1-2"><g><g><rect class="cls-1" width="11.58" height="11.29"/><rect class="cls-1" x="22.22" width="11.58" height="11.29"/><rect class="cls-1" x="44.43" width="11.58" height="11.29"/><rect class="cls-1" x="66.65" width="11.58" height="11.29"/><rect class="cls-1" x="11.98" y="10.72" width="11.58" height="11.29"/><rect class="cls-1" x="34.2" y="10.72" width="11.58" height="11.29"/><rect class="cls-1" x="56.41" y="10.72" width="11.58" height="11.29"/><rect class="cls-1" x="78.63" y="10.72" width="11.58" height="11.29"/><rect class="cls-1" y="22.01" width="11.58" height="11.29"/><rect class="cls-1" x="22.22" y="22.01" width="11.58" height="11.29"/><rect class="cls-1" x="44.43" y="22.01" width="11.58" height="11.29"/><rect class="cls-1" x="66.65" y="22.01" width="11.58" height="11.29"/><rect class="cls-1" x="11.98" y="32.74" width="11.58" height="11.29"/><rect class="cls-1" x="34.2" y="32.74" width="11.58" height="11.29"/><rect class="cls-1" x="56.41" y="32.74" width="11.58" height="11.29"/><rect class="cls-1" x="78.63" y="32.74" width="11.58" height="11.29"/><rect class="cls-1" y="44.02" width="11.58" height="11.29"/><rect class="cls-1" x="22.22" y="44.02" width="11.58" height="11.29"/><rect class="cls-1" x="44.43" y="44.02" width="11.58" height="11.29"/><rect class="cls-1" x="66.65" y="44.02" width="11.58" height="11.29"/><rect class="cls-1" x="11.98" y="54.75" width="11.58" height="11.29"/><rect class="cls-1" x="34.2" y="54.75" width="11.58" height="11.29"/><rect class="cls-1" x="56.41" y="54.75" width="11.58" height="11.29"/><rect class="cls-1" x="78.63" y="54.75" width="11.58" height="11.29"/><rect class="cls-1" y="66.04" width="11.58" height="11.29"/><rect class="cls-1" x="22.22" y="66.04" width="11.58" height="11.29"/><rect class="cls-1" x="44.43" y="66.04" width="11.58" height="11.29"/><rect class="cls-1" x="66.65" y="66.04" width="11.58" height="11.29"/><rect class="cls-1" x="11.98" y="76.76" width="11.58" height="11.29"/><rect class="cls-1" x="34.2" y="76.76" width="11.58" height="11.29"/><rect class="cls-1" x="56.41" y="76.76" width="11.58" height="11.29"/><rect class="cls-1" x="78.63" y="76.76" width="11.58" height="11.29"/></g><g><path class="cls-1" d="M146.8,64.69l-25.76,16.79c-.65,.42-1.49-.17-1.28-.91l8.37-29.06c.27-.93-.06-1.92-.82-2.51l-20.94-16.14c-1.74-1.34-.85-4.12,1.34-4.2l26.75-1.04c.95-.04,1.79-.64,2.13-1.53L145.88,1.53c.77-2.04,3.66-2.04,4.44,0l9.29,24.57c.34,.89,1.17,1.49,2.11,1.52l26.74,1.04c2.2,.09,3.09,2.87,1.34,4.21l-20.93,16.13c-.76,.59-1.08,1.58-.82,2.5l8.38,29.06c.21,.74-.63,1.33-1.28,.91l-25.76-16.79c-.79-.52-1.81-.52-2.6,0Z"/><path class="cls-1" d="M118.45,53.66c.71,1.88-4.01,3.65-4.01,3.65l-4.71,1.77s-4.71,1.77-5.42-.11c-.71-1.88,4.01-3.65,4.01-3.65l4.71-1.77s4.71-1.77,5.42,.11Z"/><path class="cls-1" d="M177.75,53.66c-.71,1.88,4.01,3.65,4.01,3.65l4.71,1.77s4.71,1.77,5.42-.11c.71-1.88-4.01-3.65-4.01-3.65l-4.71-1.77s-4.71-1.77-5.42,.11Z"/><path class="cls-1" d="M118.76,8.96c-1.42,1.42,2.14,4.98,2.14,4.98l3.56,3.56s3.56,3.56,4.98,2.14c1.42-1.42-2.14-4.98-2.14-4.98l-3.56-3.56s-3.56-3.56-4.98-2.14Z"/><path class="cls-1" d="M148.1,72.95c-2.01,0-2.01,5.03-2.01,5.03v5.03s0,5.03,2.01,5.03,2.01-5.03,2.01-5.03v-5.03s0-5.03-2.01-5.03Z"/><path class="cls-1" d="M177.44,8.96c1.42,1.42-2.14,4.98-2.14,4.98l-3.56,3.56s-3.56,3.56-4.98,2.14c-1.42-1.42,2.14-4.98,2.14-4.98l3.56-3.56s3.56-3.56,4.98-2.14Z"/></g><g><circle class="cls-1" cx="66.56" cy="123.1" r="22.47"/><circle class="cls-1" cx="66.56" cy="166.78" r="22.47"/><circle class="cls-1" cx="22.88" cy="123.1" r="22.47"/><circle class="cls-1" cx="22.88" cy="166.78" r="22.47"/></g><g><rect class="cls-1" x="143.81" y="100.7" width="49.52" height="13.86"/><rect class="cls-1" x="143.81" y="121.17" width="49.52" height="13.86"/><rect class="cls-1" x="102.87" y="154.84" width="49.52" height="13.86"/><rect class="cls-1" x="102.87" y="175.31" width="49.52" height="13.86"/><rect class="cls-1" x="161.64" y="157.48" width="49.52" height="13.86" transform="translate(350.81 -21.98) rotate(90)"/><rect class="cls-1" x="141.17" y="157.48" width="49.52" height="13.86" transform="translate(330.34 -1.51) rotate(90)"/><rect class="cls-1" x="105.52" y="118.53" width="49.52" height="13.86" transform="translate(255.73 -4.82) rotate(90)"/><rect class="cls-1" x="85.05" y="118.53" width="49.52" height="13.86" transform="translate(235.27 15.65) rotate(90)"/></g><path class="cls-1" d="M245.52,151.91h-21.69V.06h21.69V151.91Z"/><path class="cls-1" d="M272.14,75.98V.06h21.69V75.98c0,14.97,5.3,27.75,15.89,38.34,10.59,10.59,23.37,15.89,38.34,15.89v21.69c-20.97,0-38.87-7.41-53.69-22.23-14.82-14.82-22.23-32.72-22.23-53.69Z"/><text class="cls-2" transform="translate(221.43 188.99)"><tspan x="0" y="0">Education</tspan></text></g></g></svg>