<?xml version="1.0" encoding="UTF-8"?><svg id="Layer_2" xmlns="http://www.w3.org/2000/svg" viewBox="0 0 124.95 121.95"><defs><style>.cls-1{fill:#71c3ff;}</style></defs><g id="Layer_1-2"><g><rect class="cls-1" width="16.05" height="15.64"/><rect class="cls-1" x="30.77" width="16.05" height="15.64"/><rect class="cls-1" x="61.54" width="16.05" height="15.64"/><rect class="cls-1" x="92.31" width="16.05" height="15.64"/><rect class="cls-1" x="16.59" y="14.85" width="16.05" height="15.64"/><rect class="cls-1" x="47.36" y="14.85" width="16.05" height="15.64"/><rect class="cls-1" x="78.13" y="14.85" width="16.05" height="15.64"/><rect class="cls-1" x="108.9" y="14.85" width="16.05" height="15.64"/><rect class="cls-1" y="30.49" width="16.05" height="15.64"/><rect class="cls-1" x="30.77" y="30.49" width="16.05" height="15.64"/><rect class="cls-1" x="61.54" y="30.49" width="16.05" height="15.64"/><rect class="cls-1" x="92.31" y="30.49" width="16.05" height="15.64"/><rect class="cls-1" x="16.59" y="45.34" width="16.05" height="15.64"/><rect class="cls-1" x="47.36" y="45.34" width="16.05" height="15.64"/><rect class="cls-1" x="78.13" y="45.34" width="16.05" height="15.64"/><rect class="cls-1" x="108.9" y="45.34" width="16.05" height="15.64"/><rect class="cls-1" y="60.98" width="16.05" height="15.64"/><rect class="cls-1" x="30.77" y="60.98" width="16.05" height="15.64"/><rect class="cls-1" x="61.54" y="60.98" width="16.05" height="15.64"/><rect class="cls-1" x="92.31" y="60.98" width="16.05" height="15.64"/><rect class="cls-1" x="16.59" y="75.83" width="16.05" height="15.64"/><rect class="cls-1" x="47.36" y="75.83" width="16.05" height="15.64"/><rect class="cls-1" x="78.13" y="75.83" width="16.05" height="15.64"/><rect class="cls-1" x="108.9" y="75.83" width="16.05" height="15.64"/><rect class="cls-1" y="91.46" width="16.05" height="15.64"/><rect class="cls-1" x="30.77" y="91.46" width="16.05" height="15.64"/><rect class="cls-1" x="61.54" y="91.46" width="16.05" height="15.64"/><rect class="cls-1" x="92.31" y="91.46" width="16.05" height="15.64"/><rect class="cls-1" x="16.59" y="106.32" width="16.05" height="15.64"/><rect class="cls-1" x="47.36" y="106.32" width="16.05" height="15.64"/><rect class="cls-1" x="78.13" y="106.32" width="16.05" height="15.64"/><rect class="cls-1" x="108.9" y="106.32" width="16.05" height="15.64"/></g></g></svg>