<?xml version="1.0" encoding="UTF-8"?><svg id="Layer_2" xmlns="http://www.w3.org/2000/svg" viewBox="0 0 107.08 107.48"><defs><style>.cls-1{fill:#fd7c05;}</style></defs><g id="Layer_1-2"><g><path class="cls-1" d="M51.95,78.97l-31.44,20.5c-.8,.52-1.82-.21-1.56-1.11l10.22-35.47c.33-1.13-.07-2.34-1-3.06L2.6,40.12c-2.12-1.63-1.04-5.02,1.64-5.13l32.65-1.27c1.16-.05,2.19-.78,2.6-1.87L50.83,1.87c.94-2.49,4.47-2.49,5.41,0l11.35,30c.41,1.08,1.43,1.81,2.58,1.86l32.64,1.27c2.68,.1,3.77,3.51,1.64,5.14l-25.55,19.69c-.93,.71-1.32,1.92-1,3.05l10.23,35.48c.26,.9-.77,1.63-1.56,1.11l-31.44-20.5c-.97-.63-2.21-.63-3.18,0Z"/><path class="cls-1" d="M17.34,65.5c.86,2.29-4.89,4.45-4.89,4.45l-5.75,2.16s-5.75,2.16-6.61-.13c-.86-2.29,4.89-4.45,4.89-4.45l5.75-2.16s5.75-2.16,6.61,.13Z"/><path class="cls-1" d="M89.74,65.5c-.86,2.29,4.89,4.45,4.89,4.45l5.75,2.16s5.75,2.16,6.61-.13c.86-2.29-4.89-4.45-4.89-4.45l-5.75-2.16s-5.75-2.16-6.61,.13Z"/><path class="cls-1" d="M17.73,10.94c-1.73,1.73,2.61,6.08,2.61,6.08l4.34,4.34s4.34,4.34,6.08,2.61c1.73-1.73-2.61-6.08-2.61-6.08l-4.34-4.34s-4.34-4.34-6.08-2.61Z"/><path class="cls-1" d="M53.54,89.05c-2.45,0-2.45,6.14-2.45,6.14v6.14s0,6.14,2.45,6.14,2.45-6.14,2.45-6.14v-6.14s0-6.14-2.45-6.14Z"/><path class="cls-1" d="M89.35,10.94c1.73,1.73-2.61,6.08-2.61,6.08l-4.34,4.34s-4.34,4.34-6.08,2.61c-1.73-1.73,2.61-6.08,2.61-6.08l4.34-4.34s4.34-4.34,6.08-2.61Z"/></g></g></svg>