<?xml version="1.0" encoding="UTF-8"?><svg id="Layer_2" xmlns="http://www.w3.org/2000/svg" viewBox="0 0 427.3 323.71"><defs><style>.cls-1{fill:#f7b690;}.cls-2{fill:#e8feff;}.cls-3{fill:#eb3051;}.cls-4{fill:#fff;}.cls-5{fill:#ffb28c;}.cls-6{fill:#fd7c05;}.cls-7{fill:#71c3ff;}.cls-8{fill:#2a0045;}.cls-9{fill:none;stroke:#2a0045;stroke-miterlimit:10;}</style></defs><g id="OBJECTS"><g><g><path class="cls-3" d="M404.62,160.16c-1.72,2.39-4.31,5.69-7.54,9.63-.27,.33-.54,.66-.83,1-4.45,5.39-10.03,11.88-16.23,18.83-.3,.33-.59,.67-.9,1-7.09,7.92-14.94,16.39-22.81,24.48-.28,.28-.55,.56-.83,.84-5.81,5.94-11.62,11.67-17.14,16.79-.29,.26-.57,.52-.85,.79-11.63,10.71-21.86,18.66-27.9,20.3-.03-.09-.05-.17-.08-.26-.11-.37-.21-.73-.31-1.09-4.54-15.8-5.86-29.79-4.48-41.91,.08-.76,.18-1.52,.29-2.27,2.01-14,7.71-25.4,16.24-34.09,.27-.28,.54-.55,.82-.82,5.33-5.22,11.71-9.42,18.93-12.58,.31-.14,.63-.27,.94-.41,6.83-2.87,14.39-4.83,22.52-5.86,.33-.05,.67-.09,1-.13,11.43-1.34,23.97-.86,37.16,1.48,1.1,.2,1.91,.44,2.47,.7,.38,.18,.66,.36,.85,.56,1.24,1.25-1.12,2.75-1.32,3.02Z"/><path class="cls-8" d="M393.29,169.79h3.79c-.27,.33-.54,.66-.83,1h-3.96l-18.83,18.83h6.56c-.3,.33-.59,.67-.9,1h-6.66l-23.03,23.03,6.88,1.45c-.28,.28-.55,.56-.83,.84l-6.89-1.45-16.4,16.39,6.15,1.85c-.29,.26-.57,.52-.85,.79l-6.1-1.84-21.88,21.88c-.11-.37-.21-.73-.31-1.09l7.23-7.23-11.71-34.68c.08-.76,.18-1.52,.29-2.27l12.21,36.16,17.6-17.61c-2.11-8.07-10.14-38.98-13.57-52.64,.27-.28,.54-.55,.82-.82,2.87,11.42,9.52,37.07,13.57,52.64l15.27-15.26-9.91-49.96c.31-.14,.63-.27,.94-.41l9.82,49.52,22.06-22.07-9.36-33.31c.33-.05,.67-.09,1-.13l9.17,32.63,30.46-30.45c.38,.18,.66,.36,.85,.56l-12.65,12.65Z"/></g><g><g><path class="cls-3" d="M117.97,260.83s-18.61,5.35-43.71-3.31c-.65-.22-1.3-.45-1.96-.7-10.18-3.76-21.36-9.85-32.74-19.52-.34-.28-.67-.57-1.01-.86-8.12-7.04-16.35-15.92-24.38-27.08-.03-.04-.05-.07-.08-.11-.28-.39-.41-.82-.42-1.25-.06-1.08,.67-2.14,1.86-2.35,3.89-.68,10.74-1.66,19.17-1.87,.37-.01,.73-.02,1.1-.02,11.94-.2,26.82,1.19,40.82,7.05,.37,.15,.73,.3,1.09,.46,17.08,7.46,32.7,21.71,39.86,48.05,.12,.43,.23,.85,.34,1.29,.02,.07,.04,.15,.06,.22Z"/><path class="cls-8" d="M117.91,260.61l-15.32-7.57-28.33,4.48c-.65-.22-1.3-.45-1.96-.7l28.74-4.55-37.76-18.65-23.72,3.68c-.34-.28-.67-.57-1.01-.86l23.17-3.59-47.55-23.49s-.05-.07-.08-.11c-.28-.39-.41-.82-.42-1.25l31.03,15.33-10-19.55c.37-.01,.73-.02,1.1-.02l10.41,20.31,35.47,17.52-5.06-30.78c.37,.15,.73,.3,1.09,.46l5.07,30.87,34.79,17.18c.12,.43,.23,.85,.34,1.29Z"/></g><g><path class="cls-6" d="M122.96,270.56c-.12,.48-.26,.96-.4,1.45-.01,.06-.03,.13-.05,.19-15.86-9.79-29.27-23.06-41.24-37.83-.38-.46-.75-.92-1.12-1.39-10.72-13.42-20.31-28.02-29.5-42.36-.22-.35-.45-.7-.67-1.05-1.91-2.98-3.8-5.95-5.68-8.89-4.67-7.3-10.82-15.79-17.14-24.35-.31-.42-.63-.85-.94-1.27-8.22-11.12-16.61-22.26-22.28-30.94-1.31-2-2.17-3.67-2.39-4.9-.04-.16-.06-.31-.06-.46-.11-1.88,1.63-2.48,6.12-1.27,10.39,2.8,20.65,6.19,30.54,10.22,.34,.14,.67,.27,1.01,.42,16.71,6.88,32.34,15.56,45.66,26.15,.32,.25,.64,.51,.96,.77,22.95,18.54,38.88,42.8,41.49,73.33,.08,.82,.14,1.64,.19,2.46,.76,12.24-.61,25.47-4.5,39.72Z"/><path class="cls-8" d="M117.75,259.58c1.81,3.62,3.56,7.28,5.21,10.98-.12,.48-.26,.96-.4,1.45-1.78-4.05-3.66-8.06-5.63-12.02-3.06-5.97-6.29-11.86-9.69-17.65l-25.97-7.97c-.38-.46-.75-.92-1.12-1.39l26.33,8.07c-.97-1.64-1.96-3.29-2.96-4.92-4.84-7.73-9.9-15.34-15.24-22.74-2.14-2.96-4.32-5.88-6.52-8.79-3.18-4.2-6.41-8.35-9.74-12.44l-21.37-1.54c-.22-.35-.45-.7-.67-1.05l21.19,1.53c-8.61-10.55-17.6-20.78-26.94-30.69l-.05,.19-17.02-4.27c-.31-.42-.63-.85-.94-1.27l16.98,4.26c-1.43-1.51-2.87-3.01-4.31-4.51h-.16v-.17c-1.23-1.26-2.45-2.53-3.69-3.79-10.78-10.94-21.89-21.57-33.49-31.63-.04-.16-.06-.31-.06-.46,11.73,10.1,22.97,20.78,33.87,31.77,1.13,1.14,2.24,2.28,3.35,3.42-.07-3.62-.37-17.5-.56-26.24,.34,.14,.67,.27,1.01,.42,.21,10.08,.56,26.42,.57,26.66h-.19c1.53,1.58,3.05,3.16,4.56,4.75l.33,.09-.06,.2c9.6,10.11,18.84,20.56,27.68,31.33h.04v.05s.01,.02,.02,.03c3.31,4.04,6.54,8.15,9.71,12.3l3-49.26c.32,.25,.64,.51,.96,.77l-3.02,49.61h-.09c2.09,2.75,4.16,5.51,6.2,8.3,5.37,7.4,10.47,15,15.35,22.74,4.47,7.22,8.66,14.6,12.6,22.12l10.45-29.44c.08,.82,.14,1.64,.19,2.46l-10.01,28.19c.1,.18,.2,.37,.3,.55Z"/></g></g></g><g><g><g><path class="cls-7" d="M1.68,282.43v13.73H59.14c1.83-14.37,14.07-25.48,28.93-25.48s27.1,11.11,28.93,25.48h57.46v-13.73h-24.68c-1.39-4.88-3.32-9.54-5.75-13.87l17.45-17.45-24.65-24.65-17.45,17.45c-4.33-2.43-9-4.36-13.89-5.75v-24.68h-34.84v24.68c-4.89,1.39-9.55,3.32-13.89,5.75l-17.45-17.45-24.65,24.65,17.45,17.45c-2.43,4.33-4.36,9-5.75,13.87H1.68Z"/><path class="cls-8" d="M64.53,261.21c-.02,.22-.14,.44-.33,.59-6.05,4.54-10.6,10.67-13.17,17.73-.16,.44-.64,.66-1.08,.5-.44-.16-.66-.64-.5-1.08,2.68-7.37,7.43-13.77,13.74-18.51,.37-.28,.9-.2,1.18,.17,.13,.18,.19,.39,.16,.6Z"/></g><path class="cls-6" d="M288.44,287.93v8.23h34.47c1.1-8.62,8.44-15.28,17.35-15.28s16.26,6.66,17.35,15.28h34.47v-8.23h-14.8c-.83-2.93-1.99-5.72-3.45-8.32l10.47-10.47-14.79-14.79-10.47,10.47c-2.6-1.46-5.4-2.62-8.33-3.45v-14.8h-20.9v14.8c-2.93,.83-5.73,1.99-8.33,3.45l-10.47-10.47-14.79,14.79,10.47,10.47c-1.46,2.6-2.62,5.4-3.45,8.32h-14.8Z"/></g><g><g><path class="cls-6" d="M427.3,93.32v-18h-12.75c-.72-2.52-1.71-4.93-2.97-7.17l9.01-9.01-12.73-12.73-9.01,9.01c-2.24-1.26-4.65-2.25-7.17-2.97v-12.75h-18v12.75c-2.53,.72-4.93,1.71-7.17,2.97l-9.01-9.01-12.73,12.73,9.01,9.01c-1.26,2.24-2.25,4.65-2.97,7.17h-12.75v18h12.75c.72,2.53,1.71,4.93,2.97,7.17l-9.01,9.01,12.73,12.73,9.01-9.02c2.24,1.26,4.65,2.26,7.17,2.98v12.75h18v-12.75c2.53-.72,4.93-1.72,7.17-2.98l9.01,9.02,12.73-12.73-9.01-9.01c1.26-2.25,2.25-4.65,2.97-7.17h12.75Zm-44.62,6.08c-8.32,0-15.08-6.75-15.08-15.08s6.75-15.08,15.08-15.08,15.08,6.75,15.08,15.08-6.75,15.08-15.08,15.08Z"/><g><path class="cls-8" d="M374.63,106.86c-.06,0-.12,0-.17-.03-3.92-1.43-7.43-3.89-10.13-7.11-.18-.21-.15-.53,.06-.7,.21-.18,.53-.15,.7,.06,2.59,3.08,5.95,5.44,9.71,6.81,.26,.09,.39,.38,.3,.64-.07,.2-.27,.33-.47,.33Z"/><path class="cls-8" d="M399.85,68.84c-.13,0-.27-.05-.37-.16-3.05-3.28-6.95-5.57-11.27-6.64-.27-.07-.43-.34-.37-.61,.07-.27,.33-.43,.61-.37,4.51,1.12,8.58,3.51,11.76,6.93,.19,.2,.18,.52-.03,.71-.1,.09-.22,.13-.34,.13Z"/></g></g><g><path class="cls-7" d="M359.22,32.17v-10.8h-7.65c-.43-1.51-1.03-2.96-1.78-4.3l5.41-5.41-7.64-7.64-5.41,5.41c-1.34-.75-2.79-1.35-4.3-1.78V0h-10.8V7.65c-1.52,.43-2.96,1.03-4.3,1.78l-5.41-5.41-7.64,7.64,5.41,5.41c-.75,1.34-1.35,2.79-1.78,4.3h-7.65v10.8h7.65c.43,1.52,1.03,2.96,1.78,4.3l-5.41,5.41,7.64,7.64,5.41-5.41c1.34,.75,2.79,1.36,4.3,1.79v7.65h10.8v-7.65c1.52-.43,2.96-1.03,4.3-1.79l5.41,5.41,7.64-7.64-5.41-5.41c.75-1.35,1.35-2.79,1.78-4.3h7.65Zm-26.77,3.65c-4.99,0-9.04-4.05-9.04-9.04s4.05-9.04,9.04-9.04,9.04,4.05,9.04,9.04-4.05,9.04-9.04,9.04Z"/><g><path class="cls-8" d="M319.53,21.21s0-.07,.02-.1c.84-2.3,2.28-4.35,4.16-5.93,.12-.1,.31-.09,.41,.04,.1,.12,.09,.31-.04,.41-1.8,1.52-3.18,3.48-3.99,5.68-.06,.15-.22,.23-.38,.17-.12-.04-.19-.16-.19-.27Z"/><path class="cls-8" d="M341.79,35.98c0-.08,.03-.16,.09-.21,1.92-1.79,3.26-4.07,3.89-6.6,.04-.16,.2-.25,.35-.21,.16,.04,.25,.2,.21,.35-.65,2.64-2.06,5.02-4.06,6.89-.12,.11-.3,.1-.41-.01-.05-.06-.08-.13-.08-.2Z"/></g></g></g></g><g><path class="cls-4" d="M238.86,82.37c1.07-1.21,1.72-2.79,1.72-4.53,0-3.78-3.06-6.84-6.84-6.84-.54,0-1.06,.07-1.56,.19-1.44-3.69-5.02-6.3-9.22-6.3-4.41,0-8.14,2.88-9.42,6.87-.78-.25-1.61-.4-2.48-.4-4.42,0-8,3.58-8,8,0,1.07,.21,2.09,.59,3.02h35.21Z"/><path class="cls-4" d="M298.98,101.45c-.15-1.3-1.24-2.32-2.59-2.32-.27,0-.52,.05-.76,.13-.59-1.1-1.73-1.86-3.06-1.86-.22,0-.44,.03-.65,.07-.7-2.07-2.63-3.57-4.94-3.57-2.89,0-5.23,2.34-5.23,5.23,0,.84,.22,1.62,.57,2.32h16.66Z"/><path class="cls-2" d="M103.68,89.09c.05-.32,.1-.64,.1-.98,0-3.64-2.95-6.58-6.58-6.58-.31,0-.61,.05-.92,.09-1.29-2.69-3.85-4.64-6.91-5.09-.79-4.24-4.5-7.44-8.97-7.44-5.04,0-9.13,4.09-9.13,9.13,0,0,0,0,0,.01-4.94,.12-8.91,4.15-8.91,9.12,0,.59,.06,1.17,.17,1.73h41.15Z"/><path class="cls-2" d="M320.23,77.38c.02-.12,.04-.24,.04-.37,0-1.36-1.11-2.47-2.47-2.47-.12,0-.23,.02-.34,.03-.48-1.01-1.45-1.74-2.59-1.91-.3-1.59-1.69-2.79-3.37-2.79-1.89,0-3.43,1.53-3.43,3.43,0,0,0,0,0,0-1.85,.04-3.34,1.56-3.34,3.42,0,.22,.02,.44,.06,.65h15.45Z"/></g><g><g><rect class="cls-7" x="69.91" y="141.75" width="248.13" height="57.44" rx="3.16" ry="3.16"/><g><rect class="cls-6" x="105.35" y="150.4" width="77.75" height="40.14"/><rect class="cls-6" x="190.1" y="150.4" width="8.75" height="40.14"/><rect class="cls-6" x="264.52" y="141.75" width="7.84" height="57.44"/><rect class="cls-6" x="276.67" y="141.75" width="2.84" height="57.44"/></g></g><g><g><rect class="cls-6" x="112.03" y="199.19" width="241.06" height="39.53"/><path class="cls-4" d="M137.08,203.74h216.02v30.42H137.08c-5.37,0-9.73-4.36-9.73-9.73v-10.97c0-5.37,4.36-9.73,9.73-9.73Z"/><polygon class="cls-7" points="163.72 235.74 154.85 231.24 145.97 235.74 145.97 218.95 163.72 218.95 163.72 235.74"/></g><g><polyline class="cls-9" points="112.03 238.72 112.03 199.19 314.87 199.19"/><line class="cls-9" x1="140.02" y1="218.95" x2="168.18" y2="218.95"/></g></g><g><g><rect class="cls-3" x="94.84" y="238.72" width="241.06" height="57.44" rx="2.83" ry="2.83"/><rect class="cls-6" x="126.22" y="256.32" width="47.87" height="22.23"/><g><rect class="cls-6" x="255.68" y="252.37" width="9.29" height="32.5"/><rect class="cls-6" x="269.43" y="252.37" width="9.29" height="32.5"/><rect class="cls-6" x="283.18" y="252.37" width="9.29" height="32.5"/></g></g><g><line class="cls-9" x1="105.85" y1="238.72" x2="333.08" y2="238.72"/><g><line class="cls-9" x1="126.22" y1="258.69" x2="174.1" y2="258.69"/><line class="cls-9" x1="126.22" y1="264.52" x2="174.1" y2="264.52"/><line class="cls-9" x1="126.22" y1="270.36" x2="174.1" y2="270.36"/><line class="cls-9" x1="126.22" y1="276.19" x2="174.1" y2="276.19"/></g></g></g></g><g><path class="cls-8" d="M413.12,296.66H.5c-.28,0-.5-.22-.5-.5s.22-.5,.5-.5H413.12c.28,0,.5,.22,.5,.5s-.22,.5-.5,.5Z"/><path class="cls-8" d="M422.5,296.66h-6.25c-.28,0-.5-.22-.5-.5s.22-.5,.5-.5h6.25c.28,0,.5,.22,.5,.5s-.22,.5-.5,.5Z"/></g><g><path class="cls-2" d="M238.5,318.56c0,2.85-10.77,5.15-28.93,5.15s-32.9-2.31-32.9-5.15,14.73-5.15,32.9-5.15,28.93,2.31,28.93,5.15Z"/><g><g><g><g><polygon class="cls-5" points="219.09 316.18 212.07 316.04 210.34 307.94 217.37 308.08 219.09 316.18"/><path class="cls-8" d="M210.71,313.67c-.29,.69-1.04,2.68-.94,4.79,.02,.48,.42,.88,.91,.89h1.87s.2-.97,.2-.97l1.66,.87c.15,.08,.32,.12,.49,.12l13.56,.08v-1.13c0-.23-.13-.44-.35-.53-1.59-.63-7.97-3.19-9.18-4.04-.77-.54-2.64,.41-4.39,.45-1.47,.03-2.85-.88-3.43-.82-.18,.02-.33,.13-.39,.29Z"/></g><g><path class="cls-8" d="M217.33,226.34l1.21,85.59h-8.11s-6.39-27.53-7.28-43.98c0,0-8.32-30.86-8.45-41.57l22.65-.03Z"/><polygon class="cls-8" points="204.91 283.44 214.23 226.37 206.74 294.12 204.91 283.44"/></g></g><g><g><polygon class="cls-5" points="200.16 316.18 192.98 316.04 192.32 307.94 199.7 308.08 200.16 316.18"/><path class="cls-8" d="M192.29,313.67c-.29,.69-1.04,2.68-.94,4.79,.02,.48,.42,.88,.91,.89h1.87s.2-.97,.2-.97l1.66,.87c.15,.08,.32,.12,.49,.12l13.56,.08v-1.13c0-.23-.13-.44-.35-.53-1.59-.63-7.97-3.19-9.18-4.04-.77-.54-2.64,.41-4.39,.45-1.47,.03-2.85-.88-3.43-.82-.18,.02-.33,.13-.39,.29Z"/></g><g><path class="cls-8" d="M214.23,226.37l-13.97,85.56h-8.11s-1.01-30.7,1-47.06c0,0-3.01-27.93-1.26-38.5h22.34Z"/><g><path class="cls-8" d="M196.62,236.3s-.03,0-.05,0c-.19-.02-.35-.14-.42-.32l-3.25-8.62c-.06-.15-.04-.33,.06-.46,.09-.14,.25-.22,.41-.22h8.69c.18,0,.35,.1,.44,.26,.09,.16,.08,.35-.02,.51l-5.44,8.62c-.09,.15-.25,.23-.42,.23Zm-2.53-8.62l2.64,7.01,4.42-7.01h-7.06Z"/><path class="cls-8" d="M200.16,264.23s.01,.07,0,.11l-4.83,47.59h-1l4.83-47.64-3.03-28.43c-.03-.27,.17-.52,.44-.55,.28-.03,.52,.17,.55,.44l3.04,28.48Z"/></g></g></g></g><g><path class="cls-5" d="M214.92,158.14c-3.18-2.78-9.45-1.59-11.81,1.12-1.01,1.16-.47,5.29-.63,6.88-.64-.28-1.79-1.71-2.52-.42-.99,1.76,.13,4.48,2.23,4.94l-2.79,12.99,8.47,1.82,1.63-7.59c1,.14,1.99,.18,2.87,.22,2.26,.09,3.75-2.16,4-3.39,.91-4.48,1.72-13.79-1.46-16.57Z"/><path class="cls-8" d="M217.16,167.88l-.12-4.22s-3.47-.42-5.81-1.22c-2.35-.8-3.38-.2-3.51,1.82-.13,2.03-2.44,5.64-4.95,2.23,0,0-2.21-2.35-2.89-.27-.78,2.39,.88,4.07,2.31,4.43l-.43,2.02c-.2,0-.54-.02-.65-.19-.85-1.31-1.71-2.62-2.34-4.05-.63-1.43-1.02-2.99-.9-4.55,.14-1.81,1.01-3.55,2.36-4.76,.56-.5,1.23-.93,1.98-1.04,2.64-2.26,6.11-3.3,9.58-3.21,2.72,.07,5.53,.93,7.38,2.92,.43,.46,.8,.98,1,1.57,.17,.5,.2,1.03,.19,1.56-.02,1.76-.52,3.52-1.41,5.04-.43,.74-1.03,1.47-1.77,1.9Z"/><path class="cls-8" d="M209.49,177.88s-3.68-.8-5.9-4.12c0,0-.66,6.15,5.45,6.22l.45-2.1Z"/></g><g><g><path class="cls-5" d="M248.82,189.6c-1.44-1.75-7.31,2.19-7.31,2.19,0,0,.87-2.26-.32-2.9-1.19-.64-4.81,6.05-4.81,6.05,0,0-7.4,4.35-15.92,9.33-1.36-4.23-2.36-7.37-2.6-8.3-1.01-3.84-5.08-13.85-9.47-12.36-6.53,2.21-7.01,5.92-1.84,19.83,.81,2.15,1.83,4.6,3.02,7.2,.49,1.09,1.01,2.21,1.55,3.34,1.81,3.83,6.74,4.98,10.04,2.31,.86-.69,1.71-1.38,2.55-2.07,8.82-7.25,16.41-14.04,16.41-14.04,6.35-3.24,10.16-8.85,8.71-10.59Z"/><path class="cls-3" d="M204.8,201.29s-2-7.1-1.97-12.35c.02-3.31,2.62-6.16,5.93-6.12,1.51,.02,3.15,.61,4.56,2.46,3.75,4.94,5.5,11.86,5.5,11.86l-14.02,4.15Z"/><polygon class="cls-8" points="205.71 201.02 206.73 203.93 218.45 197.96 218.25 197.31 205.71 201.02"/><polygon class="cls-8" points="220.46 204.28 218.19 206.24 220.03 202.94 220.46 204.28"/></g><g><path class="cls-3" d="M190.75,228.28h27.17s2.43-34.66-7.11-45.51c-.49-.56-1.3-.74-2.04-.69h-9.34c-.97,.06-1.83,.62-2.27,1.48-1.9,3.72-6.53,18.02-6.41,44.71Z"/><rect class="cls-8" x="190.75" y="225.55" width="27.29" height="1"/></g><g><g><path class="cls-5" d="M205.99,213.53c-.6,.88-1.33,1.52-2.23,1.82,0,0-4.98,1.59-6.6-8.38-.01-.04-.02-.07-.02-.11-1.63-10.08-2.62-20.92,1.86-23.76,4.46-2.82,8.74,2.37,9.28,8.49,.45,5.16,1.01,17.14-2.29,21.94Z"/><path class="cls-3" d="M194.87,199.19s-.06-7.38,1.36-12.43c.9-3.18,4.15-5.25,7.33-4.34,1.45,.41,2.88,1.42,3.75,3.58,2.31,5.75,2.18,12.89,2.18,12.89l-14.62,.31Z"/><path class="cls-8" d="M205.62,196.61l-2.75-2.98-2.33,5.45-4.44,.12h-1.22c-.17-2.41,.73-9.54,.73-9.54-.71,1.64-1.39,10.55-1.39,10.55h2l.06,.52,4.18-1.42-3.29,7.68c1.63,9.97,6.6,8.38,6.6,8.38,.89-.31,1.63-.94,2.23-1.82l-.37-16.92Z"/></g><g><path class="cls-8" d="M213.41,173.76c0,.27,0,.55,0,.83-.07-1.61-1.8-2.59-3.22-1.81-1.64,.9-3.56,2.04-4.26,2.75-.18,.18-.31,.45-.35,.78-.01,0-.02-.01-.04-.01-.05-.68,.06-1.27,.39-1.61,.7-.7,2.62-1.85,4.26-2.75,1.42-.78,3.14,.2,3.22,1.82Z"/><path class="cls-5" d="M198.91,206.93c-.56,2.37-.1,4.97,1.39,6.75,1.37,1.64,3.56,2.72,6.85,.48,6.58-4.48,4.93-30.38,4.93-30.38,0,0,1.5-4.94,1.33-9.19-.07-1.62-1.8-2.6-3.21-1.82-1.64,.91-3.56,2.05-4.26,2.75-1.3,1.31,.92,6.31,.92,6.31,0,0-6.08,17.26-7.95,25.1Z"/></g></g></g></g></g><g><path class="cls-2" d="M298.5,318.56c0,2.85-5.65,2.81-23.82,2.81s-31.78,.04-31.78-2.81,14.73-5.15,32.9-5.15,22.71,2.31,22.71,5.15Z"/><g><g><path class="cls-5" d="M268.27,188c-5.41,.26-5.21,9.47-5.49,15.04-.13,2.45-.31,13.76-.71,17.54-6.42,2.91-12.8,5.09-19.28,7.75-1.61-.33-6.43-.94-7.3,.3-.87,1.23,1.39,1.45,1.69,1.75-1.14,1.06-6.75,1.32-5.69,4.32,1.05,3,10.77,.53,12.95-1.01,6.03-1.17,11.17-2.37,17.3-3.78,1.27-.29,4.18-1.03,5.84-1.42,1.66-.39,3.11-2.08,3.46-3.56,.54-2.28,1.13-5.94,1.51-7.69,.64-2.99,1.4-9.44,1.56-11.05,.67-6.56,2.2-18.59-5.84-18.2Z"/><path class="cls-8" d="M262.19,219.12l2.18,.82s-.25,4.07-.54,4.65h.71s-2.31,5.21-2.31,5.21l-.84,.2,2.64-9.37-1.88-.92,.04-.58Z"/></g><g><g><rect class="cls-5" x="273.85" y="171.15" width="8.66" height="13.26" transform="translate(563.59 343.71) rotate(177.59)"/><path class="cls-5" d="M281.89,183.25s6.21,1.11,3.1,21.68c-1.39,9.19-3.04,19.66-3.04,19.66h-17.41s1.52-11.2-.98-19.61c-2.49-8.42-.77-14.23,4.25-18.47,3.85-3.25,6-4.13,7.17-4.39,1.18-.25,6.89,1.13,6.89,1.13Z"/><path class="cls-3" d="M284.81,209.59c-1.63,6.96-1.07,15-1.07,15h-19.91c.11-.51,.19-1.04,.26-1.56,1.42-10.14-2.33-21.96-1.95-27.17,.16-2.28,1.7-4.77,3.53-6.95,2.04-2.43,4.43-4.48,5.73-5.43,.36-.26,.64-.44,.8-.51,.2-.09,.38-.16,.55-.23,.81-.31,1.33-.38,1.43-.38-.32,.28-6.49,5.72-3.81,7.05,2.75,1.37,12.35-6.72,12.35-6.72,.13,.11,.25,.22,.37,.35,.12,.11,.24,.23,.34,.35,5.6,6.08,2.93,19.51,1.38,26.2Z"/><path class="cls-8" d="M283.43,183.39c-3.74,3.35-11.15,7.88-14.19,7.88-.15,0-.29-.01-.42-.03-.47-.08-.8-.31-.96-.68-.77-1.71,1.6-4.89,3.54-7.08,.36-.26,.64-.44,.8-.51,.2-.09,.38-.16,.55-.23-2.16,2.28-5.18,5.98-4.44,7.61,.1,.21,.29,.34,.6,.4,2.52,.43,10.38-4.35,14.18-7.71,.12,.11,.24,.23,.34,.35Z"/></g><g><polygon class="cls-8" points="264.03 211.6 271.35 213.15 273.22 202.88 270.08 212.05 264.03 211.6"/><path class="cls-5" d="M281.38,185.68c-4.02-.73-7.28,11.18-7.82,15.07-.17,1.21-1.06,6.17-2.22,12.39-10.23-2.16-19.54-4.13-19.54-4.13,0,0-5.64-4.74-6.51-3.88-.85,.84,.72,2.55,.72,2.55,0,0-6.74-1.81-7.46,.05-.73,1.85,4.71,5.62,11.64,6.71,0,0,9.07,3.68,19.49,7.47,1.35,.5,2.73,.99,4.11,1.48,2.67,.95,5.6-.5,6.47-3.2,.53-1.65,1.03-3.28,1.51-4.86,1.01-3.36,1.88-6.52,2.49-9.21,3.23-14.28,3.09-19.36-2.88-20.44Z"/><g><rect class="cls-8" x="238.5" y="200.14" width="17" height="23.82" rx="1.16" ry="1.16"/><g><line class="cls-9" x1="243.85" y1="213.94" x2="249.89" y2="207.9"/><line class="cls-9" x1="242.55" y1="218.39" x2="251.46" y2="209.47"/></g></g></g></g><g><path class="cls-8" d="M286.13,156.49c1.54-.26,3.18-.11,4.56,.63,1.38,.74,2.45,2.11,2.64,3.66,.18,1.45-.4,2.88-.8,4.29-.11,.41-.21,.83-.13,1.25,.13,.64,.66,1.11,1.15,1.54,1.28,1.13,2.53,2.36,3.31,3.88,.78,1.52,1.05,3.39,.33,4.95-.41,.9-1.3,1.71-2.27,1.55-.39-.06-.74-.27-1.12-.4-.82-.28-1.76-.17-2.48,.3-.67,.44-1.15,1.15-1.85,1.53-.61,.33-1.34,.37-2.03,.28-.86-.12-1.71-.45-2.31-1.08-.6-.63-.89-1.58-.59-2.39,.35-.97,1.38-1.53,1.88-2.43,.35-.64,.4-1.43,.14-2.11-.29-.73-.9-1.28-1.28-1.97-1.3-2.32,.26-5.44-.94-7.81-.3-.6-.76-1.11-.99-1.74-.86-2.36,.55-3.55,2.77-3.92Z"/><path class="cls-5" d="M270.01,158.58c3.1-2.55,9.53-1.51,11.83,1.25,.98,1.18,.46,5.24,.55,6.83,.65-.26,1.84-1.7,2.54-.38,1.03,1.94-.49,4.91-2.92,4.91-.04,.36-.09,.76-.14,1.09-.23,1.71-1.3,3.18-2.63,4.04-2.3,1.49-5.44,1.19-7.61,1.13-2.17-.07-3.57-2.16-3.7-3.33-.48-4.27-1.02-12.99,2.08-15.54Z"/><path class="cls-8" d="M273.83,177.51s2.94-.48,4.57-2.82c0,0-1.34,4.92-4.47,5.23l-.1-2.41Z"/><path class="cls-8" d="M282.5,167.65c-1.13,.05-2.02-1.32-2.94-1.98-.82-.59-1.57-1.3-2.1-2.16-.53-.86-.83-1.89-.71-2.89-3.14-.07-6.46,.99-8.93,2.92-1.88-.74-3.07-2.71-3.29-4.72-.07-.64-.05-1.31,.2-1.9,.21-.51,.59-.94,1.02-1.28,1.43-1.13,3.39-1.31,5.18-.85,.83,.21,1.69,.29,2.52,.08,3.63-.91,7.67-.18,10.6,2.14,.57,.45,1.12,.98,1.39,1.66,.2,.5,.25,1.06,.27,1.6,.12,2.2,.15,4.53-.53,6.63-.11-.59-.56-1.01-1.16-.99-.6,.01-1.42,1.15-1.51,1.75Z"/></g><g><g><g><polygon class="cls-5" points="265.65 315.97 258.47 315.97 259.64 307.32 266.83 307.32 265.65 315.97"/><path class="cls-3" d="M266.94,313.65c.24,.77,.82,2.98,.02,4.52-.07,.13-.21,.21-.35,.21l-18.55,.18c-.59-.58-.09-1.58-.09-1.58,3.34-.17,10.61-3.31,10.61-3.31,0,0,2.45,2.54,4.39,1.58,1.83-.91,1.98-1.83,3.58-1.88,.17,0,.34,.11,.39,.28Z"/><polygon class="cls-8" points="259.44 308.8 259.24 310.28 266.57 309.2 266.63 308.8 259.44 308.8"/></g><path class="cls-7" d="M264.54,224.59s-3.95,6.45-4.94,17.57c-.99,11.12-.94,66.64-.94,66.64h9.2l6.34-84.21h-9.65Z"/><polygon class="cls-8" points="270.84 269.13 267.4 236.11 267.69 253.7 270.84 269.13"/></g><g><g><polygon class="cls-5" points="282.27 315.97 275.09 315.97 276.26 307.32 283.44 307.32 282.27 315.97"/><path class="cls-3" d="M283.56,313.65c.24,.77,.82,2.98,.02,4.52-.07,.13-.21,.21-.35,.21l-18.55,.18c-.59-.58-.09-1.58-.09-1.58,3.34-.17,10.61-3.31,10.61-3.31,0,0,2.45,2.54,4.39,1.58,1.83-.91,1.98-1.83,3.58-1.88,.17,0,.34,.11,.39,.28Z"/><polygon class="cls-8" points="276.06 308.8 275.79 310.73 283.18 309.24 283.24 308.8 276.06 308.8"/></g><g><path class="cls-7" d="M285.86,251.02c-1.63,15.08-1.29,57.78-1.29,57.78h-9.6l-8.77-84.21h17.54s3.75,11.35,2.12,26.43Z"/><path class="cls-8" d="M283,251.21c-.31,13.81-.62,52.76-.67,57.59h-1c.05-4.8,.36-43.78,.67-57.61,.29-12.91-1.47-24.09-1.9-26.6h1.01c.48,2.86,2.17,13.92,1.89,26.62Z"/></g></g></g></g></g><g><g><path class="cls-1" d="M155.52,100.71c-.48-15.46-2.07-20.63-8.85-20.17-4.57,.32-4.77,13.37-4.26,17.48,.19,1.49,.7,8.33,1.27,16.47-9.52-1.48-19.36-2.75-22.06-3.12-.16-.03-.33-.05-.51-.07-.03,0-.09-.01-.11-.02,0,0,0,0,0,0-2.78-.3-7.1,.13-7.72,1.26-.59,1.07-.97,3.37-1.14,4.5-.03,.22,.23,.36,.4,.21l2.26-2.04s3.25,3.53,7.5,1.34l1.45,.45c3.2,1.27,10.35,5.01,20.68,8.19,1.11,.34,2.22,.68,3.34,1.01,3.34,1,6.75-1.35,7.01-4.83,.13-1.71,.25-3.43,.35-5.13,.35-5.72,.54-11.24,.4-15.54Z"/><path class="cls-6" d="M142.46,112.79s-.98-22.4,.07-26.86c1.05-4.47,4.15-6.7,7.38-5.52,3.23,1.18,5.43,3.26,6.01,10.68,.59,7.42-.87,30.27-1.72,33.67-.85,3.4-10.24,2.6-25.84-5.05l1.44-8.68,12.65,1.76Z"/><polygon class="cls-8" points="129.57 112.44 128.47 119.09 126.53 118.21 129.16 112.38 129.57 112.44"/></g><g><g><g><polygon class="cls-5" points="154.41 194.62 160.1 190.22 155.8 183.33 149.96 187.84 154.41 194.62"/><path class="cls-8" d="M159.23,187.91c.65,.38,2.43,1.54,3.61,3.29,.27,.4,.19,.96-.2,1.25l-1.5,1.13-.75-.67-.81,1.69c-.07,.15-.18,.29-.32,.39l-10.84,8.15-.68-.9c-.14-.19-.15-.44-.03-.64,.9-1.45,4.5-7.31,4.96-8.72,.3-.9,2.36-1.25,3.79-2.26,1.2-.85,1.77-2.41,2.27-2.7,.15-.09,.34-.09,.49,0Z"/></g><g><path class="cls-4" d="M149.65,112.98s9.05,6.77,10.43,13.83c0,0-9.42,14.02-17.08,22.93-2.92,3.4-3,8.39-.19,11.89,6.11,7.6,13.9,20.19,15.49,25.11l-6.74,4.85s-23.87-23.74-26.19-36.39c-2.55-13.88,16.04-35.66,24.28-42.21Z"/><path class="cls-8" d="M147.84,143.8c-.64,.82-1.27,1.62-1.91,2.41-3.15,.31-6.33,.57-9.21,.69-4.5,.19-8.18,3.61-8.81,8.07-.23,1.61-.53,3.34-.88,5.14-.71-1.54-1.24-3.01-1.55-4.36,.16-.95,.31-1.88,.44-2.77,.64-4.46,4.31-7.88,8.81-8.07,4.08-.18,8.74-.62,13.11-1.11Z"/></g></g><g><g><polygon class="cls-5" points="109.71 183.39 116.81 184.52 118.88 176.66 111.59 175.5 109.71 183.39"/><path class="cls-8" d="M117.9,182.3c.17,.73,.55,2.82,.08,4.88-.11,.47-.57,.8-1.05,.71l-1.85-.32-.03-1-1.78,.57c-.16,.05-.33,.06-.5,.03l-13.36-2.31,.19-1.11c.04-.23,.21-.41,.44-.46,1.67-.34,8.41-1.74,9.75-2.36,.86-.4,2.53,.87,4.25,1.21,1.44,.29,2.96-.36,3.52-.2,.17,.05,.3,.18,.34,.35Z"/></g><g><path class="cls-4" d="M164.49,139.2c-.61,1.53-2,2.61-3.63,2.86-4.96,.75-17.03,2.46-26.13,2.85-4.5,.19-8.17,3.61-8.81,8.07-1.38,9.65-5.23,23.88-7.73,28.38l-3.28-.65-.98-.19-3.88-.77s1.01-33.64,8.65-43.99c7.6-10.26,31.62-13.43,43.85-12.8,.35,.01,.68,.03,1,.06,.9,.06,1.73,.15,2.46,.26,0,0,1.03,9.6-1.52,15.92Z"/><path class="cls-8" d="M163.55,123.02c0,4.36-1.21,7.92-3.58,10.61-5.38,6.07-15.52,6.66-23.66,7.14-4.2,.25-7.83,.46-9.54,1.42-5.84,3.26-11.02,33.42-11.86,38.52l-.98-.19c.87-5.38,6.06-35.68,12.36-39.21,1.9-1.06,5.46-1.27,9.96-1.54,7.96-.46,17.87-1.04,22.97-6.81,2.25-2.55,3.35-5.83,3.33-10,.35,.01,.68,.03,1,.06Z"/></g></g></g><g><rect class="cls-5" x="147.6" y="67.74" width="8.66" height="13.73" transform="translate(316.14 115.64) rotate(167.87)"/><path class="cls-6" d="M166.21,123.74l-27.04,.33s-5.28-34.1,7.03-44.55c.57-.48,1.3-.74,2.04-.69h9.34c.97,.06,1.83,.62,2.27,1.48,1.9,3.72,6.49,16.72,6.36,43.42Z"/><path class="cls-8" d="M112.33,133.51c-.26,0-.52-.07-.74-.2-.35-.2-.6-.52-.7-.91l-7.07-25.97c-.22-.8,.25-1.62,1.05-1.84,.8-.22,1.62,.25,1.84,1.05l6.68,24.52,28.62-7.79c.8-.22,1.62,.25,1.84,1.05,.22,.8-.25,1.62-1.05,1.84l-30.07,8.19c-.13,.04-.26,.05-.39,.05Z"/><g><path class="cls-1" d="M168.47,96.97c-4.17-14.89-6.95-19.53-13.43-17.46-4.36,1.4-1.42,14.12,.05,18,.54,1.4,2.67,7.92,5.18,15.69-9.6,.84-19.46,1.97-22.17,2.25-.16,.01-.33,.03-.51,.05-.03,0-.09,0-.11,.01,0,0,0,0,0,0-2.77,.38-6.87,1.83-7.2,3.08-.31,1.18-.14,3.51-.03,4.64,.02,.22,.31,.29,.44,.11l1.71-2.52s4.01,2.65,7.6-.5l1.51,.09c3.41,.46,11.25,2.39,22.04,3,1.16,.07,2.32,.13,3.48,.18,3.48,.17,6.23-2.93,5.65-6.37-.29-1.69-.58-3.39-.89-5.07-1.04-5.64-2.17-11.04-3.33-15.18Z"/><path class="cls-6" d="M159,112.03s-6.89-21.33-7.07-25.92c-.18-4.58,2.22-7.56,5.65-7.28,3.42,.28,6.1,1.7,8.64,8.7,2.54,7,7.2,29.42,7.29,32.92,.08,3.5-9.18,5.23-26.25,2l-.92-8.75,12.67-1.67Z"/><polygon class="cls-8" points="146.42 114.54 147.14 121.39 144.8 120.96 145.97 114.59 146.42 114.54"/><polygon class="cls-8" points="158.9 111.73 148.34 113.44 157.58 110.7 155.5 99.95 158.9 111.73"/></g></g><g><path class="cls-5" d="M157.04,62.48c-.73-1.29-1.88,.14-2.52,.42-.15-1.58,.38-5.72-.63-6.88-2.35-2.71-8.63-3.9-11.81-1.12s-2.37,12.09-1.46,16.57c.25,1.23,1.74,3.48,4,3.39,2.26-.09,5.2-.22,7.35-1.95,1.24-.99,2.15-2.6,2.26-4.32,.02-.33,.05-.75,.07-1.12,2.41-.09,3.79-3.11,2.72-5Z"/><path class="cls-8" d="M155.25,69.45l-.43-2.02c1.43-.36,3.04-2.03,2.31-4.43-.74-2.4-2.89,.27-2.89,.27-2.51,3.41-4.82-.2-4.95-2.23-.13-2.03-1.16-2.62-3.51-1.82-2.35,.8-5.81,1.22-5.81,1.22l-.12,4.22c-1-2.38-1.99-4.87-2.99-7.26-.49-1.17-.99-2.37-1.03-3.63-.05-1.26,.45-2.63,1.55-3.26,.98-.57,2.22-.45,3.32-.13,1.09,.32,2.15,.8,3.28,.92,2.32,.24,4.49-.22,6.82-.14,1.09,.04,2.2,.11,3.2,.54,1,.43,1.89,1.28,2.07,2.35,.04,.22,.05,.44,.12,.64,.23,.68,1.01,.97,1.62,1.35,1.58,1.01,2.18,3.04,2.26,4.91,.08,1.75-.19,3.54-.97,5.1-.79,1.56-2.09,3.42-3.84,3.42Z"/><path class="cls-8" d="M147.51,74.64s3.68-.8,5.9-4.12c0,0,.66,6.15-5.45,6.22l-.45-2.1Z"/></g></g></g></svg>