<?xml version="1.0" encoding="UTF-8"?><svg xmlns="http://www.w3.org/2000/svg" xmlns:xlink="http://www.w3.org/1999/xlink" viewBox="0 0 286.06 222.34"><defs><style>.cls-1{fill:url(#linear-gradient);}.cls-2{fill:#03336e;}.cls-3{fill:#022652;}.cls-4{fill:#001a46;}.cls-5{fill:#f0f8ff;}.cls-6{fill:#ffde17;}.cls-7{fill:#f76195;}.cls-8{fill:#eb4680;}.cls-9,.cls-10,.cls-11{fill:#fff;}.cls-12{fill:#ffe9b8;}.cls-13{fill:#fc0;}.cls-14{fill:#ffd70f;}.cls-15{fill:#72b5e8;}.cls-16{fill:#a8cff0;}.cls-17,.cls-18{fill:#d1ebff;}.cls-19{fill:#d62d69;}.cls-20,.cls-21{fill:#3f92d1;}.cls-22{fill:#3ecfcd;}.cls-23{fill:#0fbab8;}.cls-24,.cls-25{fill:#084c94;}.cls-26{fill:#0ba19f;}.cls-27{fill:#4f9fdb;}.cls-28{fill:#2672ab;}.cls-18{mix-blend-mode:multiply;}.cls-18,.cls-25{opacity:.2;}.cls-10{mix-blend-mode:screen;}.cls-29{fill:url(#linear-gradient-2);}.cls-30{isolation:isolate;}.cls-21{opacity:.5;}.cls-11{opacity:.3;}</style><linearGradient id="linear-gradient" x1="262.38" y1="196.7" x2="270.29" y2="167.62" gradientUnits="userSpaceOnUse"><stop offset="0" stop-color="#25054d"/><stop offset="1" stop-color="#45108a"/></linearGradient><linearGradient id="linear-gradient-2" x1="278.37" y1="189.41" x2="248.19" y2="189.41" gradientUnits="userSpaceOnUse"><stop offset="0" stop-color="#45108a"/><stop offset=".14" stop-color="#4c1199"/><stop offset=".32" stop-color="#5915b3"/><stop offset=".61" stop-color="#25054d"/><stop offset=".83" stop-color="#3b0c75"/><stop offset=".99" stop-color="#2f0960"/></linearGradient></defs><g class="cls-30"><g id="Layer_2"><g id="Layer_1-2"><path class="cls-16" d="M263.6,208.43c-.46,0-.91,0-1.36-.03-.28-.01-.49-.24-.48-.52,.01-.28,.23-.48,.52-.48,.65,.03,1.32,.03,1.97,.02,.25,.03,.5,.21,.51,.49,0,.28-.21,.5-.49,.51-.22,0-.44,0-.67,0Zm3.65-.19c-.25,0-.47-.19-.5-.45-.03-.27,.17-.52,.45-.55,.66-.07,1.31-.16,1.95-.26,.27-.05,.53,.14,.57,.41,.04,.27-.14,.53-.41,.57-.66,.11-1.33,.2-2.01,.27-.02,0-.03,0-.05,0Zm-7.98-.08s-.04,0-.06,0c-.68-.08-1.35-.19-2.01-.31-.27-.05-.45-.31-.4-.58,.05-.27,.31-.45,.58-.4,.64,.12,1.29,.22,1.95,.3,.27,.03,.47,.28,.43,.56-.03,.25-.25,.44-.5,.44Zm12.9-.81c-.22,0-.42-.15-.48-.37-.07-.27,.09-.54,.36-.61,.64-.17,1.27-.36,1.88-.57,.26-.09,.54,.05,.63,.31,.09,.26-.05,.54-.31,.63-.63,.21-1.29,.41-1.95,.59-.04,.01-.08,.02-.13,.02Zm-17.8-.18s-.09,0-.14-.02c-.66-.19-1.31-.4-1.94-.63-.26-.09-.39-.38-.3-.64,.1-.26,.38-.39,.64-.3,.61,.22,1.23,.43,1.87,.61,.26,.08,.42,.35,.34,.62-.06,.22-.26,.36-.48,.36Zm22.49-1.52c-.19,0-.36-.1-.45-.28-.12-.25-.02-.55,.23-.67,.6-.29,1.18-.6,1.72-.93,.24-.14,.54-.07,.69,.17,.14,.24,.07,.54-.17,.69-.57,.34-1.17,.67-1.8,.97-.07,.03-.14,.05-.22,.05Zm-27.13-.31c-.08,0-.16-.02-.23-.06-.62-.32-1.22-.67-1.77-1.04-.23-.15-.29-.46-.14-.69,.15-.23,.46-.29,.69-.14,.52,.34,1.09,.68,1.68,.98,.24,.13,.34,.43,.21,.67-.09,.17-.26,.27-.44,.27Zm31.31-2.41c-.14,0-.27-.06-.37-.17-.18-.21-.17-.52,.04-.71,.5-.44,.94-.91,1.33-1.38,.17-.22,.49-.25,.7-.07,.21,.17,.25,.49,.07,.7-.42,.51-.9,1.02-1.44,1.5-.09,.09-.21,.13-.33,.13Zm-35.37-.47c-.13,0-.25-.05-.35-.14-.51-.51-.97-1.04-1.36-1.58-.16-.22-.11-.54,.12-.7,.22-.16,.54-.11,.7,.12,.35,.5,.77,.98,1.25,1.45,.2,.19,.2,.51,0,.71-.1,.1-.23,.15-.36,.15Zm38.27-3.54c-.06,0-.12-.01-.18-.03-.26-.1-.39-.39-.29-.64,.22-.59,.37-1.2,.42-1.81,.03-.28,.28-.46,.55-.45,.27,.03,.48,.27,.45,.55-.07,.69-.23,1.39-.49,2.07-.08,.2-.27,.32-.47,.32Zm-40.88-.65c-.22,0-.42-.14-.48-.36-.19-.69-.29-1.4-.29-2.11,0-.13,0-.26,.01-.39,.01-.28,.22-.51,.52-.47,.28,.01,.49,.25,.47,.52,0,.11,0,.23,0,.34,0,.61,.09,1.23,.26,1.83,.07,.27-.08,.54-.35,.62-.05,.01-.09,.02-.14,.02Zm41.01-4.25c-.21,0-.41-.13-.48-.34-.19-.58-.45-1.15-.79-1.7-.14-.24-.07-.54,.16-.69,.24-.14,.54-.07,.69,.16,.38,.62,.68,1.26,.89,1.91,.08,.26-.06,.54-.32,.63-.05,.02-.1,.02-.16,.02Zm-40.53-.97c-.07,0-.15-.02-.21-.05-.25-.12-.36-.42-.24-.67,.29-.61,.66-1.21,1.1-1.79,.17-.22,.48-.26,.7-.09,.22,.17,.26,.48,.09,.7-.4,.52-.73,1.06-.99,1.61-.09,.18-.26,.29-.45,.29Zm37.78-3.14c-.12,0-.25-.05-.34-.14-.45-.42-.95-.83-1.5-1.22-.22-.16-.28-.47-.12-.7,.16-.23,.47-.28,.7-.12,.58,.42,1.12,.86,1.6,1.31,.2,.19,.21,.51,.02,.71-.1,.1-.23,.16-.36,.16Zm-34.63-.69c-.15,0-.29-.06-.39-.19-.17-.21-.14-.53,.07-.7,.51-.42,1.08-.82,1.67-1.19,.23-.15,.54-.08,.69,.16,.15,.23,.08,.54-.16,.69-.56,.36-1.1,.73-1.58,1.13-.09,.08-.2,.11-.31,.11Zm30.51-2.12c-.08,0-.15-.02-.22-.05-.57-.28-1.17-.55-1.79-.8-.26-.1-.38-.39-.28-.65,.1-.26,.39-.38,.65-.28,.64,.26,1.27,.54,1.86,.84,.25,.12,.35,.42,.22,.67-.09,.17-.26,.28-.45,.28Zm-26.23-.45c-.19,0-.37-.11-.46-.3-.11-.25,0-.55,.25-.66,.6-.27,1.24-.52,1.89-.76,.26-.09,.55,.04,.64,.3,.09,.26-.04,.55-.3,.64-.63,.22-1.24,.47-1.82,.72-.07,.03-.14,.04-.2,.04Zm21.56-1.32s-.09,0-.13-.02c-.62-.17-1.26-.33-1.91-.46-.27-.06-.44-.32-.39-.59,.06-.27,.33-.45,.59-.39,.67,.14,1.34,.3,1.98,.48,.27,.07,.42,.35,.35,.62-.06,.22-.26,.37-.48,.37Zm-16.83-.26c-.23,0-.43-.15-.49-.38-.06-.27,.1-.54,.37-.6,.65-.15,1.31-.29,1.99-.41,.27-.05,.53,.14,.58,.41,.05,.27-.14,.53-.41,.58-.66,.11-1.3,.25-1.93,.4-.04,0-.08,.01-.12,.01Zm11.92-.68s-.04,0-.06,0c-.64-.07-1.3-.13-1.96-.17-.28-.02-.49-.25-.47-.53,.01-.27,.23-.49,.53-.47,.68,.04,1.36,.1,2.02,.17,.27,.03,.47,.28,.44,.55-.03,.25-.25,.44-.5,.44Zm-6.99-.1c-.26,0-.48-.2-.5-.46-.02-.28,.18-.52,.46-.54,.66-.05,1.34-.09,2.02-.11h.01c.27,0,.49,.21,.5,.49,0,.28-.21,.51-.49,.51-.67,.02-1.32,.05-1.97,.11-.01,0-.03,0-.04,0Z"/><g><path class="cls-16" d="M51.48,133.89c-.27,0-.49-.21-.5-.48-.01-.28,.2-.51,.48-.52,.66-.03,1.31-.1,1.91-.22,.27-.05,.53,.12,.59,.4,.05,.27-.12,.53-.4,.59-.65,.13-1.35,.21-2.06,.24,0,0-.02,0-.02,0Zm-2.99-.15s-.05,0-.07,0c-.68-.1-1.36-.24-2.02-.42-.27-.07-.42-.35-.35-.62,.07-.27,.35-.42,.62-.35,.61,.17,1.25,.3,1.9,.39,.27,.04,.46,.29,.42,.57-.04,.25-.25,.43-.49,.43Zm7.8-1.06c-.18,0-.35-.09-.44-.26-.13-.24-.05-.55,.2-.68l1.86-1.07c.24-.14,.54-.06,.68,.18,.14,.24,.06,.55-.18,.68l-1.87,1.08c-.08,.04-.16,.06-.24,.06Zm-12.54-.45c-.08,0-.16-.02-.24-.06l-.31-.17c-.53-.31-1.01-.64-1.43-1-.21-.18-.24-.49-.06-.71,.18-.21,.5-.24,.71-.06,.37,.32,.81,.62,1.28,.89l.29,.16c.24,.13,.33,.43,.2,.68-.09,.17-.26,.26-.44,.26Zm17.01-2.13c-.17,0-.34-.09-.43-.25-.14-.24-.06-.54,.18-.68l1.73-1c.24-.14,.54-.06,.68,.18,.14,.24,.06,.54-.18,.68l-1.73,1c-.08,.05-.17,.07-.25,.07Zm-20.36-1.4c-.22,0-.42-.14-.48-.36-.09-.33-.14-.67-.14-1.01,0-.43,.08-.86,.24-1.27,.1-.26,.39-.38,.65-.29,.26,.1,.39,.39,.29,.65-.11,.29-.17,.6-.17,.91,0,.24,.04,.49,.11,.74,.08,.27-.08,.54-.34,.62-.05,.01-.09,.02-.14,.02Zm24.69-1.1c-.17,0-.34-.09-.43-.25-.14-.24-.06-.54,.18-.68l1.73-1c.24-.14,.54-.06,.68,.18,.14,.24,.06,.55-.18,.68l-1.73,1c-.08,.05-.17,.07-.25,.07Zm4.33-2.5c-.17,0-.34-.09-.43-.25-.14-.24-.06-.55,.18-.68l1.73-1c.24-.14,.54-.06,.68,.18,.14,.24,.06,.54-.18,.68l-1.73,1c-.08,.05-.17,.07-.25,.07Zm-26.65-.59l-.28-.42-.22-.45,1.71-.99c.24-.14,.54-.06,.68,.18,.14,.24,.06,.54-.18,.68l-1.7,.98Zm30.98-1.91c-.17,0-.34-.09-.43-.25-.14-.24-.06-.54,.18-.68l1.73-1c.24-.14,.54-.06,.68,.18,.14,.24,.06,.54-.18,.68l-1.73,1c-.08,.05-.17,.07-.25,.07Zm-26.93-.51c-.17,0-.34-.09-.43-.25-.14-.24-.06-.54,.18-.68l1.73-1c.24-.14,.54-.06,.68,.18,.14,.24,.06,.55-.18,.68l-1.73,1c-.08,.05-.17,.07-.25,.07Zm31.26-1.99c-.17,0-.34-.09-.43-.25-.14-.24-.06-.54,.18-.68l1.73-1c.24-.14,.55-.06,.68,.18,.14,.24,.06,.55-.18,.68l-1.73,1c-.08,.05-.17,.07-.25,.07Zm-26.93-.51c-.17,0-.34-.09-.43-.25-.14-.24-.06-.55,.18-.68l1.73-1c.24-.14,.54-.06,.68,.18,.14,.24,.06,.54-.18,.68l-1.73,1c-.08,.05-.17,.07-.25,.07Zm31.26-1.99c-.17,0-.34-.09-.43-.25-.14-.24-.06-.54,.18-.68l1.73-1c.23-.14,.54-.06,.68,.18,.14,.24,.06,.54-.18,.68l-1.73,1c-.08,.05-.17,.07-.25,.07Zm-26.93-.51c-.17,0-.34-.09-.43-.25-.14-.24-.06-.54,.18-.68l1.73-1c.24-.14,.54-.06,.68,.18,.14,.24,.06,.55-.18,.68l-1.73,1c-.08,.05-.17,.07-.25,.07Zm31.26-1.99c-.17,0-.34-.09-.43-.25-.14-.24-.06-.54,.18-.68l1.73-1c.24-.14,.54-.06,.68,.17,.14,.24,.06,.54-.17,.68l-1.74,1c-.08,.05-.17,.07-.25,.07Zm-26.93-.51c-.17,0-.34-.09-.43-.25-.14-.24-.06-.55,.18-.68l1.73-1c.24-.14,.54-.06,.68,.18,.14,.24,.06,.54-.18,.68l-1.73,1c-.08,.05-.17,.07-.25,.07Zm4.33-2.5c-.17,0-.34-.09-.43-.25-.14-.24-.06-.54,.18-.68l1.73-1c.24-.14,.54-.06,.68,.18,.14,.24,.06,.54-.18,.68l-1.73,1c-.08,.05-.17,.07-.25,.07Zm26.3-.17c-.06,0-.11,0-.17-.03-.26-.09-.39-.38-.3-.64,.1-.28,.15-.56,.15-.85,0-.26-.04-.53-.12-.8-.08-.26,.07-.54,.33-.62,.27-.08,.54,.07,.62,.33,.11,.36,.17,.73,.17,1.09,0,.4-.07,.8-.21,1.19-.07,.2-.27,.33-.47,.33Zm-21.97-2.33c-.17,0-.34-.09-.43-.25-.14-.24-.06-.54,.18-.68l1.73-1c.23-.14,.54-.06,.68,.18,.14,.24,.06,.54-.18,.68l-1.73,1c-.08,.05-.17,.07-.25,.07Zm20.27-2.03c-.11,0-.23-.04-.32-.12-.36-.3-.77-.58-1.23-.85-.12-.07-.23-.13-.35-.2-.24-.13-.34-.43-.21-.68,.13-.24,.43-.34,.68-.21,.13,.07,.26,.14,.38,.21,.5,.29,.96,.61,1.37,.94,.21,.18,.24,.49,.07,.7-.1,.12-.24,.18-.38,.18Zm-15.94-.47c-.17,0-.34-.09-.43-.25-.14-.24-.06-.54,.18-.68l1.66-.96,.32,.39,.19,.47-1.67,.96c-.08,.05-.17,.07-.25,.07Zm11.48-1.71s-.09,0-.13-.02c-.62-.17-1.25-.29-1.9-.38-.27-.04-.46-.29-.43-.56,.04-.27,.3-.46,.56-.43,.69,.09,1.37,.23,2.02,.41,.27,.07,.42,.35,.35,.61-.06,.22-.26,.37-.48,.37Zm-6.94-.29c-.23,0-.44-.16-.49-.4-.05-.27,.12-.53,.39-.59,.65-.13,1.35-.21,2.06-.25,.31-.01,.51,.2,.52,.47,.01,.28-.2,.51-.47,.52-.66,.03-1.3,.11-1.91,.23-.03,0-.07,0-.1,0Z"/><path class="cls-16" d="M43.5,61.17c1.81-1.05,3.53-1.59,5.08-1.69,0-.11-.01-.21-.01-.32,0-15.38,10.86-34.11,24.26-41.85,10.78-6.22,19.9-3.42,23.06,5.91,.83-.63,1.67-1.22,2.53-1.71,8.84-5.1,16-1.02,16,9.12s-7.16,22.49-16,27.59c-4.42,2.55-49.7,28.69-54.93,31.71-6.92,4-12.53,.8-12.53-7.14s5.61-17.62,12.53-21.62Z"/><path class="cls-9" d="M19.44,47.27c1.81-1.05,3.53-1.59,5.08-1.69,0-.11-.01-.21-.01-.32,0-15.38,10.86-34.11,24.26-41.85C59.54-2.81,68.67-.01,71.83,9.31c.83-.63,1.67-1.22,2.53-1.71,8.84-5.1,16-1.02,16,9.12s-7.16,22.49-16,27.59c-4.42,2.55-49.7,28.69-54.93,31.71-6.92,4-12.53,.8-12.53-7.14s5.61-17.62,12.53-21.62Z"/><g><path class="cls-19" d="M95.15,24.27V57.12l-17.9-10.32c-.34-.19-.55-.55-.55-.94V14.78c0-.51,.55-.82,.99-.57l17.46,10.06Z"/><path class="cls-7" d="M95.05,24.44l-17.46-10.06c-.3-.17-.64-.08-.83,.16,.14-.36,.57-.54,.94-.33l17.46,10.06V57.12l-.1-.06V24.44Z"/><g><polygon class="cls-17" points="92.18 26.46 92.18 56.44 94.45 54.86 94.45 24.91 92.18 26.46"/><polygon class="cls-9" points="94.45 24.91 92.18 26.46 75.49 16.84 77.79 15.27 94.45 24.91"/></g><path class="cls-7" d="M92.55,25.96V58.82l-17.9-10.32c-.34-.19-.55-.55-.55-.94V16.47c0-.51,.55-.82,.99-.57l17.46,10.06Z"/><path class="cls-7" d="M92.32,25.97V58.83s1.89-.11,2.76-1.84v-.02s.01-32.68,.01-32.68h-.12c-.86,1.74-2.65,1.69-2.65,1.69Z"/><path class="cls-19" d="M92.4,26.08V58.93l-17.9-10.32c-.34-.19-.55-.55-.55-.94V16.58c0-.51,.55-.82,.99-.57l17.46,10.06Z"/><path class="cls-8" d="M92.38,26.08V58.93s1.89-.11,2.76-1.84v-.02s.01-32.83,.01-32.83h0c-.86,1.74-2.77,1.84-2.77,1.84Z"/></g><g><path class="cls-26" d="M90.87,26.41V59.26l-17.9-10.32c-.34-.19-.55-.55-.55-.94V16.91c0-.51,.55-.82,.99-.57l17.46,10.06Z"/><path class="cls-22" d="M90.76,26.58l-17.46-10.06c-.3-.17-.64-.08-.83,.16,.14-.36,.57-.54,.94-.33l17.46,10.06V59.26l-.1-.06V26.58Z"/><g><polygon class="cls-17" points="84.48 30.33 84.48 60.3 90.16 57 90.16 27.05 84.48 30.33"/><polygon class="cls-9" points="90.16 27.05 84.48 30.33 67.79 20.7 73.51 17.4 90.16 27.05"/></g><path class="cls-22" d="M84.85,29.83V62.68l-17.9-10.32c-.34-.19-.55-.55-.55-.94V20.34c0-.51,.55-.82,.99-.57l17.46,10.06Z"/><path class="cls-22" d="M84.61,29.84V62.69l1.76-.3c1.91-.32,3.55-1.54,4.41-3.27v-.02s.01-32.68,.01-32.68h-.12c-.86,1.74-2.39,2.8-4.3,3.13l-1.76,.3Z"/><path class="cls-26" d="M84.7,29.94V62.8l-17.9-10.32c-.34-.19-.55-.55-.55-.94V20.45c0-.51,.55-.82,.99-.57l17.46,10.06Z"/><path class="cls-23" d="M84.68,29.94V62.8l1.76-.3c1.91-.32,3.55-1.54,4.41-3.27v-.02s.01-32.83,.01-32.83h0c-.86,1.74-2.51,2.96-4.42,3.28l-1.76,.3Z"/></g><g><path class="cls-2" d="M83.13,30.34V63.19l-17.9-10.32c-.34-.19-.55-.55-.55-.94V20.85c0-.51,.55-.82,.99-.57l17.46,10.06Z"/><path class="cls-20" d="M83.03,30.51l-17.46-10.06c-.3-.17-.64-.08-.83,.16,.14-.36,.57-.54,.94-.33l17.46,10.06V63.19l-.1-.06V30.51Z"/><g><polygon class="cls-17" points="78.79 33.04 78.79 63.01 82.43 60.93 82.43 30.98 78.79 33.04"/><polygon class="cls-9" points="82.43 30.98 78.79 33.04 62.1 23.42 65.78 21.34 82.43 30.98"/></g><path class="cls-20" d="M79.16,32.54v32.85l-17.9-10.32c-.34-.19-.55-.55-.55-.94V23.05c0-.51,.55-.82,.99-.57l17.46,10.06Z"/><path class="cls-20" d="M78.93,32.55v32.85s3.27-.61,4.13-2.35v-.02s.01-32.68,.01-32.68h-.12c-.86,1.74-4.02,2.2-4.02,2.2Z"/><path class="cls-2" d="M79.01,32.65v32.85l-17.9-10.32c-.34-.19-.55-.55-.55-.94V23.16c0-.51,.55-.82,.99-.57l17.46,10.06Z"/><path class="cls-24" d="M78.99,32.65v32.85s3.27-.61,4.13-2.35v-.02s.01-32.83,.01-32.83h0c-.86,1.74-4.14,2.35-4.14,2.35Z"/></g><g><path class="cls-24" d="M55.88,52.32l18.02,10.45c.69,.4,1.12,1.13,1.12,1.93v1.77c0,.37-.22,.66-.52,.8l-27.1,16.37-.47-4.33-18.64-10.81,26.73-16.17c.27-.16,.6-.16,.87-.01Z"/><path class="cls-20" d="M46.93,79.32l-18.64-10.81,26.73-16.17c.27-.16,.6-.16,.87-.01l18.02,10.45-26.97,16.54Z"/><path class="cls-9" d="M47.65,81.04v1.71c0,.66-.71,1.07-1.28,.74l-17.69-10.26v-4.45l17.89,10.37c.67,.38,1.09,1.1,1.09,1.87Z"/><path class="cls-17" d="M47.13,83.24v-1.71c0-.77-.41-1.49-1.09-1.87l-17.37-10.07v-.79l17.89,10.37c.67,.38,1.09,1.1,1.09,1.87v1.71c0,.4-.26,.7-.59,.81,.04-.1,.07-.2,.07-.32Z"/><path class="cls-2" d="M46.71,83.37c.08,.05,.17,.07,.27,.07,.26,0,.54-.21,.54-.54v-1.77c0-.67-.36-1.3-.95-1.63l-18.28-10.63v-.37l18.45,10.7c.69,.4,1.12,1.13,1.12,1.93v1.77c0,.68-.74,1.11-1.33,.77l-18.25-10.58v-.43l18.42,10.71Z"/></g><g><path class="cls-14" d="M57.45,50.9l13.07,7.58c.5,.29,.81,.82,.81,1.4v1.28c0,.27-.16,.48-.38,.58l-19.66,11.88-.34-3.14-13.52-7.84,19.39-11.73c.19-.12,.43-.12,.63,0Z"/><path class="cls-6" d="M50.95,70.48l-13.52-7.84,19.39-11.73c.19-.12,.43-.12,.63,0l13.07,7.58-19.57,12Z"/><path class="cls-9" d="M51.47,71.73v1.24c0,.48-.52,.78-.93,.54l-12.84-7.44v-3.23l12.98,7.53c.49,.28,.79,.8,.79,1.36Z"/><path class="cls-17" d="M51.09,73.33v-1.24c0-.56-.3-1.08-.79-1.36l-12.61-7.31v-.57l12.98,7.53c.49,.28,.79,.8,.79,1.36v1.24c0,.29-.19,.51-.43,.59,.03-.07,.05-.15,.05-.23Z"/><path class="cls-13" d="M50.79,73.43c.06,.03,.13,.05,.19,.05,.19,0,.39-.15,.39-.39v-1.28c0-.49-.26-.94-.69-1.18l-13.26-7.71v-.27l13.39,7.76c.5,.29,.81,.82,.81,1.4v1.28c0,.49-.53,.8-.96,.56l-13.24-7.68v-.31l13.36,7.77Z"/></g><path class="cls-23" d="M18.11,86.64c-.09,0-.18-.02-.26-.07l-1.71-1.03c-.24-.14-.31-.45-.17-.69,.14-.24,.45-.31,.69-.17l1.71,1.03c.24,.14,.31,.45,.17,.69-.09,.16-.26,.24-.43,.24Zm-4.28-2.58c-.09,0-.18-.02-.26-.07l-1.71-1.03c-.24-.14-.31-.45-.17-.69,.14-.24,.45-.31,.69-.17l1.71,1.03c.24,.14,.31,.45,.17,.69-.09,.16-.26,.24-.43,.24Zm-4.28-2.58c-.09,0-.18-.02-.26-.07l-1.71-1.03c-.24-.14-.31-.45-.17-.69,.14-.24,.45-.31,.69-.17l1.71,1.03c.24,.14,.31,.45,.17,.69-.09,.16-.26,.24-.43,.24Zm-4.28-2.58c-.09,0-.18-.02-.26-.07l-1.71-1.03c-.24-.14-.31-.45-.17-.69,.14-.24,.45-.31,.69-.17l1.71,1.03c.24,.14,.31,.45,.17,.69-.09,.16-.26,.24-.43,.24Zm-3.36-3.52c-.19,0-.37-.11-.45-.29-.29-.61-.54-1.26-.74-1.94-.08-.26,.07-.54,.33-.62,.26-.08,.54,.07,.62,.34,.19,.63,.42,1.23,.69,1.8,.12,.25,.01,.55-.24,.67-.07,.03-.14,.05-.21,.05Zm-1.3-4.8c-.25,0-.47-.19-.5-.45-.07-.66-.1-1.35-.1-2.05,0-.28,.22-.5,.5-.5h0c.28,0,.5,.22,.5,.5,0,.66,.03,1.32,.1,1.95,.03,.27-.17,.52-.45,.55-.02,0-.04,0-.05,0Zm.1-4.99s-.04,0-.07,0c-.27-.04-.47-.29-.43-.56,.09-.66,.21-1.34,.35-2.01,.06-.27,.32-.45,.59-.38,.27,.06,.44,.32,.38,.59-.14,.65-.25,1.3-.34,1.93-.03,.25-.25,.43-.5,.43Zm1.12-4.87c-.05,0-.1,0-.15-.02-.26-.09-.41-.37-.32-.63,.21-.64,.44-1.28,.69-1.91,.1-.26,.39-.38,.65-.28,.26,.1,.38,.39,.28,.65-.24,.61-.46,1.23-.67,1.85-.07,.21-.26,.35-.48,.35Zm1.9-4.62c-.08,0-.15-.02-.22-.05-.25-.12-.35-.42-.22-.67,.3-.6,.62-1.2,.96-1.79,.14-.24,.44-.32,.68-.18,.24,.14,.32,.44,.18,.68-.33,.57-.64,1.15-.94,1.74-.09,.17-.26,.28-.45,.28Zm2.56-4.29c-.1,0-.2-.03-.29-.09-.23-.16-.28-.47-.12-.7,.39-.56,.79-1.1,1.21-1.63,.17-.22,.49-.25,.7-.08,.22,.17,.25,.49,.08,.7-.41,.51-.8,1.04-1.18,1.58-.1,.14-.25,.21-.41,.21Zm3.17-3.87c-.12,0-.25-.05-.35-.14-.2-.19-.21-.51-.02-.71,.12-.13,.25-.26,.38-.39,.2-.2,.51-.2,.71,0s.2,.51,0,.71c-.12,.12-.24,.25-.36,.37-.1,.1-.23,.15-.36,.15Z"/><polygon class="cls-23" points="7.12 47.13 12.12 44.88 9.87 49.21 7.12 47.13"/><path class="cls-17" d="M6.5,68.6c0-7.94,5.61-17.62,12.53-21.62,1.81-1.05,3.53-1.59,5.08-1.69,0-.11-.01-.21-.01-.32,0-15.38,10.86-34.11,24.26-41.85,7.52-4.34,14.07-3.76,18.69-.68l7.74,4.42c4.37-2.27,8.28-2.25,11.04-.35l23.19,13.48c-2.82-1.23-6.52-.83-10.58,1.51-.86,.5-1.71,1.09-2.53,1.71-3.16-9.33-12.29-12.13-23.06-5.91-13.4,7.74-24.26,26.47-24.26,41.85,0,.11,.01,.21,.01,.32-1.55,.1-3.27,.65-5.08,1.69-6.92,4-12.53,13.67-12.53,21.62,0,3.36,1.01,5.87,2.69,7.34l-23.1-13.25v-.02c-2.49-1.18-4.06-4.06-4.06-8.26Z"/><path class="cls-15" d="M30.97,82.78c0,7.94,5.61,11.14,12.53,7.14,5.23-3.02,50.51-29.16,54.93-31.71,8.84-5.1,16-17.46,16-27.59s-7.16-14.22-16-9.12c-.86,.5-1.71,1.09-2.53,1.71-3.16-9.33-12.29-12.13-23.06-5.91-13.4,7.74-24.26,26.47-24.26,41.85,0,.11,.01,.21,.01,.32-1.55,.1-3.27,.65-5.08,1.69-6.92,4-12.53,13.67-12.53,21.62Zm.81,0c0-7.67,5.44-17.05,12.13-20.92,1.65-.95,3.24-1.48,4.73-1.58l.76-.05v-.76c0-.07-.01-.13-.02-.2,0-.04,0-.07,0-.11,0-15.1,10.7-33.56,23.86-41.15,3.7-2.14,7.22-3.22,10.47-3.22,5.47,0,9.52,3.08,11.42,8.69l.36,1.06,.89-.68c.9-.68,1.7-1.23,2.45-1.66,2.37-1.37,4.71-2.09,6.78-2.09,4.94,0,8.01,4.03,8.01,10.51,0,9.87-7,21.93-15.59,26.89l-54.93,31.71c-1.83,1.06-3.63,1.61-5.22,1.61h0c-1.79,0-3.3-.7-4.36-2.02-1.14-1.42-1.74-3.51-1.74-6.04Z"/></g><g><path class="cls-16" d="M162.54,218c-.27,0-.49-.21-.5-.48,0-.28,.2-.51,.48-.52,.64-.02,1.3-.08,1.94-.16,.27-.05,.52,.15,.56,.43,.04,.27-.15,.53-.43,.56-.67,.09-1.36,.15-2.03,.17h-.02Zm-2.98-.12s-.04,0-.06,0c-.7-.09-1.38-.21-2.02-.38-.27-.07-.43-.34-.36-.61,.07-.27,.34-.43,.61-.36,.6,.15,1.24,.27,1.89,.35,.27,.03,.47,.28,.43,.56-.03,.25-.25,.44-.5,.44Zm7.88-.66c-.22,0-.42-.14-.48-.36-.08-.27,.07-.54,.34-.62,.63-.19,1.25-.4,1.82-.65,.25-.1,.55,.01,.66,.27,.11,.25-.01,.55-.27,.66-.61,.26-1.26,.49-1.93,.68-.05,.01-.09,.02-.14,.02Zm-12.62-.8c-.08,0-.16-.02-.23-.06l.25-.43-.28,.42-1.74-1c-.24-.14-.32-.44-.18-.68,.14-.24,.44-.32,.68-.18l1.72,1c.24,.14,.34,.45,.2,.69-.09,.16-.26,.26-.43,.26Zm17.14-1.26c-.17,0-.34-.09-.43-.25-.14-.24-.06-.55,.18-.68l1.72-1c.24-.14,.55-.06,.68,.18,.14,.24,.06,.55-.18,.68l-1.72,1c-.08,.05-.16,.07-.25,.07Zm-21.48-1.25c-.08,0-.17-.02-.25-.07l-1.72-1c-.24-.14-.32-.44-.18-.68,.14-.24,.44-.32,.68-.18l1.72,1c.24,.14,.32,.44,.18,.68-.09,.16-.26,.25-.43,.25Zm25.79-1.24c-.17,0-.34-.09-.43-.25-.14-.24-.06-.54,.18-.68l1.72-1c.24-.14,.54-.06,.68,.18,.14,.24,.06,.54-.18,.68l-1.72,1c-.08,.05-.17,.07-.25,.07Zm-30.1-1.25c-.08,0-.17-.02-.25-.07l-1.72-1c-.24-.14-.32-.44-.18-.68,.14-.24,.44-.32,.68-.18l1.72,1c.24,.14,.32,.44,.18,.68-.09,.16-.26,.25-.43,.25Zm34.41-1.24c-.17,0-.34-.09-.43-.25-.14-.24-.06-.54,.18-.68l1.72-1c.24-.14,.54-.06,.68,.18,.14,.24,.06,.54-.18,.68l-1.72,1c-.08,.05-.17,.07-.25,.07Zm-38.72-1.25c-.08,0-.17-.02-.25-.07l-1.72-1c-.24-.14-.32-.44-.18-.68,.14-.24,.44-.32,.68-.18l1.72,1c.24,.14,.32,.44,.18,.68-.09,.16-.26,.25-.43,.25Zm43.03-1.24c-.17,0-.34-.09-.43-.25-.14-.24-.06-.54,.18-.68l1.72-1c.23-.14,.54-.06,.68,.18,.14,.24,.06,.55-.18,.68l-1.72,1c-.08,.05-.17,.07-.25,.07Zm-47.34-1.25c-.08,0-.17-.02-.25-.07l-1.72-1c-.24-.14-.32-.44-.18-.68,.14-.24,.44-.32,.68-.18l1.72,1c.24,.14,.32,.44,.18,.68-.09,.16-.26,.25-.43,.25Zm51.65-1.24c-.17,0-.34-.09-.43-.25-.14-.24-.06-.54,.18-.68l1.72-1c.24-.14,.54-.06,.68,.18,.14,.24,.06,.54-.18,.68l-1.72,1c-.08,.05-.17,.07-.25,.07Zm-55.96-1.25c-.08,0-.17-.02-.25-.07l-1.72-1c-.24-.14-.32-.44-.18-.68,.14-.24,.45-.32,.68-.18l1.72,1c.24,.14,.32,.44,.18,.68-.09,.16-.26,.25-.43,.25Zm60.27-1.24c-.17,0-.34-.09-.43-.25-.14-.24-.06-.54,.18-.68l1.72-1c.24-.14,.55-.06,.68,.18,.14,.24,.06,.54-.18,.68l-1.72,1c-.08,.05-.16,.07-.25,.07Zm-64.58-1.25c-.08,0-.17-.02-.25-.07l-1.72-1c-.24-.14-.32-.44-.18-.68,.14-.24,.45-.32,.68-.18l1.72,1c.24,.14,.32,.44,.18,.68-.09,.16-.26,.25-.43,.25Zm68.89-1.24c-.17,0-.34-.09-.43-.25-.14-.24-.06-.54,.18-.68l1.72-1c.24-.14,.55-.06,.68,.18,.14,.24,.06,.54-.18,.68l-1.72,1c-.08,.05-.17,.07-.25,.07Zm-73.21-1.25c-.08,0-.17-.02-.25-.07l-1.72-1c-.24-.14-.32-.44-.18-.68,.14-.24,.44-.32,.68-.18l1.72,1c.24,.14,.32,.44,.18,.68-.09,.16-.26,.25-.43,.25Zm77.52-1.24c-.17,0-.34-.09-.43-.25-.14-.24-.06-.54,.18-.68l1.72-1c.24-.14,.54-.06,.68,.18,.14,.24,.06,.54-.18,.68l-1.72,1c-.08,.05-.16,.07-.25,.07Zm-81.83-1.25c-.08,0-.17-.02-.25-.07l-1.72-1c-.24-.14-.32-.44-.18-.68,.14-.24,.44-.32,.68-.18l1.72,1c.24,.14,.32,.44,.18,.68-.09,.16-.26,.25-.43,.25Zm86.14-1.24c-.17,0-.34-.09-.43-.25-.14-.24-.06-.54,.18-.68l1.72-1c.24-.14,.54-.06,.68,.18,.14,.24,.06,.54-.18,.68l-1.72,1c-.08,.05-.17,.07-.25,.07Zm-90.45-1.25c-.08,0-.17-.02-.25-.07l-1.72-1c-.24-.14-.32-.44-.18-.68,.14-.24,.44-.32,.68-.18l1.72,1c.24,.14,.32,.44,.18,.68-.09,.16-.26,.25-.43,.25Zm94.76-1.24c-.17,0-.34-.09-.43-.25-.14-.24-.06-.54,.18-.68l1.72-1c.24-.14,.54-.06,.68,.18,.14,.24,.06,.55-.18,.68l-1.72,1c-.08,.05-.16,.07-.25,.07Zm-99.07-1.25c-.09,0-.17-.02-.25-.07l-1.72-1c-.24-.14-.32-.44-.18-.68,.14-.24,.44-.32,.68-.18l1.72,1c.24,.14,.32,.44,.18,.68-.09,.16-.26,.25-.43,.25Zm103.38-1.24c-.17,0-.34-.09-.43-.25-.14-.24-.06-.55,.18-.68l1.72-1c.24-.14,.54-.06,.68,.18,.14,.24,.06,.55-.18,.68l-1.72,1c-.08,.05-.16,.07-.25,.07Zm-107.69-1.25c-.08,0-.17-.02-.25-.07l-1.72-1c-.24-.14-.32-.44-.18-.68,.14-.24,.44-.32,.68-.18l1.72,1c.24,.14,.32,.44,.18,.68-.09,.16-.26,.25-.43,.25Zm112-1.24c-.17,0-.34-.09-.43-.25-.14-.24-.06-.54,.18-.68l1.72-1c.24-.14,.54-.06,.68,.18,.14,.24,.06,.54-.18,.68l-1.72,1c-.08,.05-.17,.07-.25,.07Zm-116.31-1.25c-.08,0-.17-.02-.25-.07l-1.72-1c-.24-.14-.32-.44-.18-.68,.14-.24,.45-.32,.68-.18l1.72,1c.24,.14,.32,.44,.18,.68-.09,.16-.26,.25-.43,.25Zm120.62-1.24c-.17,0-.34-.09-.43-.25-.14-.24-.06-.54,.18-.68l1.72-1c.24-.14,.55-.06,.68,.18,.14,.24,.06,.54-.18,.68l-1.72,1c-.08,.05-.16,.07-.25,.07Zm-124.93-1.25c-.08,0-.17-.02-.25-.07l-1.72-1c-.24-.14-.32-.44-.18-.68,.14-.24,.44-.32,.68-.18l1.72,1c.24,.14,.32,.44,.18,.68-.09,.16-.26,.25-.43,.25Zm129.24-1.24c-.17,0-.34-.09-.43-.25-.14-.24-.06-.54,.18-.68l1.72-1c.24-.14,.54-.06,.68,.18,.14,.24,.06,.54-.18,.68l-1.72,1c-.08,.05-.17,.07-.25,.07Zm-133.55-1.25c-.08,0-.17-.02-.25-.07l-1.72-1c-.24-.14-.32-.44-.18-.68,.14-.24,.44-.32,.68-.18l1.72,1c.24,.14,.32,.44,.18,.68-.09,.16-.26,.25-.43,.25Zm137.78-1.37c-.14,0-.29-.06-.38-.18-.18-.21-.15-.53,.06-.7,.51-.43,.94-.88,1.28-1.35,.16-.22,.47-.28,.7-.11,.22,.16,.28,.47,.11,.7-.39,.54-.87,1.05-1.45,1.53-.09,.08-.21,.12-.32,.12Zm-142.09-1.12c-.08,0-.17-.02-.25-.07l-1.72-1c-.24-.14-.32-.44-.18-.68,.14-.24,.44-.32,.68-.18l1.72,1c.24,.14,.32,.44,.18,.68-.09,.16-.26,.25-.43,.25Zm-4.31-2.49c-.08,0-.17-.02-.25-.07l-1.72-1c-.24-.14-.32-.44-.18-.68,.14-.24,.44-.32,.68-.18l1.72,1c.24,.14,.32,.44,.18,.68-.09,.16-.26,.25-.43,.25Zm148.73-.61c-.27,0-.5-.22-.5-.49,0-.57-.17-1.13-.47-1.65-.14-.24-.06-.54,.18-.68,.24-.14,.54-.06,.68,.18,.39,.67,.6,1.39,.61,2.14,0,.28-.22,.5-.49,.51h0Zm-153.04-1.88c-.08,0-.17-.02-.25-.07l-1.72-1c-.24-.14-.32-.44-.18-.68,.14-.24,.44-.32,.68-.18l1.72,1c.24,.14,.32,.44,.18,.68-.09,.16-.26,.25-.43,.25Zm150.36-2.05c-.09,0-.18-.03-.27-.08l-1.71-.99c-.24-.14-.32-.44-.18-.68,.14-.24,.44-.32,.68-.18l1.74,1.01c.23,.15,.3,.46,.15,.69-.09,.15-.26,.23-.42,.23Zm-154.67-.44c-.08,0-.17-.02-.25-.07l-1.72-1c-.24-.14-.32-.44-.18-.68,.14-.24,.45-.32,.68-.18l1.72,1c.24,.14,.32,.44,.18,.68-.09,.16-.26,.25-.43,.25Zm150.36-2.05c-.09,0-.17-.02-.25-.07l-1.72-1c-.24-.14-.32-.44-.18-.68,.14-.24,.44-.32,.68-.18l1.72,1c.24,.14,.32,.44,.18,.68-.09,.16-.26,.25-.43,.25Zm-154.67-.44c-.08,0-.17-.02-.25-.07l-1.72-1c-.24-.14-.32-.44-.18-.68,.14-.24,.44-.32,.68-.18l1.72,1c.24,.14,.32,.44,.18,.68-.09,.16-.26,.25-.43,.25Zm150.36-2.05c-.08,0-.17-.02-.25-.07l-1.72-1c-.24-.14-.32-.44-.18-.68,.14-.24,.44-.32,.68-.18l1.72,1c.24,.14,.32,.44,.18,.68-.09,.16-.26,.25-.43,.25Zm-154.67-.44c-.08,0-.17-.02-.25-.07l-1.72-1c-.24-.14-.32-.44-.18-.68,.14-.24,.44-.32,.68-.18l1.72,1c.24,.14,.32,.44,.18,.68-.09,.16-.26,.25-.43,.25Zm150.36-2.05c-.08,0-.17-.02-.25-.07l-1.72-1c-.24-.14-.32-.44-.18-.68,.14-.24,.44-.32,.68-.18l1.72,1c.24,.14,.32,.44,.18,.68-.09,.16-.26,.25-.43,.25Zm-154.67-.44c-.09,0-.17-.02-.25-.07l-1.72-1c-.24-.14-.32-.44-.18-.68,.14-.24,.44-.32,.68-.18l1.72,1c.24,.14,.32,.44,.18,.68-.09,.16-.26,.25-.43,.25Zm150.36-2.05c-.08,0-.17-.02-.25-.07l-1.72-1c-.24-.14-.32-.44-.18-.68,.14-.24,.44-.32,.68-.18l1.72,1c.24,.14,.32,.44,.18,.68-.09,.16-.26,.25-.43,.25Zm-154.67-.44c-.08,0-.17-.02-.25-.07l-1.72-1c-.24-.14-.32-.44-.18-.68,.14-.24,.44-.32,.68-.18l1.72,1c.24,.14,.32,.44,.18,.68-.09,.16-.26,.25-.43,.25Zm150.36-2.05c-.08,0-.17-.02-.25-.07l-1.72-1c-.24-.14-.32-.44-.18-.68,.14-.24,.44-.32,.68-.18l1.72,1c.24,.14,.32,.44,.18,.68-.09,.16-.26,.25-.43,.25Zm-154.67-.44c-.08,0-.17-.02-.25-.07l-1.72-1c-.24-.14-.32-.44-.18-.68,.14-.24,.44-.32,.68-.18l1.72,1c.24,.14,.32,.44,.18,.68-.09,.16-.26,.25-.43,.25Zm150.36-2.05c-.08,0-.17-.02-.25-.07l-1.72-1c-.24-.14-.32-.44-.18-.68,.14-.24,.44-.32,.68-.18l1.72,1c.24,.14,.32,.44,.18,.68-.09,.16-.26,.25-.43,.25Zm-154.67-.44c-.08,0-.17-.02-.25-.07l-1.74-1c-.23-.15-.31-.45-.16-.69,.15-.24,.45-.31,.69-.16l1.71,.99c.24,.14,.32,.44,.18,.68-.09,.16-.26,.25-.43,.25Zm150.36-2.05c-.08,0-.17-.02-.25-.07l-1.72-1c-.24-.14-.32-.44-.18-.68,.14-.24,.44-.32,.68-.18l1.72,1c.24,.14,.32,.44,.18,.68-.09,.16-.26,.25-.43,.25Zm-154.21-.99c-.17,0-.34-.09-.43-.25-.39-.67-.59-1.39-.6-2.14,0-.28,.22-.5,.5-.5h0c.27,0,.5,.22,.5,.5,0,.57,.16,1.13,.46,1.65,.14,.24,.06,.54-.18,.68-.08,.05-.17,.07-.25,.07Zm149.9-1.5c-.08,0-.17-.02-.25-.07l-1.72-1c-.24-.14-.32-.44-.18-.68,.14-.24,.44-.32,.68-.18l1.72,1c.24,.14,.32,.44,.18,.68-.09,.16-.26,.25-.43,.25Zm-4.31-2.49c-.08,0-.17-.02-.25-.07l-1.72-1c-.24-.14-.32-.44-.18-.68,.14-.24,.44-.32,.68-.18l1.72,1c.24,.14,.32,.44,.18,.68-.09,.16-.26,.25-.43,.25Zm-145.15-.68c-.1,0-.21-.03-.29-.1-.22-.16-.27-.47-.11-.7,.39-.53,.88-1.05,1.46-1.53,.21-.17,.53-.15,.7,.07,.18,.21,.15,.53-.07,.7-.51,.43-.95,.88-1.29,1.35-.1,.13-.25,.21-.4,.21Zm140.83-1.81c-.08,0-.17-.02-.25-.07l-1.72-1c-.24-.14-.32-.44-.18-.68,.14-.24,.44-.32,.68-.18l1.72,1c.24,.14,.32,.44,.18,.68-.09,.16-.26,.25-.43,.25Zm-136.96-1.25c-.17,0-.34-.09-.43-.25-.14-.24-.06-.54,.18-.68l1.72-1c.24-.14,.54-.06,.68,.18,.14,.24,.06,.54-.18,.68l-1.72,1c-.08,.05-.16,.07-.25,.07Zm132.65-1.24c-.08,0-.17-.02-.25-.07l-1.72-1c-.24-.14-.32-.44-.18-.68,.14-.24,.44-.32,.68-.18l1.72,1c.24,.14,.32,.44,.18,.68-.09,.16-.26,.25-.43,.25Zm-128.34-1.25c-.17,0-.34-.09-.43-.25-.14-.24-.06-.55,.18-.68l1.72-1c.24-.14,.55-.06,.68,.18,.14,.24,.06,.54-.18,.68l-1.72,1c-.08,.05-.17,.07-.25,.07Zm124.03-1.24c-.09,0-.17-.02-.25-.07l-1.72-1c-.24-.14-.32-.44-.18-.68,.14-.24,.44-.32,.68-.18l1.72,1c.24,.14,.32,.44,.18,.68-.09,.16-.26,.25-.43,.25Zm-119.72-1.25c-.17,0-.34-.09-.43-.25-.14-.24-.06-.54,.18-.68l1.72-1c.24-.14,.54-.06,.68,.18,.14,.24,.06,.54-.18,.68l-1.72,1c-.08,.05-.16,.07-.25,.07Zm115.41-1.24c-.08,0-.17-.02-.25-.07l-1.72-1c-.24-.14-.32-.44-.18-.68s.44-.32,.68-.18l1.72,1c.24,.14,.32,.44,.18,.68-.09,.16-.26,.25-.43,.25Zm-111.1-1.25c-.17,0-.34-.09-.43-.25-.14-.24-.06-.54,.18-.68l1.72-1c.24-.14,.54-.06,.68,.18,.14,.24,.06,.54-.18,.68l-1.72,1c-.08,.05-.16,.07-.25,.07Zm106.79-1.24c-.08,0-.17-.02-.25-.07l-1.72-1c-.24-.14-.32-.44-.18-.68,.14-.24,.44-.32,.68-.18l1.72,1c.24,.14,.32,.44,.18,.68-.09,.16-.26,.25-.43,.25Zm-102.48-1.25c-.17,0-.34-.09-.43-.25-.14-.24-.06-.55,.18-.68l1.72-1c.24-.14,.54-.06,.68,.18,.14,.24,.06,.55-.18,.68l-1.72,1c-.08,.05-.17,.07-.25,.07Zm98.17-1.24c-.08,0-.17-.02-.25-.07l-1.72-1c-.24-.14-.32-.44-.18-.68,.14-.24,.44-.32,.68-.18l1.72,1c.24,.14,.32,.44,.18,.68-.09,.16-.26,.25-.43,.25Zm-93.86-1.25c-.17,0-.34-.09-.43-.25-.14-.24-.06-.54,.18-.68l1.72-1c.24-.14,.54-.06,.68,.18,.14,.24,.06,.54-.18,.68l-1.72,1c-.08,.05-.16,.07-.25,.07Zm89.55-1.24c-.08,0-.17-.02-.25-.07l-1.72-1c-.24-.14-.32-.44-.18-.68,.14-.24,.44-.32,.68-.18l1.72,1c.24,.14,.32,.44,.18,.68-.09,.16-.26,.25-.43,.25Zm-85.24-1.25c-.17,0-.34-.09-.43-.25-.14-.24-.06-.54,.18-.68l1.72-1c.24-.14,.54-.06,.68,.18,.14,.24,.06,.54-.18,.68l-1.72,1c-.08,.05-.17,.07-.25,.07Zm80.93-1.24c-.08,0-.17-.02-.25-.07l-1.72-1c-.24-.14-.32-.44-.18-.68,.14-.24,.44-.32,.68-.18l1.72,1c.24,.14,.32,.44,.18,.68-.09,.16-.26,.25-.43,.25Zm-76.62-1.25c-.17,0-.34-.09-.43-.25-.14-.24-.06-.54,.18-.68l1.72-1c.24-.14,.54-.06,.68,.18,.14,.24,.06,.55-.18,.68l-1.72,1c-.08,.05-.16,.07-.25,.07Zm72.3-1.24c-.08,0-.17-.02-.25-.07l-1.72-1c-.24-.14-.32-.44-.18-.68,.14-.24,.44-.32,.68-.18l1.72,1c.24,.14,.32,.44,.18,.68-.09,.16-.26,.25-.43,.25Zm-67.99-1.25c-.17,0-.34-.09-.43-.25-.14-.24-.06-.54,.18-.68l1.72-1c.24-.14,.54-.06,.68,.18,.14,.24,.06,.54-.18,.68l-1.72,1c-.08,.05-.17,.07-.25,.07Zm63.68-1.24c-.08,0-.17-.02-.25-.07l-1.72-1c-.24-.14-.32-.44-.18-.68,.14-.24,.44-.32,.68-.18l1.72,1c.24,.14,.32,.44,.18,.68-.09,.16-.26,.25-.43,.25Zm-59.37-1.25c-.17,0-.34-.09-.43-.25-.14-.24-.06-.54,.18-.68l1.72-1c.24-.14,.54-.06,.68,.18,.14,.24,.06,.54-.18,.68l-1.72,1c-.08,.05-.17,.07-.25,.07Zm55.06-1.24c-.08,0-.17-.02-.25-.07l-1.72-1c-.24-.14-.32-.44-.18-.68,.14-.24,.44-.32,.68-.18l1.72,1c.24,.14,.32,.44,.18,.68-.09,.16-.26,.25-.43,.25Zm-50.75-1.25c-.17,0-.34-.09-.43-.25-.14-.24-.06-.54,.18-.68l1.72-1c.24-.14,.54-.06,.68,.18,.14,.24,.06,.55-.18,.68l-1.72,1c-.08,.05-.16,.07-.25,.07Zm46.44-1.24c-.08,0-.17-.02-.25-.07l-1.72-1c-.24-.14-.32-.44-.18-.68,.14-.24,.44-.32,.68-.18l1.72,1c.24,.14,.32,.44,.18,.68-.09,.16-.26,.25-.43,.25Zm-42.13-1.25c-.17,0-.34-.09-.43-.25-.14-.24-.06-.55,.18-.68l1.72-1c.24-.14,.54-.06,.68,.18,.14,.24,.06,.54-.18,.68l-1.72,1c-.08,.05-.17,.07-.25,.07Zm37.82-1.24c-.08,0-.17-.02-.25-.07l-1.72-1c-.24-.14-.32-.44-.18-.68,.14-.24,.44-.32,.68-.18l1.72,1c.24,.14,.32,.44,.18,.68-.09,.16-.26,.25-.43,.25Zm-33.51-1.25c-.17,0-.34-.09-.43-.25-.14-.24-.06-.54,.18-.68l1.72-1c.24-.14,.54-.06,.68,.18,.14,.24,.06,.54-.18,.68l-1.72,1c-.08,.05-.16,.07-.25,.07Zm29.2-1.24c-.08,0-.17-.02-.25-.07l-1.72-1c-.24-.14-.32-.44-.18-.68,.14-.24,.44-.32,.68-.18l1.72,1c.24,.14,.32,.44,.18,.68-.09,.16-.26,.25-.43,.25Zm-24.89-1.25c-.17,0-.34-.09-.43-.25-.14-.24-.06-.54,.18-.68l1.72-1c.24-.14,.54-.06,.68,.18,.14,.24,.06,.55-.18,.68l-1.72,1c-.08,.05-.17,.07-.25,.07Zm20.58-1.24c-.08,0-.17-.02-.25-.07l-1.7-.98c-.24-.14-.33-.45-.19-.69,.14-.24,.43-.33,.67-.19,0,0,.02,.01,.03,.02l1.7,.98c.24,.14,.32,.44,.18,.68-.09,.16-.26,.25-.43,.25Zm-16.21-1.14c-.2,0-.38-.12-.46-.31-.11-.25,.01-.55,.27-.66,.61-.26,1.26-.49,1.93-.68,.27-.08,.54,.08,.62,.34,.08,.26-.07,.54-.34,.62-.63,.19-1.25,.4-1.82,.64-.06,.03-.13,.04-.19,.04Zm11.72-.95s-.08,0-.12-.02c-.6-.16-1.24-.27-1.89-.36-.27-.03-.47-.28-.43-.56,.03-.27,.29-.47,.56-.43,.7,.09,1.38,.21,2.02,.38,.27,.07,.43,.34,.36,.61-.06,.23-.26,.38-.48,.38Zm-6.92-.33c-.25,0-.46-.18-.5-.43-.04-.27,.16-.53,.43-.56,.67-.09,1.36-.15,2.03-.17,.27,0,.51,.21,.52,.48,0,.28-.21,.51-.48,.52-.64,.02-1.29,.08-1.93,.16-.02,0-.04,0-.07,0Z"/><path class="cls-28" d="M154.92,209.67l-97.23-56.13c-1.71-.99-2.56-2.3-2.59-3.69,0-.04,0-4.77,0-4.82,.03-1.68,1.27,1.24,3.67-.14l55.18-31.86c4.43-2.56,11.14-2.84,14.98-.62l97.23,56.13c1.28,.74,2.21-2.4,2.54-1.4,.11,.33,.04,4.74,.05,5.08,.04,1.72-1.21,3.55-3.67,4.97l-55.18,31.86c-4.43,2.56-11.14,2.84-14.98,.62Z"/><path class="cls-17" d="M154.92,204.94l-97.23-56.13c-3.84-2.22-3.36-6.09,1.08-8.65l55.18-31.86c4.43-2.56,11.14-2.84,14.98-.62l97.23,56.13c3.84,2.22,3.36,6.09-1.08,8.65l-55.18,31.86c-4.43,2.56-11.14,2.84-14.98,.62Z"/><path class="cls-21" d="M154.93,209.67c3.84,2.22,10.55,1.94,14.98-.62v-4.73c-4.43,2.56-11.14,2.84-14.98,.62v4.73Z"/><path class="cls-20" d="M154.93,204.94l-97.23-56.13c-1.86-1.07-2.69-2.53-2.57-4.04-.01,.07-.02,.16-.02,.26,0,.04,0,4.77,0,4.82,.03,1.38,.88,2.7,2.59,3.69l97.23,56.13v-4.73Z"/><path class="cls-9" d="M225.08,171.66l-55.18,31.86c-4.43,2.56-11.14,2.84-14.98,.62l-97.23-56.13c-1.59-.92-2.43-2.13-2.56-3.4-.2,1.57,.64,3.09,2.56,4.21l97.23,56.13c3.84,2.22,10.55,1.94,14.98-.62l55.18-31.86c2.59-1.5,3.82-3.44,3.64-5.25-.2,1.56-1.43,3.17-3.64,4.44Z"/><path class="cls-11" d="M132.79,185.33l-34.6-19.98c-.69-.4-.61-1.1,.19-1.56l12.99-7.5c.8-.46,2.01-.51,2.7-.11l34.6,19.98c.69,.4,.61,1.1-.19,1.56l-12.99,7.5c-.8,.46-2.01,.51-2.7,.11Z"/><path class="cls-16" d="M98.38,164.62l12.99-7.5c.8-.46,2.01-.51,2.7-.11l34.6,19.98c.14,.08,.24,.18,.32,.28,.26-.39,.17-.82-.32-1.1l-34.6-19.98c-.69-.4-1.9-.35-2.7,.11l-12.99,7.5c-.64,.37-.81,.88-.51,1.28,.11-.16,.28-.32,.51-.46Z"/><path class="cls-15" d="M122.6,114.9l5.96,3.44c.76,.44,1.98,.44,2.74,0,.75-.44,.75-1.14,0-1.58l-5.96-3.44c-.76-.44-1.98-.44-2.74,0-.75,.44-.75,1.14,0,1.58Zm10.21,5.89l2.82,1.63c.76,.44,1.98,.44,2.74,0,.75-.44,.75-1.14,0-1.58l-2.82-1.63c-.76-.44-1.98-.44-2.74,0-.75,.44-.75,1.14,0,1.58Zm7.07,4.08l2.82,1.63c.76,.44,1.98,.44,2.74,0,.75-.44,.75-1.14,0-1.58l-2.82-1.63c-.76-.44-1.98-.44-2.74,0-.75,.44-.75,1.14,0,1.58Zm7.07,4.08l2.82,1.63c.76,.44,1.98,.44,2.74,0,.75-.44,.75-1.14,0-1.58l-2.82-1.63c-.76-.44-1.98-.44-2.74,0-.75,.44-.75,1.14,0,1.58Zm7.07,4.08l2.82,1.63c.76,.44,1.98,.44,2.74,0,.75-.44,.75-1.14,0-1.58l-2.82-1.63c-.76-.44-1.98-.44-2.74,0s-.75,1.14,0,1.58Zm7.07,4.08l2.82,1.63c.76,.44,1.98,.44,2.74,0,.75-.44,.75-1.14,0-1.58l-2.82-1.63c-.76-.44-1.98-.44-2.74,0-.75,.44-.75,1.14,0,1.58Zm7.07,4.08l2.82,1.63c.76,.44,1.98,.44,2.74,0,.75-.44,.75-1.14,0-1.58l-2.82-1.63c-.76-.44-1.98-.44-2.74,0-.75,.44-.75,1.14,0,1.58Zm7.07,4.08l2.82,1.63c.76,.44,1.98,.44,2.74,0s.75-1.14,0-1.58l-2.82-1.63c-.76-.44-1.98-.44-2.74,0-.75,.44-.75,1.14,0,1.58Zm7.07,4.08l2.82,1.63c.76,.44,1.98,.44,2.74,0s.75-1.14,0-1.58l-2.82-1.63c-.76-.44-1.98-.44-2.74,0-.75,.44-.75,1.14,0,1.58Zm7.07,4.08l2.82,1.63c.76,.44,1.98,.44,2.74,0,.75-.44,.75-1.14,0-1.58l-2.82-1.63c-.76-.44-1.98-.44-2.74,0-.75,.44-.75,1.14,0,1.58Zm7.07,4.08l2.82,1.63c.76,.44,1.98,.44,2.74,0s.75-1.14,0-1.58l-2.82-1.63c-.76-.44-1.98-.44-2.74,0-.75,.44-.75,1.14,0,1.58Zm7.07,4.08l2.82,1.63c.76,.44,1.98,.44,2.74,0s.75-1.14,0-1.58l-2.82-1.63c-.76-.44-1.98-.44-2.74,0s-.75,1.14,0,1.58Zm7.22,4.17l2.82,1.63c.76,.44,1.98,.44,2.74,0,.75-.44,.75-1.14,0-1.58l-2.82-1.63c-.76-.44-1.98-.44-2.74,0-.75,.44-.75,1.14,0,1.58Zm-94.5-47l2.45,1.41c.86,.5,2.26,.5,3.12,0l2.43-1.4c.86-.5,.85-1.3,0-1.8l-2.45-1.41c-.86-.5-2.26-.5-3.12,0l-2.43,1.4c-.86,.5-.85,1.3,0,1.8Zm12.63,5.5l2.43-1.4c.86-.5,.85-1.3,0-1.8l-2.45-1.41c-.86-.5-2.26-.5-3.12,0l-2.43,1.4c-.86,.5-.85,1.3,0,1.8l2.45,1.41c.86,.5,2.26,.5,3.12,0Zm1.51,2.67l2.45,1.41c.86,.5,2.26,.5,3.12,0l2.43-1.4c.86-.5,.85-1.3,0-1.8l-2.45-1.41c-.86-.5-2.26-.5-3.12,0l-2.43,1.4c-.86,.5-.85,1.3,0,1.8Zm7.07,4.08l2.45,1.41c.86,.5,2.26,.5,3.12,0l2.43-1.4c.86-.5,.85-1.3,0-1.8l-2.45-1.41c-.86-.5-2.26-.5-3.12,0l-2.43,1.4c-.86,.5-.85,1.3,0,1.8Zm15.05,2.3l-2.45-1.41c-.86-.5-2.26-.5-3.12,0l-2.43,1.4c-.86,.5-.85,1.3,0,1.8l2.45,1.41c.86,.5,2.26,.5,3.12,0l2.43-1.4c.86-.5,.85-1.3,0-1.8Zm7.07,4.08l-2.45-1.41c-.86-.5-2.26-.5-3.12,0l-2.43,1.4c-.86,.5-.85,1.3,0,1.8l2.45,1.41c.86,.5,2.26,.5,3.12,0l2.43-1.4c.86-.5,.85-1.3,0-1.8Zm7.07,4.08l-2.45-1.41c-.86-.5-2.26-.5-3.12,0l-2.43,1.4c-.86,.5-.85,1.3,0,1.8l2.45,1.41c.86,.5,2.26,.5,3.12,0l2.43-1.4c.86-.5,.85-1.3,0-1.8Zm7.07,4.08l-2.45-1.41c-.86-.5-2.26-.5-3.12,0l-2.43,1.4c-.86,.5-.85,1.3,0,1.8l2.45,1.41c.86,.5,2.26,.5,3.12,0l2.43-1.4c.86-.5,.85-1.3,0-1.8Zm7.07,4.08l-2.45-1.41c-.86-.5-2.26-.5-3.12,0l-2.43,1.4c-.86,.5-.85,1.3,0,1.8l2.45,1.41c.86,.5,2.26,.5,3.12,0l2.43-1.4c.86-.5,.85-1.3,0-1.8Zm7.07,4.08l-2.45-1.41c-.86-.5-2.26-.5-3.12,0l-2.43,1.4c-.86,.5-.85,1.3,0,1.8l2.45,1.41c.86,.5,2.26,.5,3.12,0l2.43-1.4c.86-.5,.85-1.3,0-1.8Zm-.91,5.87l2.45,1.41c.86,.5,2.26,.5,3.12,0l2.43-1.4c.86-.5,.85-1.3,0-1.8l-2.45-1.41c-.86-.5-2.26-.5-3.12,0l-2.43,1.4c-.86,.5-.85,1.3,0,1.8Zm15.05,2.3l-2.45-1.41c-.86-.5-2.26-.5-3.12,0l-2.43,1.4c-.86,.5-.85,1.3,0,1.8l2.45,1.41c.86,.5,2.26,.5,3.12,0l2.43-1.4c.86-.5,.85-1.3,0-1.8Zm10.36,5.98l-5.58-3.22c-.86-.5-2.26-.5-3.12,0l-2.43,1.4c-.86,.5-.85,1.3,0,1.8l5.58,3.22c.86,.5,2.26,.5,3.12,0l2.43-1.4c.86-.5,.85-1.3,0-1.8Zm-102.68-45.32l5.58,3.22c.86,.5,2.26,.5,3.12,0l2.43-1.4c.86-.5,.85-1.3,0-1.8l-5.58-3.22c-.86-.5-2.26-.5-3.12,0l-2.43,1.4c-.86,.5-.85,1.3,0,1.8Zm10.21,5.89l2.45,1.41c.86,.5,2.26,.5,3.12,0l2.43-1.4c.86-.5,.85-1.3,0-1.8l-2.45-1.41c-.86-.5-2.26-.5-3.12,0l-2.43,1.4c-.86,.5-.85,1.3,0,1.8Zm9.52,5.49c.86,.5,2.26,.5,3.12,0l2.43-1.4c.86-.5,.85-1.3,0-1.8l-2.45-1.41c-.86-.5-2.26-.5-3.12,0l-2.43,1.4c-.86,.5-.85,1.3,0,1.8l2.45,1.41Zm7.07,4.08c.86,.5,2.26,.5,3.12,0l2.43-1.4c.86-.5,.85-1.3,0-1.8l-2.45-1.41c-.86-.5-2.26-.5-3.12,0l-2.43,1.4c-.86,.5-.85,1.3,0,1.8l2.45,1.41Zm7.05-.53l-2.43,1.4c-.86,.5-.85,1.3,0,1.8l2.45,1.41c.86,.5,2.26,.5,3.12,0l2.43-1.4c.86-.5,.85-1.3,0-1.8l-2.45-1.41c-.86-.5-2.26-.5-3.12,0Zm7.22,4l-2.73,1.58c-.78,.45-.77,1.18,0,1.63l2.75,1.59c.78,.45,2.04,.45,2.82,0l2.73-1.58c.78-.45,.77-1.18,0-1.63l-2.75-1.59c-.78-.45-2.04-.45-2.82,0Zm7.07,4.08l-2.73,1.58c-.78,.45-.77,1.18,0,1.63l2.75,1.59c.78,.45,2.04,.45,2.82,0l2.73-1.58c.78-.45,.77-1.18,0-1.63l-2.75-1.59c-.78-.45-2.04-.45-2.82,0Zm7.07,4.08l-2.73,1.58c-.78,.45-.77,1.18,0,1.63l2.75,1.59c.78,.45,2.04,.45,2.82,0l2.73-1.58c.78-.45,.77-1.18,0-1.63l-2.75-1.59c-.78-.45-2.04-.45-2.82,0Zm7.07,4.08l-2.73,1.58c-.78,.45-.77,1.18,0,1.63l2.75,1.59c.78,.45,2.04,.45,2.82,0l2.73-1.58c.78-.45,.77-1.18,0-1.63l-2.75-1.59c-.78-.45-2.04-.45-2.82,0Zm7.07,4.08l-2.73,1.58c-.78,.45-.77,1.18,0,1.63l2.75,1.59c.78,.45,2.04,.45,2.82,0l2.73-1.58c.78-.45,.77-1.18,0-1.63l-2.75-1.59c-.78-.45-2.04-.45-2.82,0Zm9.91,8.87l2.73-1.58c.78-.45,.77-1.18,0-1.63l-2.75-1.59c-.78-.45-2.04-.45-2.82,0l-2.73,1.58c-.78,.45-.77,1.18,0,1.63l2.75,1.59c.78,.45,2.04,.45,2.82,0Zm7.07,4.08l2.73-1.58c.78-.45,.77-1.18,0-1.63l-2.75-1.59c-.78-.45-2.04-.45-2.82,0l-2.73,1.58c-.78,.45-.77,1.18,0,1.63l2.75,1.59c.78,.45,2.04,.45,2.82,0Zm9.94,.97l-2.75-1.59c-.78-.45-2.04-.45-2.82,0l-2.73,1.58c-.78,.45-.77,1.18,0,1.63l2.75,1.59c.78,.45,2.04,.45,2.82,0l2.73-1.58c.78-.45,.77-1.18,0-1.63Zm-102.98-45.5l8.87,5.12c.78,.45,2.04,.45,2.82,0l2.73-1.58c.78-.45,.77-1.18,0-1.63l-8.87-5.12c-.78-.45-2.04-.45-2.82,0l-2.73,1.58c-.78,.45-.77,1.18,0,1.63Zm13.19,7.62l2.75,1.59c.78,.45,2.04,.45,2.82,0l2.73-1.58c.78-.45,.77-1.18,0-1.63l-2.75-1.59c-.78-.45-2.04-.45-2.82,0l-2.73,1.58c-.78,.45-.77,1.18,0,1.63Zm7.07,4.08l2.75,1.59c.78,.45,2.04,.45,2.82,0l2.73-1.58c.78-.45,.77-1.18,0-1.63l-2.75-1.59c-.78-.45-2.04-.45-2.82,0l-2.73,1.58c-.78,.45-.77,1.18,0,1.63Zm7.07,4.08l2.75,1.59c.78,.45,2.04,.45,2.82,0l2.73-1.58c.78-.45,.77-1.18,0-1.63l-2.75-1.59c-.78-.45-2.04-.45-2.82,0l-2.73,1.58c-.78,.45-.77,1.18,0,1.63Zm12.63,5.67l2.73-1.58c.78-.45,.77-1.18,0-1.63l-2.75-1.59c-.78-.45-2.04-.45-2.82,0l-2.73,1.58c-.78,.45-.77,1.18,0,1.63l2.75,1.59c.78,.45,2.04,.45,2.82,0Zm7.07,4.08l2.73-1.58c.78-.45,.77-1.18,0-1.63l-2.75-1.59c-.78-.45-2.04-.45-2.82,0l-2.73,1.58c-.78,.45-.77,1.18,0,1.63l2.75,1.59c.78,.45,2.04,.45,2.82,0Zm7.07,4.08l2.73-1.58c.78-.45,.77-1.18,0-1.63l-2.75-1.59c-.78-.45-2.04-.45-2.82,0l-2.73,1.58c-.78,.45-.77,1.18,0,1.63l2.75,1.59c.78,.45,2.04,.45,2.82,0Zm7.07,4.08l2.73-1.58c.78-.45,.77-1.18,0-1.63l-2.75-1.59c-.78-.45-2.04-.45-2.82,0l-2.73,1.58c-.78,.45-.77,1.18,0,1.63l2.75,1.59c.78,.45,2.04,.45,2.82,0Zm7.07,4.08l2.73-1.58c.78-.45,.77-1.18,0-1.63l-2.75-1.59c-.78-.45-2.04-.45-2.82,0l-2.73,1.58c-.78,.45-.77,1.18,0,1.63l2.75,1.59c.78,.45,2.04,.45,2.82,0Zm7.07,4.08l2.73-1.58c.78-.45,.77-1.18,0-1.63l-2.75-1.59c-.78-.45-2.04-.45-2.82,0l-2.73,1.58c-.78,.45-.77,1.18,0,1.63l2.75,1.59c.78,.45,2.04,.45,2.82,0Zm1.51,2.49l2.75,1.59c.78,.45,2.04,.45,2.82,0l2.73-1.58c.78-.45,.77-1.18,0-1.63l-2.75-1.59c-.78-.45-2.04-.45-2.82,0l-2.73,1.58c-.78,.45-.77,1.18,0,1.63Zm19.59,4.92l-6.98-4.03c-.78-.45-2.04-.45-2.82,0l-2.73,1.58c-.78,.45-.77,1.18,0,1.63l6.98,4.03c.78,.45,2.04,.45,2.82,0l2.73-1.58c.78-.45,.77-1.18,0-1.63Zm-102.95-45.3l12.58,7.26c.88,.51,2.31,.51,3.18,0l2.37-1.37c.88-.51,.87-1.33-.01-1.84l-12.58-7.26c-.88-.51-2.31-.51-3.18,0l-2.37,1.37c-.88,.51-.87,1.33,0,1.84Zm17.27,9.97l2.38,1.37c.88,.51,2.31,.51,3.18,0l2.37-1.37c.88-.51,.87-1.33,0-1.84l-2.38-1.37c-.88-.51-2.31-.51-3.18,0l-2.37,1.37c-.88,.51-.87,1.33,0,1.84Zm7.07,4.08l2.38,1.37c.88,.51,2.31,.51,3.18,0l2.37-1.37c.88-.51,.87-1.33,0-1.84l-2.38-1.37c-.88-.51-2.31-.51-3.18,0l-2.37,1.37c-.88,.51-.87,1.33,0,1.84Zm7.07,4.08l2.38,1.37c.88,.51,2.31,.51,3.18,0l2.37-1.37c.88-.51,.87-1.33,0-1.84l-2.38-1.37c-.88-.51-2.31-.51-3.18,0l-2.37,1.37c-.88,.51-.87,1.33,0,1.84Zm7.07,4.08l2.38,1.37c.88,.51,2.31,.51,3.18,0l2.37-1.37c.88-.51,.87-1.33,0-1.84l-2.38-1.37c-.88-.51-2.31-.51-3.18,0l-2.37,1.37c-.88,.51-.87,1.33,0,1.84Zm7.07,4.08l2.38,1.37c.88,.51,2.31,.51,3.18,0l2.37-1.37c.88-.51,.87-1.33,0-1.84l-2.38-1.37c-.88-.51-2.31-.51-3.18,0l-2.37,1.37c-.88,.51-.87,1.33,0,1.84Zm7.07,4.08l2.38,1.37c.88,.51,2.31,.51,3.18,0l2.37-1.37c.88-.51,.87-1.33,0-1.84l-2.38-1.37c-.88-.51-2.31-.51-3.18,0l-2.37,1.37c-.88,.51-.87,1.33,0,1.84Zm7.07,4.08l2.38,1.37c.88,.51,2.31,.51,3.18,0l2.37-1.37c.88-.51,.87-1.33,0-1.84l-2.38-1.37c-.88-.51-2.31-.51-3.18,0l-2.37,1.37c-.88,.51-.87,1.33,0,1.84Zm7.07,4.08l2.38,1.37c.88,.51,2.31,.51,3.18,0l2.37-1.37c.88-.51,.87-1.33,0-1.84l-2.38-1.37c-.88-.51-2.31-.51-3.18,0l-2.37,1.37c-.88,.51-.87,1.33,0,1.84Zm7.07,4.08l2.38,1.37c.88,.51,2.31,.51,3.18,0l2.37-1.37c.88-.51,.87-1.33,0-1.84l-2.38-1.37c-.88-.51-2.31-.51-3.18,0l-2.37,1.37c-.88,.51-.87,1.33,0,1.84Zm7.07,4.08l2.38,1.37c.88,.51,2.31,.51,3.18,0l2.37-1.37c.88-.51,.87-1.33,0-1.84l-2.38-1.37c-.88-.51-2.31-.51-3.18,0l-2.37,1.37c-.88,.51-.87,1.33,0,1.84Zm15.14,2.35l-2.38-1.37c-.88-.51-2.31-.51-3.18,0l-2.37,1.37c-.88,.51-.87,1.33,0,1.84l2.38,1.37c.88,.51,2.31,.51,3.18,0l2.37-1.37c.88-.51,.87-1.33,0-1.84Zm-91.56-45.3l-5.52-3.19c-.88-.51-2.31-.51-3.18,0l-2.37,1.37c-.88,.51-.87,1.33,0,1.84l5.52,3.19c.88,.51,2.31,.51,3.18,0l2.37-1.37c.88-.51,.87-1.33,0-1.84Zm7.07,4.08l-2.38-1.37c-.88-.51-2.31-.51-3.18,0l-2.37,1.37c-.88,.51-.87,1.33,0,1.84l2.38,1.37c.88,.51,2.31,.51,3.18,0l2.37-1.37c.88-.51,.87-1.33,0-1.84Zm7.07,4.08l-2.38-1.37c-.88-.51-2.31-.51-3.18,0l-2.37,1.37c-.88,.51-.87,1.33,0,1.84l2.38,1.37c.88,.51,2.31,.51,3.18,0l2.37-1.37c.88-.51,.87-1.33,0-1.84Zm49.5,28.58l-44.81-25.87c-.88-.51-2.31-.51-3.18,0l-2.37,1.37c-.88,.51-.87,1.33,0,1.84l44.81,25.87c.88,.51,2.31,.51,3.18,0l2.37-1.37c.88-.51,.87-1.33,0-1.84Zm7.07,4.08l-2.38-1.37c-.88-.51-2.31-.51-3.18,0l-2.37,1.37c-.88,.51-.87,1.33,.01,1.84l2.38,1.37c.88,.51,2.31,.51,3.18,0l2.37-1.37c.88-.51,.87-1.33,0-1.84Zm7.07,4.08l-2.38-1.37c-.88-.51-2.31-.51-3.18,0l-2.37,1.37c-.88,.51-.87,1.33,0,1.84l2.38,1.37c.88,.51,2.31,.51,3.18,0l2.37-1.37c.88-.51,.87-1.33,0-1.84Zm7.22,4.17l-2.38-1.37c-.88-.51-2.31-.51-3.18,0l-2.37,1.37c-.88,.51-.87,1.33,0,1.84l2.38,1.37c.88,.51,2.31,.51,3.18,0l2.37-1.37c.88-.51,.87-1.33,0-1.84Z"/><path class="cls-16" d="M122.6,114.24l5.96,3.44c.76,.44,1.98,.44,2.74,0,.75-.44,.75-1.14,0-1.58l-5.96-3.44c-.76-.44-1.98-.44-2.74,0-.75,.44-.75,1.14,0,1.58Zm10.21,5.89l2.82,1.63c.76,.44,1.98,.44,2.74,0,.75-.44,.75-1.14,0-1.58l-2.82-1.63c-.76-.44-1.98-.44-2.74,0-.75,.44-.75,1.14,0,1.58Zm7.07,4.08l2.82,1.63c.76,.44,1.98,.44,2.74,0,.75-.44,.75-1.14,0-1.58l-2.82-1.63c-.76-.44-1.98-.44-2.74,0-.75,.44-.75,1.14,0,1.58Zm7.07,4.08l2.82,1.63c.76,.44,1.98,.44,2.74,0,.75-.44,.75-1.14,0-1.58l-2.82-1.63c-.76-.44-1.98-.44-2.74,0s-.75,1.14,0,1.58Zm7.07,4.08l2.82,1.63c.76,.44,1.98,.44,2.74,0,.75-.44,.75-1.14,0-1.58l-2.82-1.63c-.76-.44-1.98-.44-2.74,0-.75,.44-.75,1.14,0,1.58Zm7.07,4.08l2.82,1.63c.76,.44,1.98,.44,2.74,0,.75-.44,.75-1.14,0-1.58l-2.82-1.63c-.76-.44-1.98-.44-2.74,0-.75,.44-.75,1.14,0,1.58Zm7.07,4.08l2.82,1.63c.76,.44,1.98,.44,2.74,0,.75-.44,.75-1.14,0-1.58l-2.82-1.63c-.76-.44-1.98-.44-2.74,0-.75,.44-.75,1.14,0,1.58Zm7.07,4.08l2.82,1.63c.76,.44,1.98,.44,2.74,0s.75-1.14,0-1.58l-2.82-1.63c-.76-.44-1.98-.44-2.74,0-.75,.44-.75,1.14,0,1.58Zm7.07,4.08l2.82,1.63c.76,.44,1.98,.44,2.74,0s.75-1.14,0-1.58l-2.82-1.63c-.76-.44-1.98-.44-2.74,0-.75,.44-.75,1.14,0,1.58Zm7.07,4.08l2.82,1.63c.76,.44,1.98,.44,2.74,0s.75-1.14,0-1.58l-2.82-1.63c-.76-.44-1.98-.44-2.74,0-.75,.44-.75,1.14,0,1.58Zm7.07,4.08l2.82,1.63c.76,.44,1.98,.44,2.74,0s.75-1.14,0-1.58l-2.82-1.63c-.76-.44-1.98-.44-2.74,0-.75,.44-.75,1.14,0,1.58Zm7.07,4.08l2.82,1.63c.76,.44,1.98,.44,2.74,0s.75-1.14,0-1.58l-2.82-1.63c-.76-.44-1.98-.44-2.74,0-.75,.44-.75,1.14,0,1.58Zm7.22,4.17l2.82,1.63c.76,.44,1.98,.44,2.74,0,.75-.44,.75-1.14,0-1.58l-2.82-1.63c-.76-.44-1.98-.44-2.74,0-.75,.44-.75,1.14,0,1.58Zm-94.5-47l2.45,1.41c.86,.5,2.26,.5,3.12,0l2.43-1.4c.86-.5,.85-1.3,0-1.8l-2.45-1.41c-.86-.5-2.26-.5-3.12,0l-2.43,1.4c-.86,.5-.85,1.3,0,1.8Zm12.63,5.5l2.43-1.4c.86-.5,.85-1.3,0-1.8l-2.45-1.41c-.86-.5-2.26-.5-3.12,0l-2.43,1.4c-.86,.5-.85,1.3,0,1.8l2.45,1.41c.86,.5,2.26,.5,3.12,0Zm1.51,2.67l2.45,1.41c.86,.5,2.26,.5,3.12,0l2.43-1.4c.86-.5,.85-1.3,0-1.8l-2.45-1.41c-.86-.5-2.26-.5-3.12,0l-2.43,1.4c-.86,.5-.85,1.3,0,1.8Zm7.07,4.08l2.45,1.41c.86,.5,2.26,.5,3.12,0l2.43-1.4c.86-.5,.85-1.3,0-1.8l-2.45-1.41c-.86-.5-2.26-.5-3.12,0l-2.43,1.4c-.86,.5-.85,1.3,0,1.8Zm15.05,2.3l-2.45-1.41c-.86-.5-2.26-.5-3.12,0l-2.43,1.4c-.86,.5-.85,1.3,0,1.8l2.45,1.41c.86,.5,2.26,.5,3.12,0l2.43-1.4c.86-.5,.85-1.3,0-1.8Zm7.07,4.08l-2.45-1.41c-.86-.5-2.26-.5-3.12,0l-2.43,1.4c-.86,.5-.85,1.3,0,1.8l2.45,1.41c.86,.5,2.26,.5,3.12,0l2.43-1.4c.86-.5,.85-1.3,0-1.8Zm7.07,4.08l-2.45-1.41c-.86-.5-2.26-.5-3.12,0l-2.43,1.4c-.86,.5-.85,1.3,0,1.8l2.45,1.41c.86,.5,2.26,.5,3.12,0l2.43-1.4c.86-.5,.85-1.3,0-1.8Zm7.07,4.08l-2.45-1.41c-.86-.5-2.26-.5-3.12,0l-2.43,1.4c-.86,.5-.85,1.3,0,1.8l2.45,1.41c.86,.5,2.26,.5,3.12,0l2.43-1.4c.86-.5,.85-1.3,0-1.8Zm7.07,4.08l-2.45-1.41c-.86-.5-2.26-.5-3.12,0l-2.43,1.4c-.86,.5-.85,1.3,0,1.8l2.45,1.41c.86,.5,2.26,.5,3.12,0l2.43-1.4c.86-.5,.85-1.3,0-1.8Zm7.07,4.08l-2.45-1.41c-.86-.5-2.26-.5-3.12,0l-2.43,1.4c-.86,.5-.85,1.3,0,1.8l2.45,1.41c.86,.5,2.26,.5,3.12,0l2.43-1.4c.86-.5,.85-1.3,0-1.8Zm-.91,5.87l2.45,1.41c.86,.5,2.26,.5,3.12,0l2.43-1.4c.86-.5,.85-1.3,0-1.8l-2.45-1.41c-.86-.5-2.26-.5-3.12,0l-2.43,1.4c-.86,.5-.85,1.3,0,1.8Zm15.05,2.3l-2.45-1.41c-.86-.5-2.26-.5-3.12,0l-2.43,1.4c-.86,.5-.85,1.3,0,1.8l2.45,1.41c.86,.5,2.26,.5,3.12,0l2.43-1.4c.86-.5,.85-1.3,0-1.8Zm10.36,5.98l-5.58-3.22c-.86-.5-2.26-.5-3.12,0l-2.43,1.4c-.86,.5-.85,1.3,0,1.8l5.58,3.22c.86,.5,2.26,.5,3.12,0l2.43-1.4c.86-.5,.85-1.3,0-1.8Zm-102.68-45.32l5.58,3.22c.86,.5,2.26,.5,3.12,0l2.43-1.4c.86-.5,.85-1.3,0-1.8l-5.58-3.22c-.86-.5-2.26-.5-3.12,0l-2.43,1.4c-.86,.5-.85,1.3,0,1.8Zm10.21,5.89l2.45,1.41c.86,.5,2.26,.5,3.12,0l2.43-1.4c.86-.5,.85-1.3,0-1.8l-2.45-1.41c-.86-.5-2.26-.5-3.12,0l-2.43,1.4c-.86,.5-.85,1.3,0,1.8Zm9.52,5.49c.86,.5,2.26,.5,3.12,0l2.43-1.4c.86-.5,.85-1.3,0-1.8l-2.45-1.41c-.86-.5-2.26-.5-3.12,0l-2.43,1.4c-.86,.5-.85,1.3,0,1.8l2.45,1.41Zm7.07,4.08c.86,.5,2.26,.5,3.12,0l2.43-1.4c.86-.5,.85-1.3,0-1.8l-2.45-1.41c-.86-.5-2.26-.5-3.12,0l-2.43,1.4c-.86,.5-.85,1.3,0,1.8l2.45,1.41Zm7.05-.53l-2.43,1.4c-.86,.5-.85,1.3,0,1.8l2.45,1.41c.86,.5,2.26,.5,3.12,0l2.43-1.4c.86-.5,.85-1.3,0-1.8l-2.45-1.41c-.86-.5-2.26-.5-3.12,0Zm7.22,4l-2.73,1.58c-.78,.45-.77,1.18,0,1.63l2.75,1.59c.78,.45,2.04,.45,2.82,0l2.73-1.58c.78-.45,.77-1.18,0-1.63l-2.75-1.59c-.78-.45-2.04-.45-2.82,0Zm7.07,4.08l-2.73,1.58c-.78,.45-.77,1.18,0,1.63l2.75,1.59c.78,.45,2.04,.45,2.82,0l2.73-1.58c.78-.45,.77-1.18,0-1.63l-2.75-1.59c-.78-.45-2.04-.45-2.82,0Zm7.07,4.08l-2.73,1.58c-.78,.45-.77,1.18,0,1.63l2.75,1.59c.78,.45,2.04,.45,2.82,0l2.73-1.58c.78-.45,.77-1.18,0-1.63l-2.75-1.59c-.78-.45-2.04-.45-2.82,0Zm7.07,4.08l-2.73,1.58c-.78,.45-.77,1.18,0,1.63l2.75,1.59c.78,.45,2.04,.45,2.82,0l2.73-1.58c.78-.45,.77-1.18,0-1.63l-2.75-1.59c-.78-.45-2.04-.45-2.82,0Zm7.07,4.08l-2.73,1.58c-.78,.45-.77,1.18,0,1.63l2.75,1.59c.78,.45,2.04,.45,2.82,0l2.73-1.58c.78-.45,.77-1.18,0-1.63l-2.75-1.59c-.78-.45-2.04-.45-2.82,0Zm9.91,8.87l2.73-1.58c.78-.45,.77-1.18,0-1.63l-2.75-1.59c-.78-.45-2.04-.45-2.82,0l-2.73,1.58c-.78,.45-.77,1.18,0,1.63l2.75,1.59c.78,.45,2.04,.45,2.82,0Zm7.07,4.08l2.73-1.58c.78-.45,.77-1.18,0-1.63l-2.75-1.59c-.78-.45-2.04-.45-2.82,0l-2.73,1.58c-.78,.45-.77,1.18,0,1.63l2.75,1.59c.78,.45,2.04,.45,2.82,0Zm9.94,.97l-2.75-1.59c-.78-.45-2.04-.45-2.82,0l-2.73,1.58c-.78,.45-.77,1.18,0,1.63l2.75,1.59c.78,.45,2.04,.45,2.82,0l2.73-1.58c.78-.45,.77-1.18,0-1.63Zm-102.98-45.5l8.87,5.12c.78,.45,2.04,.45,2.82,0l2.73-1.58c.78-.45,.77-1.18,0-1.63l-8.87-5.12c-.78-.45-2.04-.45-2.82,0l-2.73,1.58c-.78,.45-.77,1.18,0,1.63Zm13.19,7.62l2.75,1.59c.78,.45,2.04,.45,2.82,0l2.73-1.58c.78-.45,.77-1.18,0-1.63l-2.75-1.59c-.78-.45-2.04-.45-2.82,0l-2.73,1.58c-.78,.45-.77,1.18,0,1.63Zm7.07,4.08l2.75,1.59c.78,.45,2.04,.45,2.82,0l2.73-1.58c.78-.45,.77-1.18,0-1.63l-2.75-1.59c-.78-.45-2.04-.45-2.82,0l-2.73,1.58c-.78,.45-.77,1.18,0,1.63Zm7.07,4.08l2.75,1.59c.78,.45,2.04,.45,2.82,0l2.73-1.58c.78-.45,.77-1.18,0-1.63l-2.75-1.59c-.78-.45-2.04-.45-2.82,0l-2.73,1.58c-.78,.45-.77,1.18,0,1.63Zm12.63,5.67l2.73-1.58c.78-.45,.77-1.18,0-1.63l-2.75-1.59c-.78-.45-2.04-.45-2.82,0l-2.73,1.58c-.78,.45-.77,1.18,0,1.63l2.75,1.59c.78,.45,2.04,.45,2.82,0Zm7.07,4.08l2.73-1.58c.78-.45,.77-1.18,0-1.63l-2.75-1.59c-.78-.45-2.04-.45-2.82,0l-2.73,1.58c-.78,.45-.77,1.18,0,1.63l2.75,1.59c.78,.45,2.04,.45,2.82,0Zm7.07,4.08l2.73-1.58c.78-.45,.77-1.18,0-1.63l-2.75-1.59c-.78-.45-2.04-.45-2.82,0l-2.73,1.58c-.78,.45-.77,1.18,0,1.63l2.75,1.59c.78,.45,2.04,.45,2.82,0Zm7.07,4.08l2.73-1.58c.78-.45,.77-1.18,0-1.63l-2.75-1.59c-.78-.45-2.04-.45-2.82,0l-2.73,1.58c-.78,.45-.77,1.18,0,1.63l2.75,1.59c.78,.45,2.04,.45,2.82,0Zm7.07,4.08l2.73-1.58c.78-.45,.77-1.18,0-1.63l-2.75-1.59c-.78-.45-2.04-.45-2.82,0l-2.73,1.58c-.78,.45-.77,1.18,0,1.63l2.75,1.59c.78,.45,2.04,.45,2.82,0Zm7.07,4.08l2.73-1.58c.78-.45,.77-1.18,0-1.63l-2.75-1.59c-.78-.45-2.04-.45-2.82,0l-2.73,1.58c-.78,.45-.77,1.18,0,1.63l2.75,1.59c.78,.45,2.04,.45,2.82,0Zm1.51,2.49l2.75,1.59c.78,.45,2.04,.45,2.82,0l2.73-1.58c.78-.45,.77-1.18,0-1.63l-2.75-1.59c-.78-.45-2.04-.45-2.82,0l-2.73,1.58c-.78,.45-.77,1.18,0,1.63Zm19.59,4.92l-6.98-4.03c-.78-.45-2.04-.45-2.82,0l-2.73,1.58c-.78,.45-.77,1.18,0,1.63l6.98,4.03c.78,.45,2.04,.45,2.82,0l2.73-1.58c.78-.45,.77-1.18,0-1.63Zm-102.95-45.3l12.58,7.26c.88,.51,2.31,.51,3.18,0l2.37-1.37c.88-.51,.87-1.33-.01-1.84l-12.58-7.26c-.88-.51-2.31-.51-3.18,0l-2.37,1.37c-.88,.51-.87,1.33,0,1.84Zm17.27,9.97l2.38,1.37c.88,.51,2.31,.51,3.18,0l2.37-1.37c.88-.51,.87-1.33,0-1.84l-2.38-1.37c-.88-.51-2.31-.51-3.18,0l-2.37,1.37c-.88,.51-.87,1.33,0,1.84Zm7.07,4.08l2.38,1.37c.88,.51,2.31,.51,3.18,0l2.37-1.37c.88-.51,.87-1.33,0-1.84l-2.38-1.37c-.88-.51-2.31-.51-3.18,0l-2.37,1.37c-.88,.51-.87,1.33,0,1.84Zm7.07,4.08l2.38,1.37c.88,.51,2.31,.51,3.18,0l2.37-1.37c.88-.51,.87-1.33,0-1.84l-2.38-1.37c-.88-.51-2.31-.51-3.18,0l-2.37,1.37c-.88,.51-.87,1.33,0,1.84Zm7.07,4.08l2.38,1.37c.88,.51,2.31,.51,3.18,0l2.37-1.37c.88-.51,.87-1.33,0-1.84l-2.38-1.37c-.88-.51-2.31-.51-3.18,0l-2.37,1.37c-.88,.51-.87,1.33,0,1.84Zm7.07,4.08l2.38,1.37c.88,.51,2.31,.51,3.18,0l2.37-1.37c.88-.51,.87-1.33,0-1.84l-2.38-1.37c-.88-.51-2.31-.51-3.18,0l-2.37,1.37c-.88,.51-.87,1.33,0,1.84Zm7.07,4.08l2.38,1.37c.88,.51,2.31,.51,3.18,0l2.37-1.37c.88-.51,.87-1.33,0-1.84l-2.38-1.37c-.88-.51-2.31-.51-3.18,0l-2.37,1.37c-.88,.51-.87,1.33,0,1.84Zm7.07,4.08l2.38,1.37c.88,.51,2.31,.51,3.18,0l2.37-1.37c.88-.51,.87-1.33,0-1.84l-2.38-1.37c-.88-.51-2.31-.51-3.18,0l-2.37,1.37c-.88,.51-.87,1.33,0,1.84Zm7.07,4.08l2.38,1.37c.88,.51,2.31,.51,3.18,0l2.37-1.37c.88-.51,.87-1.33,0-1.84l-2.38-1.37c-.88-.51-2.31-.51-3.18,0l-2.37,1.37c-.88,.51-.87,1.33,0,1.84Zm7.07,4.08l2.38,1.37c.88,.51,2.31,.51,3.18,0l2.37-1.37c.88-.51,.87-1.33,0-1.84l-2.38-1.37c-.88-.51-2.31-.51-3.18,0l-2.37,1.37c-.88,.51-.87,1.33,0,1.84Zm7.07,4.08l2.38,1.37c.88,.51,2.31,.51,3.18,0l2.37-1.37c.88-.51,.87-1.33,0-1.84l-2.38-1.37c-.88-.51-2.31-.51-3.18,0l-2.37,1.37c-.88,.51-.87,1.33,0,1.84Zm15.14,2.35l-2.38-1.37c-.88-.51-2.31-.51-3.18,0l-2.37,1.37c-.88,.51-.87,1.33,0,1.84l2.38,1.37c.88,.51,2.31,.51,3.18,0l2.37-1.37c.88-.51,.87-1.33,0-1.84Zm-91.56-45.3l-5.52-3.19c-.88-.51-2.31-.51-3.18,0l-2.37,1.37c-.88,.51-.87,1.33,0,1.84l5.52,3.19c.88,.51,2.31,.51,3.18,0l2.37-1.37c.88-.51,.87-1.33,0-1.84Zm7.07,4.08l-2.38-1.37c-.88-.51-2.31-.51-3.18,0l-2.37,1.37c-.88,.51-.87,1.33,0,1.84l2.38,1.37c.88,.51,2.31,.51,3.18,0l2.37-1.37c.88-.51,.87-1.33,0-1.84Zm7.07,4.08l-2.38-1.37c-.88-.51-2.31-.51-3.18,0l-2.37,1.37c-.88,.51-.87,1.33,0,1.84l2.38,1.37c.88,.51,2.31,.51,3.18,0l2.37-1.37c.88-.51,.87-1.33,0-1.84Zm49.5,28.58l-44.81-25.87c-.88-.51-2.31-.51-3.18,0l-2.37,1.37c-.88,.51-.87,1.33,0,1.84l44.81,25.87c.88,.51,2.31,.51,3.18,0l2.37-1.37c.88-.51,.87-1.33,0-1.84Zm7.07,4.08l-2.38-1.37c-.88-.51-2.31-.51-3.18,0l-2.37,1.37c-.88,.51-.87,1.33,.01,1.84l2.38,1.37c.88,.51,2.31,.51,3.18,0l2.37-1.37c.88-.51,.87-1.33,0-1.84Zm7.07,4.08l-2.38-1.37c-.88-.51-2.31-.51-3.18,0l-2.37,1.37c-.88,.51-.87,1.33,0,1.84l2.38,1.37c.88,.51,2.31,.51,3.18,0l2.37-1.37c.88-.51,.87-1.33,0-1.84Zm7.22,4.17l-2.38-1.37c-.88-.51-2.31-.51-3.18,0l-2.37,1.37c-.88,.51-.87,1.33,0,1.84l2.38,1.37c.88,.51,2.31,.51,3.18,0l2.37-1.37c.88-.51,.87-1.33,0-1.84Z"/><g><path class="cls-16" d="M224.62,163.07l-93.68-54.12c-3.63-2.09-6.57-7.71-6.57-12.55V22.92c0-4.84,2.94-7.06,6.57-4.96l93.68,54.12c3.63,2.09,6.57,7.71,6.57,12.55v73.49c0,4.84-2.94,7.06-6.57,4.96Z"/><path class="cls-24" d="M225.46,159.29l-92.68-53.53c-2.92-1.85-4.72-5.56-4.72-9.35V22.56c0-.9,.98-1.46,1.75-1,.09,.05,.16,.09,.21,.12l92.75,53.58c3.47,2,4.72,5.56,4.72,9.35v73.67c0,.96-1.04,1.57-1.88,1.09-.07-.04-.12-.07-.15-.09Z"/><path class="cls-3" d="M222.77,75.26L130.02,21.68s-.12-.07-.21-.12c-.78-.45-1.75,.1-1.75,1V96.41c0,3.79,1.81,7.5,4.72,9.35l92.68,53.53s.09,.05,.15,.09c.84,.48,1.88-.13,1.88-1.09V84.62c0-3.79-1.25-7.35-4.72-9.35Zm3.99,83.03c0,.32-.27,.52-.52,.52-.09,0-.17-.02-.26-.07l-92.83-53.62c-2.64-1.68-4.36-5.1-4.36-8.72V22.56c0-.26,.22-.43,.43-.43,.07,0,.15,.02,.21,.06l92.96,53.71c3.6,2.07,4.36,5.88,4.36,8.72v73.67Z"/><path class="cls-20" d="M226.48,71.08L132.8,16.97c-1.43-.83-2.76-.98-3.84-.56-.14,.05-1.97,1.03-2.1,1.1h0c1.12-.54,2.54-.44,4.09,.46l93.68,54.12c3.63,2.09,6.57,7.71,6.57,12.55v73.49c0,3.02-1.15,5.02-2.89,5.59,.14,0,.32-.05,.58-.2,.08-.05,2.07-1.17,2.15-1.22,1.25-.87,2.02-2.67,2.02-5.15V83.63c0-4.84-2.94-10.45-6.57-12.55Z"/><path class="cls-27" d="M226.48,71.08L132.8,16.97c-1.43-.83-2.76-.98-3.84-.56-.14,.05-1.97,1.03-2.1,1.1h0c1.12-.54,2.54-.44,4.09,.46l93.68,54.12,1.86-.99Z"/><path class="cls-10" d="M224.93,71.91L131.25,17.8c-1.49-.86-2.85-.98-3.96-.51,.94-.15,2.02,.08,3.17,.74l93.68,54.12c3.63,2.09,6.57,7.71,6.57,12.55v73.49c0,2.85-1.03,4.79-2.61,5.47,2.03-.32,3.4-2.4,3.4-5.71V84.46c0-4.84-2.94-10.45-6.57-12.55Z"/></g></g><g><g><path class="cls-24" d="M281.39,192.09h-35.58v1.93h0s0,.09,0,.14c0,5.72,7.97,10.36,17.79,10.36s17.79-4.64,17.79-10.36c0-.05,0-.1,0-.14h0v-1.93Z"/><ellipse class="cls-20" cx="263.6" cy="192.16" rx="17.79" ry="10.36"/><path class="cls-16" d="M263.6,202.48c-9.72,0-17.61-4.54-17.78-10.18,0,.06,0,.12,0,.19,0,5.72,7.97,10.36,17.79,10.36s17.79-4.64,17.79-10.36c0-.06,0-.12,0-.19-.17,5.64-8.06,10.18-17.78,10.18Z"/></g><ellipse class="cls-1" cx="263.6" cy="192.23" rx="15.01" ry="8.68"/><path class="cls-29" d="M263.6,189.62c6.44,0,11.91,2.35,14.04,5.64,.61-.95,.96-1.97,.96-3.04,0-4.79-6.72-8.68-15.01-8.68s-15.01,3.88-15.01,8.68c0,1.07,.35,2.09,.96,3.04,2.13-3.29,7.61-5.64,14.04-5.64Z"/><path class="cls-23" d="M282.03,181.34c-.18,0-.36-.1-.45-.28-.29-.58-.6-1.16-.93-1.73-.14-.24-.06-.54,.18-.68,.24-.14,.54-.06,.68,.18,.34,.59,.67,1.19,.96,1.79,.12,.25,.02,.55-.23,.67-.07,.04-.15,.05-.22,.05Zm-2.58-4.28c-.16,0-.31-.07-.41-.21-.38-.53-.78-1.05-1.2-1.56-.17-.21-.14-.53,.07-.7,.21-.17,.53-.14,.7,.07,.43,.52,.84,1.06,1.24,1.61,.16,.22,.11,.54-.12,.7-.09,.06-.19,.09-.29,.09Zm-3.23-3.81c-.13,0-.26-.05-.35-.15l-.21-.2c-.45-.45-.81-.97-1.07-1.56-.11-.25,0-.55,.26-.66,.25-.11,.55,0,.66,.26,.2,.46,.49,.88,.85,1.24l.21,.21c.2,.2,.2,.51,0,.71-.1,.1-.23,.15-.35,.15Zm-1.38-4.54s-.09,0-.13-.02c-.27-.07-.42-.35-.35-.61,.2-.73,.54-1.38,1.04-1.95,.18-.21,.5-.23,.7-.05,.21,.18,.23,.5,.05,.7-.39,.45-.67,.97-.83,1.55-.06,.22-.26,.37-.48,.37Zm2.97-3.95c-.11,0-.23-.04-.32-.12-.21-.18-.24-.49-.06-.71,.42-.5,.83-1.01,1.23-1.54,.16-.22,.48-.27,.7-.1,.22,.17,.27,.48,.1,.7-.4,.54-.83,1.07-1.26,1.59-.1,.12-.24,.18-.38,.18Zm2.92-4.05c-.09,0-.18-.02-.26-.07-.24-.14-.31-.45-.17-.69,.34-.56,.66-1.13,.97-1.71,.13-.25,.43-.34,.68-.21,.24,.13,.34,.43,.21,.68-.31,.6-.65,1.19-1,1.77-.09,.16-.26,.24-.43,.24Zm2.25-4.46c-.06,0-.13-.01-.19-.04-.26-.1-.38-.39-.28-.65,.25-.61,.47-1.22,.68-1.85,.09-.26,.37-.4,.63-.32,.26,.09,.4,.37,.31,.63-.21,.64-.45,1.28-.71,1.9-.08,.19-.27,.31-.46,.31Zm1.51-4.76s-.07,0-.11-.01c-.27-.06-.44-.33-.37-.6,.15-.64,.28-1.28,.38-1.93,.04-.27,.3-.46,.57-.41,.27,.04,.46,.3,.41,.57-.11,.67-.24,1.33-.39,1.99-.05,.23-.26,.39-.49,.39Zm.73-4.94s-.02,0-.03,0c-.28-.02-.48-.26-.47-.53,.04-.65,.06-1.31,.06-1.97,0-.28,.22-.5,.5-.5s.5,.22,.5,.5c0,.68-.02,1.36-.07,2.03-.02,.26-.24,.47-.5,.47Z"/><path class="cls-17" d="M279.17,191.62v-2.21c0-7.72-4.26-14.82-11.08-18.45l-1.57-.84c-.69-.37-.72-1.35-.05-1.76l2.64-1.6c6.25-3.79,10.06-10.57,10.06-17.87v-6.35h-31.13v6.18c0,7.4,3.91,14.25,10.28,18l2.67,1.57c.69,.4,.66,1.41-.05,1.77l-1.62,.84c-6.93,3.59-11.29,10.75-11.29,18.56v2.03c-.24,2.48,1.27,5.02,4.56,6.92,6.11,3.53,15.99,3.55,22.07,.04,3.25-1.87,4.73-4.38,4.49-6.84Z"/><path class="cls-13" d="M274.58,160.12c-1.57,2.28-3.65,4.06-6.13,5.56l-2.64,1.6c-.7,.42-1.12,1.19-1.09,2.01,.01,.53,.48,5.11,.8,8.23,.2,1.91,1.46,3.56,3.27,4.2,5.1,1.81,9.12,1.56,9.12,7.68v2.33c.2,2.04-1.21,4.09-3.86,5.62-2.74,1.58-6.41,2.45-10.34,2.45h0c-3.97,0-7.69-.89-10.47-2.49-2.71-1.56-4.14-3.64-3.94-5.7v-.06s0-2.09,0-2.09c0-6.22,4.09-5.99,9.3-7.81,1.82-.63,3.1-2.27,3.3-4.18,.34-3.12,.83-7.7,.84-8.24,.02-.83-.41-1.6-1.12-2.02l-2.67-1.57c-2.28-1.35-4.24-2.9-5.78-4.89-.33-.43,21.7-1.08,21.39-.63Z"/><ellipse class="cls-6" cx="263.7" cy="158.05" rx="11.45" ry="6.67"/><g><path class="cls-24" d="M281.39,141.49h-35.58v1.93h0s0,.1,0,.14c0,5.72,7.97,10.36,17.79,10.36s17.79-4.64,17.79-10.36c0-.05,0-.1,0-.14h0v-1.93Z"/><ellipse class="cls-20" cx="263.6" cy="141.57" rx="17.79" ry="10.36"/><path class="cls-16" d="M263.6,151.89c-9.72,0-17.61-4.54-17.78-10.18,0,.06,0,.12,0,.19,0,5.72,7.97,10.36,17.79,10.36s17.79-4.64,17.79-10.36c0-.06,0-.12,0-.19-.17,5.64-8.06,10.18-17.78,10.18Z"/></g><path class="cls-6" d="M262.04,182.21s-8.5,3.17-9.92,6c-1.42,2.83-.25,4.75,2.5,4.92,2.75,.17,.75-4.67,7.42-10.92Z"/><polygon class="cls-23" points="278.48 179.29 283.95 182.8 282.37 176.96 278.48 179.29"/></g><path class="cls-25" d="M214.38,79.62l-80.56-45.78c-.21,10.72-.02,50.11-.08,61.09-.1,17.78-2.76,21.8-23.28,37.87-6.53,5.11-14.69,9.34-38.07,21.63-9.49,4.98-11.02,11.34-15.81,15.41-4.65,3.94-9.8,5.01-11.89,6.23l80.02,46.27c1.5-.89,7.31-2.21,12.42-6.54,4.8-4.06,6.33-10.42,15.81-15.41,23.38-12.29,31.54-16.52,38.07-21.63,20.52-16.06,23.18-20.09,23.28-37.87,.06-11.04-.13-50.75,.08-61.27Z"/><path class="cls-9" d="M214.38,78.12l-80.56-45.78c-.21,10.72-.02,50.11-.08,61.09-.1,17.78-2.76,21.8-23.28,37.87-6.53,5.11-14.69,9.34-38.07,21.63-9.49,4.98-11.02,11.34-15.81,15.41-4.65,3.94-9.8,5.01-11.89,6.23l80.02,46.27c1.5-.89,7.31-2.21,12.42-6.54,4.8-4.06,6.33-10.42,15.81-15.41,23.38-12.29,31.54-16.52,38.07-21.63,20.52-16.06,23.18-20.09,23.28-37.87,.06-11.04-.13-50.75,.08-61.27Z"/><g><g><path class="cls-16" d="M99.05,165.89c-.09,0-.17-.02-.25-.07l-7.97-4.6c-.16-.09-.25-.26-.25-.44s.1-.35,.25-.44l7.92-4.57c.16-.09,.35-.09,.5,0l7.97,4.6c.16,.09,.25,.26,.25,.44s-.1,.35-.25,.44l-7.92,4.57c-.08,.05-.16,.07-.25,.07Zm-6.97-5.11l6.97,4.02,6.92-3.99-6.97-4.02-6.92,3.99Z"/><path class="cls-24" d="M84.05,155.33s.02-.07,.07-.09l.09-.03,6.93-1.82c.18-.05,.34-.03,.48,.05l.87,.5c.14,.08,.16,.17,.09,.28l-3.15,4-.05,.05s-.1,.04-.17,.04c-.06,0-.12-.01-.16-.04l-.7-.4c-.11-.06-.14-.14-.08-.22l.58-.75-2.32-1.34-1.31,.34c-.14,.03-.27,.02-.38-.05l-.7-.4s-.07-.06-.07-.1Zm3.64-.16l1.78,1.03,1.52-1.9-3.29,.88Z"/><path class="cls-16" d="M123.39,179.95c-.09,0-.17-.02-.25-.07l-7.97-4.6c-.16-.09-.25-.26-.25-.44s.1-.35,.25-.44l7.92-4.57c.16-.09,.35-.09,.5,0l7.97,4.6c.16,.09,.25,.26,.25,.44s-.1,.35-.25,.44l-7.92,4.57c-.08,.05-.17,.07-.25,.07Zm-6.97-5.11l6.97,4.02,6.92-3.99-6.97-4.02-6.92,3.99Z"/><path class="cls-24" d="M108.91,169.67s.02-.08,.07-.11l5.09-2.94c.06-.03,.12-.05,.19-.05,.07,0,.14,.01,.19,.05l2.28,1.32c.61,.35,.94,.7,.97,1.03,.04,.33-.18,.63-.64,.9-.27,.16-.57,.25-.89,.28-.32,.03-.61,.02-.88-.03,.12,.18,.15,.39,.07,.6-.07,.22-.25,.41-.54,.57-.48,.28-1.04,.41-1.67,.39-.63-.02-1.24-.2-1.83-.54l-2.35-1.36c-.05-.03-.08-.07-.08-.11Zm3.13,.91c.27,.16,.56,.24,.86,.24,.3,0,.56-.06,.79-.2,.23-.13,.34-.29,.33-.46,0-.17-.14-.34-.41-.49l-1.3-.75-1.58,.91,1.3,.75Zm2.31-1.43c.27,.15,.54,.24,.81,.24,.27,0,.52-.05,.74-.18,.22-.13,.32-.27,.3-.42-.02-.15-.17-.3-.44-.46l-1.22-.7-1.41,.81,1.22,.7Z"/><path class="cls-16" d="M147.1,193.63c-.09,0-.17-.02-.25-.07l-7.97-4.6c-.16-.09-.25-.26-.25-.44s.1-.35,.25-.44l7.92-4.57c.16-.09,.35-.09,.5,0l7.97,4.6c.16,.09,.25,.26,.25,.44s-.1,.35-.25,.44l-7.92,4.57c-.08,.05-.17,.07-.25,.07Zm-6.97-5.11l6.97,4.02,6.92-3.99-6.97-4.02-6.92,3.99Z"/><path class="cls-24" d="M133.43,183.35c-.03-.44,.28-.86,.94-1.27,.13-.09,.36-.22,.68-.4,.32-.19,.56-.32,.71-.4,.69-.37,1.42-.55,2.19-.53,.77,.02,1.51,.23,2.23,.64,.47,.27,.79,.55,.98,.84,.19,.29,.24,.57,.15,.84-.09,.27-.29,.51-.62,.71h-.02s-.09,.04-.16,.04c-.06,0-.12-.02-.16-.04l-.76-.44c-.06-.04-.1-.07-.1-.11,0-.03,.02-.08,.07-.13,.24-.23,.34-.44,.27-.63-.06-.19-.25-.38-.57-.56-.75-.43-1.56-.42-2.42,.05-.15,.08-.37,.2-.66,.37-.29,.17-.51,.3-.66,.39-.8,.5-.83,.97-.08,1.4,.31,.18,.64,.29,.97,.33,.33,.04,.69-.02,1.1-.16,.09-.03,.17-.04,.23-.04,.06,0,.12,.02,.19,.06l.76,.44s.07,.06,.07,.1c0,.04-.02,.07-.07,.09-.36,.19-.77,.31-1.24,.36-.47,.05-.95,.02-1.46-.09-.5-.11-.99-.3-1.46-.57-.72-.42-1.1-.85-1.13-1.29Z"/></g><g><path class="cls-16" d="M133.76,146.44c-.09,0-.17-.02-.25-.07l-7.97-4.6c-.16-.09-.25-.26-.25-.44s.1-.35,.25-.44l7.92-4.57c.16-.09,.35-.09,.5,0l7.97,4.6c.16,.09,.25,.26,.25,.44s-.1,.35-.25,.44l-7.92,4.57c-.08,.05-.16,.07-.25,.07Zm-6.97-5.11l6.97,4.02,6.92-3.99-6.97-4.02-6.92,3.99Z"/><path class="cls-24" d="M118.76,135.88s.02-.07,.07-.09l.09-.03,6.93-1.82c.18-.05,.34-.03,.48,.05l.87,.5c.14,.08,.16,.17,.09,.28l-3.15,4-.05,.05s-.1,.04-.17,.04c-.06,0-.12-.01-.16-.04l-.7-.4c-.11-.06-.14-.14-.08-.22l.58-.75-2.32-1.34-1.31,.34c-.14,.03-.27,.02-.38-.05l-.7-.4s-.07-.06-.07-.1Zm3.64-.16l1.78,1.03,1.52-1.9-3.29,.88Z"/><path class="cls-16" d="M158.1,160.5c-.09,0-.17-.02-.25-.07l-7.97-4.6c-.16-.09-.25-.26-.25-.44s.1-.35,.25-.44l7.92-4.57c.16-.09,.35-.09,.5,0l7.97,4.6c.16,.09,.25,.26,.25,.44s-.1,.35-.25,.44l-7.92,4.57c-.08,.05-.17,.07-.25,.07Zm-6.97-5.11l6.97,4.02,6.92-3.99-6.97-4.02-6.92,3.99Z"/><path class="cls-24" d="M143.62,150.23s.02-.08,.07-.11l5.09-2.94c.06-.03,.12-.05,.19-.05,.07,0,.14,.01,.19,.05l2.28,1.32c.61,.35,.94,.7,.97,1.03,.04,.33-.18,.63-.64,.9-.27,.16-.57,.25-.89,.28-.32,.03-.61,.02-.88-.03,.12,.18,.15,.39,.07,.6-.07,.22-.25,.41-.54,.57-.48,.28-1.04,.41-1.67,.39-.63-.02-1.24-.2-1.83-.54l-2.35-1.36c-.05-.03-.08-.07-.08-.11Zm3.13,.91c.27,.16,.56,.24,.86,.24,.3,0,.56-.06,.79-.2,.23-.13,.34-.29,.33-.46,0-.17-.14-.34-.41-.49l-1.3-.75-1.58,.91,1.3,.75Zm2.31-1.43c.27,.15,.54,.24,.81,.24,.27,0,.52-.05,.74-.18,.22-.13,.32-.27,.3-.42-.02-.15-.17-.3-.44-.46l-1.22-.7-1.41,.81,1.22,.7Z"/><path class="cls-16" d="M181.81,174.19c-.09,0-.17-.02-.25-.07l-7.97-4.6c-.16-.09-.25-.26-.25-.44s.1-.35,.25-.44l7.92-4.57c.16-.09,.35-.09,.5,0l7.97,4.6c.16,.09,.25,.26,.25,.44s-.1,.35-.25,.44l-7.92,4.57c-.08,.05-.17,.07-.25,.07Zm-6.97-5.11l6.97,4.02,6.92-3.99-6.97-4.02-6.92,3.99Z"/><path class="cls-24" d="M168.14,163.9c-.03-.44,.28-.86,.94-1.27,.13-.09,.36-.22,.68-.4,.32-.19,.56-.32,.71-.4,.69-.37,1.42-.55,2.19-.53,.77,.02,1.51,.23,2.23,.64,.47,.27,.79,.55,.98,.84,.19,.29,.24,.57,.15,.84-.09,.27-.29,.51-.62,.71h-.02s-.09,.04-.16,.04c-.06,0-.12-.02-.16-.04l-.76-.44c-.06-.04-.1-.07-.1-.11,0-.03,.02-.08,.07-.13,.24-.23,.34-.44,.27-.63-.06-.19-.25-.38-.57-.56-.75-.43-1.56-.42-2.42,.05-.15,.08-.37,.2-.66,.37-.29,.17-.51,.3-.66,.39-.8,.5-.83,.97-.08,1.4,.31,.18,.64,.29,.97,.33,.33,.04,.69-.02,1.1-.16,.09-.03,.17-.04,.23-.04,.06,0,.12,.02,.19,.06l.76,.44s.07,.06,.07,.1c0,.04-.02,.07-.07,.09-.36,.19-.77,.31-1.24,.36-.47,.05-.95,.02-1.46-.09-.5-.11-.99-.3-1.46-.57-.72-.42-1.1-.85-1.13-1.29Z"/></g><path class="cls-20" d="M130.67,165.95l2.04-1.18-7.32-4.23-2.04,1.18,7.32,4.23Zm11.24-.91l-16.48-9.51-2.04,1.18,16.48,9.51,2.04-1.18Zm-36.79-13.85l16.48,9.51,2.04-1.18-16.48-9.51-2.04,1.18Zm33.66,5.59l-27.77-16.03-2.83,1.48,27.77,16.03,2.83-1.48Zm4.89,9.28l-2.04,1.18,4.1,2.37,2.04-1.18-4.1-2.37Zm-11.24,.91l13.91,8.03,2.04-1.18-13.91-8.03-2.04,1.18Zm15.67,9.05l14.89,8.6,2.04-1.18-14.89-8.6-2.04,1.18Zm19.66,3.96l-18.23-10.53-2.04,1.18,18.23,10.53,2.04-1.18Zm-62.36-30.96l-4.52-2.61-2.04,1.18,4.52,2.61,2.04-1.18Zm18.28,5.51l-18.43-10.64-2.04,1.18,18.43,10.64,2.04-1.18Z"/><g><path class="cls-20" d="M170.13,144.57c.98-.8,1.56-1.75,2.44-2.54l-35.93-21.69c-.76,.82-1.23,1.79-2.07,2.6l35.55,21.62Z"/><g><path class="cls-20" d="M174.59,150.29c-.58,.51-1.18,1.02-1.8,1.54l12.1,7.28c.55-.54,1.07-1.07,1.59-1.61l-11.89-7.2Z"/><path class="cls-20" d="M152.74,137.05c-.6,.53-1.22,1.06-1.86,1.59l13.69,8.23c.56-.56,1.11-1.11,1.65-1.67l-13.47-8.16Z"/><path class="cls-20" d="M151.13,136.08l-18.55-11.24c-.61,.56-1.23,1.12-1.87,1.68l18.73,11.27c.58-.57,1.14-1.14,1.69-1.71Z"/><path class="cls-20" d="M188.09,158.47c-.57,.5-1.15,1-1.76,1.5l8.24,4.95c.78-.51,1.44-.96,1.96-1.34l-8.44-5.11Z"/><path class="cls-20" d="M172.97,149.31l-5.14-3.11c-.59,.52-1.19,1.03-1.82,1.56l5.33,3.21c.56-.55,1.1-1.1,1.62-1.65Z"/></g></g><path class="cls-20" d="M198.48,89.9l-10.88-6.25v2.21l10.88,6.25v-2.21Zm1.58,3.12l8.06,4.63v-2.21l-8.06-4.63v2.21Zm-14.04-10.28l-5.42-3.13v2.21l5.42,3.13v-2.21Zm-7-4.04l-12.54-7.21v2.21l12.54,7.21v-2.21Zm-1-7.98l-35.53-20.82v3.35l35.53,20.82v-3.35Zm-13.11-.14l-13.05-7.53v2.21l13.05,7.53v-2.21Zm-14.63-8.44l-7.8-4.61v2.21l7.8,4.61v-2.21Z"/><path class="cls-20" d="M202.33,131.02l6.25,3.59v-2.21l-6.25-3.59v2.21Zm-20.44-11.77l6.7,3.87v-2.21l-6.7-3.87v2.21Zm-8.2-4.71l6.62,3.8v-2.21l-6.62-3.8v2.21Zm16.48,9.49l10.59,6.08v-2.21l-10.59-6.08v2.21Zm-36.63-21.12l18.57,10.72v-2.21l-18.57-10.72v2.21Zm-1.58-3.12l-9.47-5.58v2.21l9.47,5.58v-2.21Zm26.06,7.53l-35.53-20.82v3.35l35.53,20.82v-3.35Z"/><path class="cls-16" d="M156.69,120.32c-.08,0-.16-.02-.23-.06l-7.73-4.46c-.14-.08-.23-.23-.23-.39v-8.87c0-.16,.09-.31,.23-.39,.14-.08,.32-.08,.46,0l7.73,4.46c.14,.08,.23,.23,.23,.39v8.87c0,.16-.09,.31-.23,.39-.07,.04-.15,.06-.23,.06Zm-7.28-5.18l6.82,3.94v-7.82l-6.82-3.94v7.82Z"/><path class="cls-24" d="M140.97,109.43c-.03-.05-.05-.11-.05-.16l.02-.07,1.83-4.59c.05-.12,.14-.14,.27-.06l.84,.48c.13,.08,.22,.2,.27,.38l1.83,6.7,.02,.09c0,.05-.02,.09-.05,.1-.03,.02-.07,.01-.11-.01l-.68-.39c-.11-.06-.18-.16-.22-.29l-.35-1.26-2.26-1.3-.35,.86c-.04,.09-.11,.1-.22,.04l-.68-.39s-.08-.07-.11-.12Zm1.63-1.25l1.72,.99-.86-3.19-.86,2.2Z"/><path class="cls-16" d="M180.29,133.94c-.08,0-.16-.02-.23-.06l-7.73-4.46c-.14-.08-.23-.23-.23-.39v-8.87c0-.16,.09-.31,.23-.39,.14-.08,.32-.08,.46,0l7.73,4.46c.14,.08,.23,.23,.23,.39v8.87c0,.16-.09,.31-.23,.39-.07,.04-.15,.06-.23,.06Zm-7.28-5.18l6.82,3.94v-7.82l-6.82-3.94v7.82Z"/><path class="cls-24" d="M165.07,123.33c-.04-.06-.05-.12-.05-.18v-5.7c0-.06,.02-.11,.05-.13,.03-.02,.08-.02,.13,.02l2.21,1.28c.6,.34,1.04,.75,1.33,1.22,.29,.47,.44,.97,.44,1.49,0,.3-.07,.52-.2,.66-.13,.14-.28,.2-.45,.2,.21,.23,.39,.52,.54,.85,.15,.34,.22,.66,.22,.99,0,.54-.16,.89-.48,1.04-.32,.15-.77,.06-1.34-.28l-2.28-1.32c-.05-.03-.09-.07-.13-.14Zm2.2-2.28c.26,.15,.46,.19,.6,.13,.14-.06,.21-.22,.21-.47s-.07-.47-.21-.69c-.14-.21-.34-.4-.6-.55l-1.18-.68v1.57l1.18,.68Zm.08,2.72c.26,.15,.47,.19,.62,.11,.15-.08,.22-.25,.22-.51s-.07-.51-.23-.76c-.15-.25-.35-.45-.61-.6l-1.26-.73v1.77l1.26,.73Z"/><path class="cls-16" d="M203.29,147.22c-.08,0-.16-.02-.23-.06l-7.73-4.46c-.14-.08-.23-.23-.23-.39v-8.87c0-.16,.09-.31,.23-.39,.14-.08,.32-.08,.46,0l7.73,4.46c.14,.08,.23,.23,.23,.39v8.87c0,.16-.09,.31-.23,.39-.07,.04-.15,.06-.23,.06Zm-7.28-5.18l6.82,3.94v-7.82l-6.82-3.94v7.82Z"/><path class="cls-24" d="M188.44,136.36c-.38-.63-.59-1.33-.61-2.11,0-.16,0-.42,0-.78s0-.62,0-.78c.02-.73,.23-1.2,.62-1.39,.39-.19,.93-.09,1.62,.31,.45,.26,.85,.58,1.18,.95,.34,.37,.6,.77,.78,1.18,.19,.42,.28,.82,.29,1.21v.02s-.02,.08-.05,.09c-.03,.01-.07,0-.11-.02l-.74-.43c-.06-.03-.11-.08-.14-.13s-.06-.12-.08-.22c-.08-.4-.21-.74-.4-.99-.19-.26-.44-.48-.75-.65-.73-.42-1.11-.17-1.14,.74,0,.15,0,.39,0,.72s0,.58,0,.75c.03,.95,.41,1.64,1.14,2.06,.3,.18,.55,.25,.74,.21,.19-.04,.32-.22,.4-.53,.02-.07,.05-.11,.08-.13,.03-.01,.08,0,.14,.03l.74,.43s.08,.07,.12,.12c.03,.05,.05,.11,.04,.16,0,.38-.11,.67-.29,.87-.19,.2-.45,.3-.78,.28-.34-.02-.73-.16-1.18-.42-.7-.41-1.24-.92-1.63-1.56Z"/><path class="cls-16" d="M156.69,83.94c-.08,0-.16-.02-.23-.06l-7.73-4.46c-.14-.08-.23-.23-.23-.39v-8.87c0-.16,.09-.31,.23-.39,.14-.08,.32-.08,.46,0l7.73,4.46c.14,.08,.23,.23,.23,.39v8.87c0,.16-.09,.31-.23,.39-.07,.04-.15,.06-.23,.06Zm-7.28-5.18l6.82,3.94v-7.82l-6.82-3.94v7.82Z"/><path class="cls-24" d="M140.97,73.05c-.03-.05-.05-.11-.05-.16l.02-.07,1.83-4.59c.05-.12,.14-.14,.27-.06l.84,.48c.13,.08,.22,.2,.27,.38l1.83,6.7,.02,.09c0,.05-.02,.09-.05,.1-.03,.02-.07,.01-.11-.01l-.68-.39c-.11-.06-.18-.16-.22-.29l-.35-1.26-2.26-1.3-.35,.86c-.04,.09-.11,.1-.22,.04l-.68-.39s-.08-.07-.11-.12Zm1.63-1.25l1.72,.99-.86-3.19-.86,2.2Z"/><path class="cls-16" d="M180.29,97.57c-.08,0-.16-.02-.23-.06l-7.73-4.46c-.14-.08-.23-.23-.23-.39v-8.87c0-.16,.09-.31,.23-.39,.14-.08,.32-.08,.46,0l7.73,4.46c.14,.08,.23,.23,.23,.39v8.87c0,.16-.09,.31-.23,.39-.07,.04-.15,.06-.23,.06Zm-7.28-5.18l6.82,3.94v-7.82l-6.82-3.94v7.82Z"/><path class="cls-24" d="M165.07,86.96c-.04-.06-.05-.12-.05-.18v-5.7c0-.06,.02-.11,.05-.13,.03-.02,.08-.02,.13,.02l2.21,1.28c.6,.34,1.04,.75,1.33,1.22,.29,.47,.44,.97,.44,1.49,0,.3-.07,.52-.2,.66-.13,.14-.28,.2-.45,.2,.21,.23,.39,.52,.54,.85,.15,.34,.22,.66,.22,.99,0,.54-.16,.89-.48,1.04-.32,.15-.77,.06-1.34-.28l-2.28-1.32c-.05-.03-.09-.07-.13-.14Zm2.2-2.28c.26,.15,.46,.19,.6,.13,.14-.07,.21-.22,.21-.47s-.07-.47-.21-.69c-.14-.21-.34-.4-.6-.55l-1.18-.68v1.57l1.18,.68Zm.08,2.72c.26,.15,.47,.19,.62,.11,.15-.08,.22-.25,.22-.51s-.07-.51-.23-.76c-.15-.25-.35-.45-.61-.6l-1.26-.73v1.77l1.26,.73Z"/><path class="cls-16" d="M203.29,110.85c-.08,0-.16-.02-.23-.06l-7.73-4.46c-.14-.08-.23-.23-.23-.39v-8.87c0-.16,.09-.31,.23-.39,.14-.08,.32-.08,.46,0l7.73,4.46c.14,.08,.23,.23,.23,.39v8.87c0,.16-.09,.31-.23,.39-.07,.04-.15,.06-.23,.06Zm-7.28-5.18l6.82,3.94v-7.82l-6.82-3.94v7.82Z"/><path class="cls-24" d="M188.44,99.98c-.38-.63-.59-1.33-.61-2.11,0-.16,0-.42,0-.78s0-.62,0-.78c.02-.73,.23-1.2,.62-1.39,.39-.19,.93-.09,1.62,.31,.45,.26,.85,.58,1.18,.95,.34,.37,.6,.77,.78,1.18,.19,.42,.28,.82,.29,1.21v.02s-.02,.08-.05,.09c-.03,.01-.07,0-.11-.02l-.74-.43c-.06-.03-.11-.08-.14-.13s-.06-.12-.08-.22c-.08-.4-.21-.74-.4-.99-.19-.26-.44-.48-.75-.65-.73-.42-1.11-.17-1.14,.74,0,.15,0,.39,0,.72s0,.58,0,.75c.03,.95,.41,1.64,1.14,2.06,.3,.18,.55,.25,.74,.21,.19-.04,.32-.22,.4-.53,.02-.07,.05-.11,.08-.13,.03-.01,.08,0,.14,.03l.74,.43s.08,.07,.12,.12c.03,.05,.05,.11,.04,.15,0,.38-.11,.67-.29,.87-.19,.2-.45,.3-.78,.28-.34-.02-.73-.16-1.18-.42-.7-.41-1.24-.92-1.63-1.56Z"/><polygon class="cls-4" points="173.23 125.12 175.97 129.83 182.97 125.88 181.29 123.6 176.35 128.46 175.44 124.81 173.23 125.12"/><polygon class="cls-4" points="150.15 75.56 152.88 80.27 159.88 76.32 158.21 74.04 153.26 78.9 152.35 75.25 150.15 75.56"/></g><g><path class="cls-12" d="M116.79,139.33l6.04-9.61s11.23,11.48,10.62,12.6c-.6,1.12-16.67-2.98-16.67-2.98Z"/><path class="cls-18" d="M85.61,168.62l37.92-22.61s.32-.18,.45-.23c3.8-2.07,8.75-3.72,8.75-3.72,0,0,.01,0,.01,0,.6-.2,.91-.03,.75,.69-.15,.72-.45,1.16-1.31,1.93,0,0,0,0-.01,0,0,0-5.61,4.64-9.23,7.05-.2,.17-.41,.32-.61,.45-.01,0-.02,.01-.04,.02h0s-32.64,19.67-32.64,19.67l-4.03-3.24Z"/><path class="cls-2" d="M71.66,102.26l50.25,26.82c.65,.35,1.2,.86,1.59,1.48l1.01,1.59c.37,.59-.04,1.35-.74,1.36l-2.08-.27-51.86-27.32,1.83-3.66Z"/><path class="cls-24" d="M70.36,105.58l51.46,27.62,.38,2.24c.25,.53-.08,1.16-.67,1.24l-2.43,.34-50.55-27.03,1.81-4.41Z"/><path class="cls-2" d="M68.55,109.99l-2.57,2.27,50.38,26.92c.58,.31,1.27,.32,1.85,.04l.92-.44c.46-.12,.67-.66,.42-1.06l-.44-.69-50.55-27.03Z"/><path class="cls-4" d="M131.03,138.61c-.3,1.32-.89,2.52-1.69,3.54,2.24,.36,3.94,.51,4.13,.15,.2-.37-.89-1.86-2.43-3.7Z"/><polygon class="cls-12" points="69.95 110.76 66.02 112.2 65.29 108.06 67.66 103.94 71.75 102.29 72.32 106.63 69.95 110.76"/><path class="cls-4" d="M67.74,109.19c.58,.31,1.49-.24,2.03-1.25,.54-1,.5-2.07-.08-2.38-.58-.31-1.49,.24-2.03,1.25-.54,1-.5,2.07,.08,2.38Z"/></g><g><path class="cls-26" d="M215.04,83.91v-4.33c0-2.65-1.61-5.73-3.6-6.88L138.08,30.26c-.79-.45-1.51-.54-2.11-.31-.08,.03-1.08,.56-1.15,.6,0,0,0,0,0,0,.61-.3,1.39-.24,2.24,.25l73.36,42.44c1.99,1.15,3.6,4.23,3.6,6.88v4.33l1.02-.54Z"/><path class="cls-23" d="M210.41,73.25L137.06,30.81c-1.99-1.15-3.6,.07-3.6,2.72v4.25l80.56,46.6v-4.25c0-2.65-1.61-5.73-3.6-6.88Z"/><path class="cls-5" d="M150.23,43.08c0,.98-.69,1.38-1.55,.88-.85-.49-1.55-1.69-1.55-2.67s.69-1.38,1.55-.88c.85,.49,1.55,1.69,1.55,2.67Z"/><path class="cls-5" d="M145.35,40.36c0,.98-.69,1.38-1.55,.88-.85-.49-1.55-1.69-1.55-2.67s.69-1.38,1.55-.88c.85,.49,1.55,1.69,1.55,2.67Z"/><path class="cls-5" d="M140.43,37.57c0,.98-.69,1.38-1.55,.88-.85-.49-1.55-1.69-1.55-2.67s.69-1.38,1.55-.88c.85,.49,1.55,1.69,1.55,2.67Z"/></g><g><path class="cls-9" d="M206.49,100.31c0,8.73,6.19,19.41,13.8,23.8,2.08,1.2,4.14,1.84,5.95,1.84,4.3,0,6.98-3.53,6.98-9.2,0-8.73-6.19-19.41-13.8-23.8-2.08-1.2-4.14-1.84-5.95-1.84-4.3,0-6.98,3.53-6.98,9.2Z"/><path class="cls-26" d="M220.44,124.96c-8.09-4.67-15.26-16.94-15.26-26.23,0-6.65,5.39-10.49,10.68-10.49,2.15,0,4.44,.7,6.82,2.07,8.09,4.67,14.67,16.02,14.67,25.3,0,6.65-5.5,11.81-10.8,11.81-2.15,0-3.73-1.09-6.11-2.47Zm-12.93-25.3c0,8.73,6.19,19.41,13.8,23.8,2.08,1.2,4.14,1.84,5.95,1.84,4.3,0,6.98-3.53,6.98-9.2,0-8.73-6.19-19.41-13.8-23.8-2.08-1.2-4.14-1.84-5.95-1.84-4.3,0-6.98,3.53-6.98,9.2Z"/><path class="cls-9" d="M219.64,125.51c-8.09-4.67-14.67-16.02-14.67-25.3,0-6.65,3.42-10.94,8.71-10.94,2.15,0,4.44,.7,6.82,2.07,8.09,4.67,14.67,16.02,14.67,25.3,0,6.65-3.42,10.94-8.71,10.94-2.15,0-4.44-.7-6.82-2.07Zm-12.93-25.3c0,8.73,6.19,19.41,13.8,23.8,2.08,1.2,4.14,1.84,5.95,1.84,4.3,0,6.98-3.53,6.98-9.2,0-8.73-6.19-19.41-13.8-23.8-2.08-1.2-4.14-1.84-5.95-1.84-4.3,0-6.98,3.53-6.98,9.2Z"/><path class="cls-22" d="M219.42,125.62c-8.09-4.67-14.67-16.02-14.67-25.3,0-6.65,3.42-10.94,8.71-10.94,2.15,0,4.44,.7,6.82,2.07,8.09,4.67,14.67,16.02,14.67,25.3,0,6.65-3.42,10.94-8.71,10.94-2.15,0-4.44-.7-6.82-2.07Zm-12.93-25.3c0,8.73,6.19,19.41,13.8,23.8,2.08,1.2,4.14,1.84,5.95,1.84,4.3,0,6.98-3.53,6.98-9.2,0-8.73-6.19-19.41-13.8-23.8-2.08-1.2-4.14-1.84-5.95-1.84-4.3,0-6.98,3.53-6.98,9.2Z"/></g><g><path class="cls-9" d="M212.92,136.58c0,5.08,3.6,11.29,8.03,13.84,1.21,.7,2.41,1.07,3.46,1.07,2.5,0,4.06-2.05,4.06-5.35,0-5.08-3.6-11.29-8.03-13.84-1.21-.7-2.41-1.07-3.46-1.07-2.5,0-4.06,2.05-4.06,5.35Z"/><path class="cls-19" d="M221.04,150.92c-4.71-2.72-8.88-9.86-8.88-15.26,0-3.87,3.13-6.1,6.21-6.1,1.25,0,2.58,.41,3.97,1.2,4.71,2.72,8.53,9.32,8.53,14.72,0,3.87-3.2,6.87-6.28,6.87-1.25,0-2.17-.64-3.56-1.44Zm-7.52-14.72c0,5.08,3.6,11.29,8.03,13.84,1.21,.7,2.41,1.07,3.46,1.07,2.5,0,4.06-2.05,4.06-5.35,0-5.08-3.6-11.29-8.03-13.84-1.21-.7-2.41-1.07-3.46-1.07-2.5,0-4.06,2.05-4.06,5.35Z"/><path class="cls-9" d="M220.57,151.24c-4.71-2.72-8.53-9.32-8.53-14.72,0-3.87,1.99-6.36,5.07-6.36,1.25,0,2.58,.41,3.97,1.2,4.71,2.72,8.53,9.32,8.53,14.72,0,3.87-1.99,6.36-5.07,6.36-1.25,0-2.58-.41-3.97-1.2Zm-7.52-14.72c0,5.08,3.6,11.29,8.03,13.84,1.21,.7,2.41,1.07,3.46,1.07,2.5,0,4.06-2.05,4.06-5.35,0-5.08-3.6-11.29-8.03-13.84-1.21-.7-2.41-1.07-3.46-1.07-2.5,0-4.06,2.05-4.06,5.35Z"/><path class="cls-7" d="M220.44,151.3c-4.71-2.72-8.53-9.32-8.53-14.72,0-3.87,1.99-6.36,5.07-6.36,1.25,0,2.58,.41,3.97,1.2,4.71,2.72,8.53,9.32,8.53,14.72,0,3.87-1.99,6.36-5.07,6.36-1.25,0-2.58-.41-3.97-1.2Zm-7.52-14.72c0,5.08,3.6,11.29,8.03,13.84,1.21,.7,2.41,1.07,3.46,1.07,2.5,0,4.06-2.05,4.06-5.35,0-5.08-3.6-11.29-8.03-13.84-1.21-.7-2.41-1.07-3.46-1.07-2.5,0-4.06,2.05-4.06,5.35Z"/><path class="cls-19" d="M216.63,134.51l3.11,1.04s1.29,3.63,1.61,4.37l.04,.02c.26-.36,1.48-2.58,1.48-2.58l3.02,2.5-2.94,2.33,2.98,6.14-3.15-.82s-1.3-3.97-1.59-4.71l-1.57,2.89-3.05-2.76,3.04-2.55-2.96-5.86Z"/><path class="cls-8" d="M216.18,134.57l3.11,1.04s1.29,3.63,1.61,4.37l.04,.02c.26-.36,1.48-2.58,1.48-2.58l3.02,2.5-2.94,2.33,2.98,6.14-3.15-.82s-1.3-3.97-1.59-4.71l-1.57,2.89-3.05-2.76,3.04-2.55-2.96-5.86Z"/></g><g><path class="cls-9" d="M246.79,82.78c0,7.23,5.13,16.08,11.43,19.71,1.73,1,3.43,1.52,4.93,1.52,3.56,0,5.78-2.92,5.78-7.62,0-7.23-5.13-16.08-11.43-19.71-1.73-1-3.43-1.52-4.93-1.52-3.56,0-5.78,2.92-5.78,7.62Z"/><path class="cls-20" d="M258.34,103.2c-6.7-3.87-12.64-14.03-12.64-21.73,0-5.5,4.46-8.69,8.85-8.69,1.78,0,3.68,.58,5.65,1.72,6.7,3.87,12.15,13.27,12.15,20.96,0,5.5-4.56,9.78-8.94,9.78-1.78,0-3.09-.91-5.07-2.04Zm-10.71-20.96c0,7.23,5.13,16.08,11.43,19.71,1.73,1,3.43,1.52,4.93,1.52,3.56,0,5.78-2.92,5.78-7.62,0-7.23-5.13-16.08-11.43-19.71-1.73-1-3.43-1.52-4.93-1.52-3.56,0-5.78,2.92-5.78,7.62Z"/><path class="cls-9" d="M257.68,103.65c-6.7-3.87-12.15-13.27-12.15-20.96,0-5.5,2.83-9.06,7.22-9.06,1.78,0,3.68,.58,5.65,1.72,6.7,3.87,12.15,13.27,12.15,20.96,0,5.5-2.83,9.06-7.22,9.06-1.78,0-3.68-.58-5.65-1.72Zm-10.71-20.96c0,7.23,5.13,16.08,11.43,19.71,1.73,1,3.43,1.52,4.93,1.52,3.56,0,5.78-2.92,5.78-7.62,0-7.23-5.13-16.08-11.43-19.71-1.73-1-3.43-1.52-4.93-1.52-3.56,0-5.78,2.92-5.78,7.62Z"/><path class="cls-16" d="M257.5,103.74c-6.7-3.87-12.15-13.27-12.15-20.96,0-5.5,2.83-9.06,7.22-9.06,1.78,0,3.68,.58,5.65,1.72,6.7,3.87,12.15,13.27,12.15,20.96,0,5.5-2.83,9.06-7.22,9.06-1.78,0-3.68-.58-5.65-1.72Zm-10.71-20.96c0,7.23,5.13,16.08,11.43,19.71,1.73,1,3.43,1.52,4.93,1.52,3.56,0,5.78-2.92,5.78-7.62,0-7.23-5.13-16.08-11.43-19.71-1.73-1-3.43-1.52-4.93-1.52-3.56,0-5.78,2.92-5.78,7.62Z"/><path class="cls-20" d="M261.88,92.06c-.67-.57-1.28-1.3-1.76-2.11-.29-.49-.28-1.02,0-1.18,.37-.21,.69-.55,.9-1,.31,.09,.69-.03,.69-.45s-.19-.9-.45-1.14c-.08-1.85-.71-3.75-2.83-4.97-2.13-1.23-2.76-.06-2.83,1.7-.25-.06-.45,.19-.45,.62s.38,.98,.69,1.25c.21,.69,.53,1.41,.9,2.04,.28,.49,.29,1.03,0,1.18-.48,.25-1.09,.28-1.76,.08-.89-.27-1.56,.27-1.56,1.37v1.91c0,.37,.26,.82,.58,1.01l8.84,5.1c.32,.19,.58,.04,.58-.33v-1.91c0-1.1-.66-2.4-1.56-3.16Z"/><path class="cls-16" d="M261.47,92.31c-.67-.57-1.28-1.3-1.76-2.11-.29-.49-.28-1.02,0-1.18,.37-.21,.69-.55,.9-1,.31,.09,.69-.03,.69-.45s-.19-.9-.45-1.14c-.08-1.85-.71-3.75-2.83-4.97-2.13-1.23-2.76-.06-2.83,1.7-.25-.06-.45,.19-.45,.62s.38,.98,.69,1.25c.21,.69,.53,1.41,.9,2.04,.28,.49,.29,1.03,0,1.18-.48,.25-1.09,.28-1.76,.07-.89-.27-1.56,.27-1.56,1.37v1.91c0,.37,.26,.82,.58,1.01l8.84,5.1c.32,.19,.58,.04,.58-.33v-1.91c0-1.1-.66-2.4-1.56-3.16Z"/></g><g><path class="cls-9" d="M224.96,43.75c0,5.56,3.94,12.35,8.79,15.15,1.33,.77,2.64,1.17,3.79,1.17,2.74,0,4.44-2.24,4.44-5.86,0-5.56-3.94-12.36-8.79-15.15-1.33-.77-2.64-1.17-3.79-1.17-2.74,0-4.44,2.24-4.44,5.86Z"/><path class="cls-20" d="M233.84,59.44c-5.15-2.97-9.72-10.79-9.72-16.7,0-4.23,3.43-6.68,6.8-6.68,1.37,0,2.83,.44,4.34,1.32,5.15,2.97,9.34,10.2,9.34,16.11,0,4.23-3.5,7.52-6.87,7.52-1.37,0-2.38-.7-3.89-1.57Zm-8.23-16.11c0,5.56,3.94,12.35,8.79,15.15,1.33,.77,2.64,1.17,3.79,1.17,2.74,0,4.44-2.24,4.44-5.86,0-5.56-3.94-12.35-8.79-15.15-1.33-.77-2.64-1.17-3.79-1.17-2.74,0-4.44,2.24-4.44,5.86Z"/><path class="cls-9" d="M233.33,59.79c-5.15-2.97-9.34-10.2-9.34-16.11,0-4.23,2.18-6.96,5.55-6.96,1.37,0,2.83,.44,4.34,1.32,5.15,2.97,9.34,10.2,9.34,16.11,0,4.23-2.18,6.96-5.55,6.96-1.37,0-2.83-.44-4.34-1.32Zm-8.23-16.11c0,5.56,3.94,12.35,8.79,15.15,1.33,.77,2.64,1.17,3.79,1.17,2.74,0,4.44-2.24,4.44-5.86,0-5.56-3.94-12.35-8.79-15.15-1.33-.77-2.64-1.17-3.79-1.17-2.74,0-4.44,2.24-4.44,5.86Z"/><path class="cls-16" d="M233.19,59.86c-5.15-2.97-9.34-10.2-9.34-16.11,0-4.23,2.18-6.96,5.55-6.96,1.37,0,2.83,.44,4.34,1.32,5.15,2.97,9.34,10.2,9.34,16.11,0,4.23-2.18,6.96-5.55,6.96-1.37,0-2.83-.44-4.34-1.32Zm-8.23-16.11c0,5.56,3.94,12.35,8.79,15.15,1.33,.77,2.64,1.17,3.79,1.17,2.74,0,4.44-2.24,4.44-5.86,0-5.56-3.94-12.36-8.79-15.15-1.33-.77-2.64-1.17-3.79-1.17-2.74,0-4.44,2.24-4.44,5.86Z"/><path class="cls-20" d="M232.39,53.25s.07,0,.1-.01l5.71-1.32c.44-.1,.44-.85,0-1.46l-5.71-7.92c-.25-.35-.56-.53-.8-.53s-.43,.18-.43,.55v9.24c0,.68,.62,1.45,1.12,1.45h0Z"/><path class="cls-16" d="M231.97,53.43s.07,0,.1-.01l5.71-1.32c.44-.1,.44-.85,0-1.46l-5.71-7.92c-.25-.35-.56-.53-.8-.53s-.43,.18-.43,.55v9.24c0,.68,.62,1.45,1.12,1.45h0Z"/></g><g><path class="cls-9" d="M262.51,46.86c0,4.55,3.23,10.12,7.2,12.41,1.09,.63,2.16,.96,3.11,.96,2.24,0,3.64-1.84,3.64-4.8,0-4.55-3.23-10.12-7.2-12.41-1.09-.63-2.16-.96-3.11-.96-2.24,0-3.64,1.84-3.64,4.8Z"/><path class="cls-8" d="M281.77,54.88c-.28,0-.5-.22-.5-.5,0-.55-.04-1.12-.11-1.7-.03-.27,.16-.52,.43-.56,.27-.03,.52,.16,.56,.43,.08,.62,.12,1.23,.12,1.82,0,.28-.22,.5-.5,.5Zm-.76-4.69c-.21,0-.41-.14-.48-.35-.19-.61-.41-1.22-.67-1.83-.11-.25,.01-.55,.27-.65,.25-.11,.55,.01,.66,.27,.27,.64,.51,1.29,.7,1.92,.08,.26-.07,.54-.33,.63-.05,.02-.1,.02-.15,.02Zm-2.05-4.55c-.17,0-.34-.09-.43-.24-.33-.56-.7-1.11-1.08-1.63-.16-.22-.12-.54,.11-.7,.22-.16,.54-.12,.7,.11,.4,.55,.78,1.12,1.13,1.71,.14,.24,.06,.54-.17,.69-.08,.05-.17,.07-.26,.07Zm-3.05-3.95c-.13,0-.26-.05-.36-.15-.46-.47-.95-.91-1.44-1.3-.22-.17-.25-.49-.08-.7,.17-.22,.49-.25,.7-.08,.52,.42,1.04,.88,1.53,1.38,.19,.2,.19,.51,0,.71-.1,.1-.22,.14-.35,.14Zm-14.73-.61c-.1,0-.2-.03-.29-.09-.23-.16-.28-.47-.12-.7,.4-.58,.89-1.1,1.44-1.57,.21-.18,.53-.15,.7,.06,.18,.21,.15,.53-.06,.7-.48,.41-.91,.87-1.26,1.37-.1,.14-.25,.21-.41,.21Zm10.73-2.35c-.08,0-.15-.02-.22-.05-.6-.29-1.19-.53-1.78-.69-.27-.07-.42-.35-.35-.62,.07-.27,.35-.42,.62-.35,.64,.18,1.3,.43,1.95,.76,.25,.12,.35,.42,.23,.67-.09,.18-.26,.28-.45,.28Zm-6.78-.59c-.21,0-.4-.13-.47-.34-.09-.26,.05-.55,.31-.64,.67-.23,1.37-.38,2.07-.45,.27-.03,.52,.18,.54,.45,.03,.28-.18,.52-.45,.54-.62,.06-1.24,.19-1.83,.4-.05,.02-.11,.03-.16,.03Z"/><path class="cls-16" d="M282.77,63.53c-.11,0-.22-.03-.31-.11-.22-.17-.26-.48-.09-.7,.39-.51,.75-1.05,1.06-1.6,.13-.24,.44-.33,.68-.19,.24,.14,.33,.44,.19,.68-.34,.6-.72,1.18-1.15,1.73-.1,.13-.25,.19-.39,.19Zm2.28-4.42s-.1,0-.14-.02c-.26-.08-.42-.36-.34-.62,.18-.61,.32-1.24,.41-1.88,.04-.27,.3-.46,.56-.43,.27,.04,.46,.29,.43,.56-.1,.69-.24,1.37-.44,2.03-.07,.22-.26,.36-.48,.36Zm.51-4.95c-.26,0-.48-.2-.5-.47-.04-.63-.12-1.28-.23-1.93-.05-.27,.13-.53,.41-.58,.28-.05,.53,.14,.58,.41,.12,.68,.2,1.37,.25,2.04,.02,.28-.19,.51-.46,.53-.01,0-.02,0-.04,0Zm-.96-4.9c-.21,0-.41-.14-.48-.35-.2-.62-.42-1.24-.67-1.84-.11-.26,.02-.55,.27-.65,.25-.11,.55,.02,.65,.27,.26,.63,.5,1.27,.7,1.92,.08,.26-.06,.54-.32,.63-.05,.02-.1,.02-.15,.02Zm-1.99-4.58c-.17,0-.34-.09-.44-.26-.32-.57-.66-1.14-1.02-1.67-.15-.23-.09-.54,.14-.69,.23-.15,.54-.09,.69,.14,.37,.56,.73,1.15,1.06,1.74,.13,.24,.05,.55-.19,.68-.08,.04-.16,.06-.24,.06Zm-2.85-4.1c-.14,0-.28-.06-.38-.18-.43-.5-.88-.98-1.33-1.43-.2-.19-.2-.51,0-.71,.19-.2,.51-.2,.71,0,.48,.47,.94,.97,1.39,1.5,.18,.21,.15,.53-.06,.7-.09,.08-.21,.12-.32,.12Zm-3.64-3.41c-.1,0-.21-.03-.3-.1-.54-.39-1.08-.75-1.63-1.07-.24-.14-.32-.44-.18-.68,.14-.24,.45-.32,.68-.18,.58,.33,1.15,.71,1.72,1.13,.22,.16,.27,.48,.11,.7-.1,.13-.25,.2-.4,.2Z"/><path class="cls-20" d="M269.78,59.72c-4.22-2.44-7.96-8.84-7.96-13.68,0-3.47,2.81-5.47,5.57-5.47,1.12,0,2.32,.36,3.56,1.08,4.22,2.44,7.65,8.36,7.65,13.2,0,3.47-2.87,6.16-5.63,6.16-1.12,0-1.95-.57-3.19-1.29Zm-6.74-13.2c0,4.55,3.23,10.12,7.2,12.41,1.09,.63,2.16,.96,3.11,.96,2.24,0,3.64-1.84,3.64-4.8,0-4.55-3.23-10.12-7.2-12.41-1.09-.63-2.16-.96-3.11-.96-2.24,0-3.64,1.84-3.64,4.8Z"/><path class="cls-9" d="M269.36,60c-4.22-2.44-7.65-8.36-7.65-13.2,0-3.47,1.78-5.71,4.55-5.71,1.12,0,2.32,.36,3.56,1.08,4.22,2.44,7.65,8.36,7.65,13.2,0,3.47-1.78,5.71-4.55,5.71-1.12,0-2.32-.36-3.56-1.08Zm-6.74-13.2c0,4.55,3.23,10.12,7.2,12.41,1.09,.63,2.16,.96,3.11,.96,2.24,0,3.64-1.84,3.64-4.8,0-4.55-3.23-10.12-7.2-12.41-1.09-.63-2.16-.96-3.11-.96-2.24,0-3.64,1.84-3.64,4.8Z"/><path class="cls-16" d="M269.25,60.06c-4.22-2.44-7.65-8.36-7.65-13.2,0-3.47,1.78-5.71,4.55-5.71,1.12,0,2.32,.36,3.56,1.08,4.22,2.44,7.65,8.36,7.65,13.2,0,3.47-1.78,5.71-4.55,5.71-1.12,0-2.32-.36-3.56-1.08Zm-6.74-13.2c0,4.55,3.23,10.12,7.2,12.41,1.09,.63,2.16,.96,3.11,.96,2.24,0,3.64-1.84,3.64-4.8,0-4.55-3.23-10.12-7.2-12.41-1.09-.63-2.16-.96-3.11-.96-2.24,0-3.64,1.84-3.64,4.8Z"/><path class="cls-20" d="M273.61,53.45l-3.55-2.05v-4.48c0-.44-.31-.98-.7-1.2-.39-.22-.7-.04-.7,.4v6.08l4.94,2.85c.39,.22,.7,.04,.7-.4s-.31-.98-.7-1.2Z"/><path class="cls-16" d="M273.25,53.61l-3.55-2.05v-4.48c0-.44-.31-.98-.7-1.2-.39-.22-.7-.04-.7,.4v6.08l4.94,2.85c.39,.22,.7,.04,.7-.4s-.31-.98-.7-1.2Z"/><polygon class="cls-16" points="282.95 60.05 281.62 64.55 285.62 61.88 282.95 60.05"/></g><g><polygon class="cls-2" points="210.25 103.55 217.39 119.1 229.97 105.88 224.15 100.58 217.39 111.98 214.19 104.32 210.25 103.55"/><polygon class="cls-26" points="195.65 104.93 205.71 126.83 223.44 108.22 215.24 100.75 205.71 116.81 201.21 106.01 195.65 104.93"/><polygon class="cls-23" points="194.16 106.03 204.21 127.93 221.94 109.32 213.74 101.85 204.21 117.91 199.71 107.11 194.16 106.03"/><polygon class="cls-26" points="223.44 108.22 221.94 109.32 204.21 127.93 205.71 126.83 223.44 108.22"/><polygon class="cls-22" points="195.65 104.93 194.16 106.03 199.71 107.11 201.21 106.01 195.65 104.93"/><polygon class="cls-22" points="221.94 109.32 213.74 101.85 215.24 100.75 223.44 108.22 221.94 109.32"/><polygon class="cls-9" points="199.73 106.87 194.16 106.03 199.71 107.11 201.21 106.01 199.73 106.87"/><polygon class="cls-9" points="221.94 109.32 213.74 101.85 221.97 109.02 223.44 108.22 221.94 109.32"/></g></g></g></g></svg>