<?xml version="1.0" encoding="UTF-8"?><svg id="Layer_2" xmlns="http://www.w3.org/2000/svg" viewBox="0 0 1686.74 1107.42"><defs><style>.cls-1{fill:#f8f8ff;}.cls-2{fill:#020202;}.cls-3{fill:#e9845c;}.cls-4{fill:#fff;}.cls-5{fill:#ffba41;}.cls-6{fill:#fdad9b;}.cls-7{fill:#ff443c;}.cls-8{fill:#f22525;}.cls-9{fill:#ff8548;}.cls-10{fill:#66192d;}.cls-11{fill:#e1986c;}.cls-12{fill:#daebe8;}.cls-13{fill:#c8c1e1;}.cls-14{fill:#080435;}.cls-15{fill:#553e93;}.cls-16{fill:#552748;}.cls-17{fill:#786ab5;}.cls-18{fill:#4f1a44;}.cls-19{opacity:.4;}.cls-20{opacity:.5;}</style></defs><g id="_Layer_"><g><ellipse class="cls-13" cx="818.58" cy="968.96" rx="791.25" ry="138.46"/><g><path class="cls-5" d="M357.93,471.8c-7.05,6.32-11.12,5.93-13.56,3.12-2.44-2.81-2.32-6.97,4.73-13.29,12.84-11.52,23.45-12,23.45-12,0,0-1.6,10.48-14.63,22.17Z"/><path class="cls-5" d="M369.17,532.66c-4.65,8.3-8.63,9.27-11.83,7.41-3.2-1.85-4.41-5.83,.24-14.13,8.48-15.12,18.37-19.07,18.37-19.07,0,0,1.82,10.45-6.78,25.79Z"/><g><path class="cls-5" d="M395.78,691.56l-1.77,.19c-.03-.28-3.09-28.17-19.87-66.6-15.48-35.45-46.14-87.38-104.28-133.44l1.09-1.43c58.47,46.31,89.29,98.54,104.85,134.2,16.87,38.67,19.95,66.78,19.98,67.06Z"/><path class="cls-5" d="M331.15,551.05l-1.65-.67c23.8-61.06-9.43-122.9-9.77-123.51l1.55-.88c.34,.62,33.98,63.19,9.87,125.06Z"/><path class="cls-5" d="M299.34,527.46c-17.73,3.51-32.87-2.86-33.04-2.94l.69-1.66c.19,.08,19.58,8.22,39.88,.59l.62,1.7c-2.75,1.03-5.48,1.79-8.15,2.31Z"/><path class="cls-5" d="M266.79,482.06c10.86,6.64,12.55,11.22,10.65,14.43-1.9,3.21-6.67,3.83-17.53-2.81-19.78-12.1-25.91-23.76-25.91-23.76,0,0,12.71-.14,32.78,12.14Z"/><path class="cls-5" d="M269.89,517.85c12.32,3.01,15.29,6.85,14.43,10.49-.86,3.64-5.22,5.7-17.55,2.7-22.45-5.47-31.75-14.71-31.75-14.71,0,0,12.08-4.03,34.86,1.53Z"/><path class="cls-5" d="M311.79,495.64c3.85,8.72,2.28,12.55-1.08,14.09s-7.23,.19-11.08-8.53c-7.02-15.88-4.33-26.33-4.33-26.33,0,0,9.37,4.66,16.49,20.77Z"/><path class="cls-5" d="M323.59,418.07c5.25,11.73,4.1,16.47,.75,18.03-3.35,1.55-7.63-.68-12.89-12.4-9.57-21.36-8.13-34.5-8.13-34.5,0,0,10.56,7.2,20.27,28.87Z"/></g></g><path class="cls-5" d="M502.37,840.33s-18.59-311.91-101.64-303.61c-83.05,8.31,58,206.2,60.59,297.18l41.06,6.43Z"/><g><path class="cls-13" d="M478.18,782.47s-144.97-271.46-230.2-228.19c-85.22,43.27,144.58,159.74,183.84,240.14l46.35-11.95Z"/><path class="cls-4" d="M452.3,789.39c-26.12-56.03-73.22-107.3-108.14-140.44-37.85-35.93-69.91-58.88-70.23-59.11l1.4-2.03c.32,.23,32.52,23.27,70.5,59.32,35.07,33.29,82.39,84.81,108.67,141.19l-2.2,1.06Z"/></g><g><path class="cls-15" d="M82.73,801.2c49.89,7.89,40.29,84.54,97.59,66.99,57.3-17.58,52.63-20.97,79.66,2.29,0,0,10.28,23.43,32.91,26.07,89.28,10.42,213.95-129.96,121.76-197.67-6.66-4.89-16.44-6.34-27.28-7.4-58.82-5.71-77.65,22.59-122.93-44.45-45.3-67.05-110.04,36.85-149.52,35.7-39.49-1.15-74.14-10.98-105.66,32.97-31.53,43.98,23.58,77.65,73.48,85.51Z"/><g><path class="cls-4" d="M384.51,797.38l1.93-2.92c-1.22-.76-124.89-75.87-384.47-66.38l-.14,3.39c258.61-9.45,381.47,65.16,382.68,65.91Z"/><path class="cls-4" d="M224.62,706.32c34.77-33.03,41.21-57.97,41.47-59.02l-3.27-.58c-.06,.25-6.53,25.03-40.41,57.21l2.21,2.38Z"/><path class="cls-4" d="M218.08,743.2c9.91-17.62,9.41-42.12-1.45-70.85-8.13-21.52-19.32-38.1-19.43-38.27l-2.83,2.05c.44,.65,43.58,65.06,20.8,105.57l2.9,1.49Z"/><path class="cls-4" d="M149.83,741.42c4.13-3.67,6.37-6.03,6.48-6.14l-2.37-2.22c-.47,.5-47.7,50.15-116.23,52.19l-.16,3.39c55.22-1.64,96.88-33.54,112.28-47.22Z"/><path class="cls-4" d="M114.85,821.72c15.94-18.48,20.7-36.27,21.88-47.94,1.29-12.71-1.2-20.95-1.31-21.3l-3.23,1.23c.1,.32,9.36,32.07-19.82,65.9l2.47,2.11Z"/></g></g><path class="cls-13" d="M1037.92,824.6s29.54-308.48,114.23-297.74c84.7,10.74-66.3,202.55-72.01,292.61l-42.22,5.13Z"/><g><path class="cls-15" d="M1064.29,794.37s148.92-289,242.34-246.49c93.43,42.51-151.74,172.01-191.86,257.48l-50.48-10.99Z"/><path class="cls-4" d="M1092.48,800.77c26.62-59.52,76.08-114.75,112.88-150.61,39.9-38.87,73.91-63.95,74.24-64.2l-1.57-2.08c-.34,.25-34.5,25.44-74.52,64.43-36.96,36.01-86.65,91.51-113.44,151.41l2.41,1.04Z"/></g><g><path class="cls-5" d="M1592.86,764.52c-59.56,18.24-39.68,107.68-110.95,97-60.28-9.07-65.8-13.94-84.34,4.41-6.36,6.29-11.64,13.52-15.92,21.33-5.13,9.35-15.47,23.37-32.98,28-106.98,28.26-273.03-116.5-168.71-213.41,7.53-7,19.23-10.46,32.24-13.65,70.6-17.24,96.45,13.06,144.06-74.7,47.63-87.78,137.19,24.26,184.88,15.87,47.69-8.39,88.59-26.23,131.48,20.42,42.91,46.69-20.19,96.53-79.76,114.73Z"/><g class="cls-20"><path class="cls-4" d="M1227.07,813.61l-2.65-3.13c1.39-1.12,143.05-112.41,458.37-147.26l.53,4.01c-314.13,34.73-454.86,145.28-456.25,146.39Z"/><path class="cls-4" d="M1505.19,705.36c-5.4-3.63-8.37-6.04-8.5-6.15l2.63-3.06c.62,.51,63.16,51.15,146.34,41.4l.56,4c-67.03,7.86-120.91-22.66-141.03-36.19Z"/><path class="cls-4" d="M1556.19,794.63c-21.29-19.14-28.96-39.45-31.65-53.11-2.93-14.88-.8-25.12-.71-25.55l4.04,.89c-.08,.39-7.88,39.8,31.09,74.84l-2.77,2.95Z"/></g></g><path class="cls-5" d="M1257.75,476.45c12.54-10.45,19.7-9.51,23.94-4.52,4.24,4.99,3.94,12.14-8.6,22.59-22.84,19.03-41.56,19.2-41.56,19.2,0,0,3.04-17.96,26.22-37.27Z"/><path class="cls-5" d="M1643.17,816.74c17.67-.43,23.12,4.97,23.35,11.8,.24,6.83-4.83,12.49-22.5,12.93-32.19,.79-48.17-11.19-48.17-11.19,0,0,14.66-12.73,47.32-13.54Z"/><g><path class="cls-13" d="M123.12,988.23s-32.52-33.7-21.33-52.9c11.19-19.2,30.07,41.24,30.07,41.24,0,0-9.79-71.46,10.49-72.7,20.28-1.24,0,72.7,0,72.7,0,0,7.52-17.24,14.86-18.31,7.34-1.07,5.24,14.62-7.87,29.97h-26.22Z"/><path class="cls-15" d="M125.44,989.06c-.09-.1-9.4-9.79-17.01-22.03-10.38-16.7-12.86-29.96-7.35-39.4,2.05-3.52,4.53-5.14,7.34-4.83,5.7,.64,12.11,9.39,19.6,26.75,2.25,5.22,4.25,10.43,5.81,14.74-.57-6.05-1.18-14.03-1.4-22.43-.62-23.67,1.98-39.21,7.72-46.21,2.18-2.66,4.84-4.11,7.9-4.3,2.99-.18,5.44,.89,7.3,3.18,9.21,11.34,.96,51.94-3.57,70.94,3.37-5.55,8.15-11.7,13.03-12.41,2.3-.33,4.13,.52,5.17,2.41,3.02,5.47-1.03,19.51-13.01,33.55l-1.82-1.56c11.79-13.81,14.97-26.78,12.74-30.83-.56-1.01-1.42-1.39-2.73-1.2-6.28,.91-13.63,14.79-15.93,20.06l-2.26-.8c.05-.16,4.51-16.51,7.49-34.39,3.9-23.37,3.57-38.68-.97-44.26-1.36-1.68-3.1-2.43-5.29-2.29-2.4,.15-4.42,1.27-6.19,3.42-12.9,15.74-4.68,77.06-4.59,77.68l-2.33,.52c-4.25-13.59-17.36-49.1-26.93-50.18-1.8-.2-3.44,.99-4.99,3.65-12.09,20.75,23.65,58.19,24.02,58.56l-1.73,1.66Z"/></g><g><g><path class="cls-10" d="M1159.66,442.06l30.09-47.27c4.1-6.44,4.5-14,1.08-20.74-3.67-7.24-10.98-11.9-19.53-12.46l-421.05-27.45c-11.88-.77-22.54-5.97-30.03-14.63-6.86-7.94-10.19-17.95-9.38-28.18l17.33-216.75c1.72-21.53,21.06-37.94,44.02-37.32l806.55,21.22c22.13,.58,40.24,17.31,41.24,38.08l12.03,250.02c.53,11.08-3.68,21.62-11.85,29.65-8.86,8.71-21.26,13.23-34.01,12.4l-238.86-15.57c-21.03-1.37-42.19,2.49-61.18,11.18l-126.45,57.81ZM770.96,38.95c-21.55,0-39.49,15.51-41.11,35.78l-17.33,216.75c-.78,9.78,2.4,19.35,8.97,26.94,7.19,8.32,17.44,13.31,28.87,14.05l421.05,27.45c9.15,.6,16.98,5.6,20.92,13.38,3.64,7.17,3.2,15.55-1.16,22.41l-27.03,42.45,121.26-55.44c19.25-8.8,40.69-12.72,62-11.33l238.86,15.57c12.28,.81,24.19-3.54,32.71-11.92,7.83-7.7,11.86-17.77,11.35-28.37l-12.03-250.02c-.96-19.89-18.35-35.91-39.6-36.47l-806.55-21.22c-.39-.01-.79-.02-1.18-.02Z"/><path class="cls-9" d="M1595.35,321.28l-32.35-242.4c-2.65-19.85-21.74-34.52-43.85-33.69l-816.65,30.5c-22.72,.85-40.66,17.73-40.66,38.27v211.9c0,21.16,18.99,38.31,42.41,38.31h427.65c18.39,0,30.33,17.49,22.09,32.33l-25.23,45.44,120.57-62.92c18.64-9.73,39.79-14.85,61.32-14.85h242.6c25.43,0,45.15-20.08,42.1-42.89Z"/></g><g><path class="cls-1" d="M848.67,212.05l-23.54,18.82c-3,2.4-4.14,6.48-2.82,10.12l10.33,28.58c2.94,8.14-6.08,15.35-13.16,10.52l-24.88-16.95c-3.17-2.16-7.34-2-10.34,.4l-23.54,18.82c-6.7,5.36-16.24-1.13-13.91-9.48l8.16-29.29c1.04-3.73-.4-7.72-3.57-9.88l-24.88-16.95c-7.08-4.83-3.96-16.05,4.57-16.38l29.92-1.16c3.81-.15,7.1-2.77,8.14-6.5l8.16-29.29c2.33-8.34,13.79-8.79,16.73-.65l10.33,28.58c1.32,3.64,4.79,6,8.6,5.86l29.92-1.16c8.52-.33,12.48,10.62,5.78,15.98Z"/><path class="cls-1" d="M1015.99,212.05l-23.54,18.82c-3,2.4-4.14,6.48-2.82,10.12l10.33,28.58c2.94,8.14-6.08,15.35-13.16,10.52l-24.88-16.95c-3.17-2.16-7.34-2-10.34,.4l-23.54,18.82c-6.7,5.36-16.24-1.13-13.91-9.48l8.16-29.29c1.04-3.73-.4-7.72-3.57-9.88l-24.88-16.95c-7.08-4.83-3.96-16.05,4.57-16.38l29.92-1.16c3.81-.15,7.1-2.77,8.14-6.5l8.16-29.29c2.33-8.34,13.79-8.79,16.73-.65l10.33,28.58c1.32,3.64,4.79,6,8.6,5.86l29.92-1.16c8.52-.33,12.48,10.62,5.78,15.98Z"/><path class="cls-1" d="M1183.31,212.05l-23.54,18.82c-3,2.4-4.14,6.48-2.82,10.12l10.33,28.58c2.94,8.14-6.08,15.35-13.16,10.52l-24.88-16.95c-3.17-2.16-7.34-2-10.34,.4l-23.54,18.82c-6.7,5.36-16.24-1.13-13.91-9.48l8.16-29.29c1.04-3.73-.4-7.72-3.57-9.88l-24.88-16.95c-7.09-4.83-3.96-16.05,4.57-16.38l29.92-1.16c3.81-.15,7.1-2.77,8.14-6.5l8.16-29.29c2.33-8.34,13.79-8.79,16.73-.65l10.33,28.58c1.32,3.64,4.79,6,8.6,5.86l29.92-1.16c8.52-.33,12.48,10.62,5.78,15.98Z"/><path class="cls-1" d="M1257.26,285.35c-1.85,0-3.71-.55-5.38-1.65-3.69-2.44-5.3-6.79-4.1-11.09l8.16-29.29c.92-3.32-.35-6.83-3.16-8.74l-24.87-16.95c-3.63-2.47-5.19-6.83-3.96-11.09,1.21-4.2,4.77-7.01,9.07-7.18l29.92-1.16c3.37-.13,6.26-2.44,7.18-5.75l8.16-29.29c1.18-4.25,4.76-7.1,9.1-7.26,4.34-.15,8.11,2.4,9.6,6.54l10.33,28.58c1.17,3.23,4.24,5.31,7.58,5.17l29.92-1.16c4.29-.17,8.06,2.36,9.58,6.44,1.55,4.16,.33,8.63-3.11,11.38l-23.54,18.82c-2.66,2.13-3.66,5.73-2.49,8.96l10.33,28.58c1.52,4.2,.23,8.66-3.27,11.38-3.4,2.64-7.9,2.78-11.45,.35l-24.87-16.95c-2.8-1.91-6.46-1.77-9.11,.35l-23.54,18.82c-1.81,1.44-3.94,2.17-6.08,2.17Zm30.5-127.38c-.1,0-.2,0-.29,0-2.73,.1-6.05,1.67-7.19,5.75l-8.16,29.29c-1.16,4.18-4.82,7.1-9.09,7.26l-29.92,1.16c-4.12,.16-6.4,3.04-7.16,5.68-.97,3.39,.26,6.85,3.14,8.81l24.87,16.95c3.55,2.41,5.15,6.84,3.98,11.01l-8.16,29.29c-.95,3.42,.32,6.87,3.25,8.81,2.25,1.49,5.8,2.16,9.02-.42l23.54-18.82c3.36-2.69,8.01-2.87,11.57-.45l24.87,16.95c3.4,2.32,6.89,1.37,9.02-.28,2.78-2.16,3.79-5.7,2.59-9.04l-10.33-28.58c-1.47-4.07-.21-8.6,3.15-11.28l23.54-18.82c2.73-2.18,3.7-5.73,2.47-9.04-.96-2.57-3.48-5.27-7.56-5.1l-29.92,1.16c-4.27,.16-8.14-2.46-9.61-6.54l-10.33-28.58c-1.38-3.83-4.61-5.18-7.28-5.18Z"/><path class="cls-1" d="M1424.58,285.35c-1.85,0-3.71-.55-5.38-1.65-3.69-2.44-5.3-6.79-4.1-11.09l8.16-29.29c.92-3.31-.35-6.83-3.16-8.74l-24.88-16.95c-3.63-2.47-5.19-6.83-3.96-11.09,1.21-4.2,4.77-7.01,9.07-7.18l29.92-1.16c3.37-.13,6.26-2.44,7.18-5.75l8.16-29.29c1.18-4.25,4.76-7.1,9.1-7.26,4.35-.16,8.11,2.4,9.6,6.54l10.33,28.58c1.17,3.23,4.22,5.31,7.58,5.17l29.92-1.16c4.29-.17,8.05,2.36,9.58,6.44,1.55,4.16,.33,8.63-3.11,11.38l-23.54,18.82c-2.66,2.13-3.66,5.73-2.49,8.96l10.33,28.58c1.52,4.19,.23,8.66-3.27,11.38-3.4,2.64-7.9,2.78-11.45,.35l-24.87-16.95c-2.8-1.91-6.46-1.77-9.11,.35l-23.54,18.82c-1.81,1.44-3.94,2.17-6.08,2.17Zm30.5-127.38c-.1,0-.2,0-.29,0-2.73,.1-6.05,1.67-7.19,5.75l-8.16,29.29c-1.16,4.18-4.82,7.1-9.09,7.26l-29.92,1.16c-4.12,.16-6.4,3.04-7.16,5.68-.97,3.39,.26,6.85,3.14,8.81l24.88,16.95c3.54,2.42,5.15,6.84,3.98,11.01l-8.16,29.29c-.95,3.42,.32,6.87,3.25,8.81,2.25,1.49,5.8,2.16,9.02-.42l23.54-18.82c3.36-2.69,8.01-2.87,11.57-.45l24.87,16.95c3.4,2.32,6.89,1.37,9.02-.28,2.78-2.16,3.79-5.7,2.59-9.04l-10.33-28.58c-1.47-4.07-.21-8.6,3.15-11.28l23.54-18.82c2.73-2.18,3.7-5.73,2.47-9.04-.96-2.57-3.47-5.27-7.56-5.1l-29.92,1.16c-4.27,.16-8.14-2.46-9.61-6.54l-10.33-28.58c-1.38-3.83-4.61-5.18-7.28-5.18Z"/></g></g><g><path class="cls-13" d="M419,1035.88s-32.52-33.7-21.33-52.9c11.19-19.2,30.07,41.24,30.07,41.24,0,0-9.79-71.46,10.49-72.7,20.28-1.24,0,72.7,0,72.7,0,0,7.52-17.24,14.86-18.31,7.34-1.07,5.24,14.62-7.87,29.97h-26.22Z"/><path class="cls-15" d="M421.31,1036.72c-.09-.1-9.4-9.79-17.01-22.04-10.38-16.7-12.86-29.96-7.35-39.4,2.05-3.52,4.52-5.15,7.34-4.83,5.7,.64,12.11,9.39,19.6,26.75,2.25,5.21,4.25,10.43,5.81,14.74-.57-6.05-1.18-14.03-1.4-22.43-.62-23.67,1.98-39.21,7.72-46.21,2.18-2.66,4.84-4.11,7.9-4.3,2.99-.19,5.44,.89,7.3,3.18,9.21,11.33,.96,51.94-3.57,70.94,3.37-5.55,8.15-11.7,13.03-12.41,2.3-.34,4.13,.52,5.17,2.41,3.02,5.47-1.02,19.51-13.01,33.55l-1.82-1.56c11.79-13.81,14.97-26.78,12.74-30.83-.56-1.01-1.42-1.39-2.73-1.2-6.28,.91-13.63,14.79-15.93,20.06l-2.26-.8c.05-.16,4.51-16.51,7.49-34.39,3.9-23.38,3.57-38.68-.97-44.26-1.36-1.68-3.1-2.43-5.29-2.29-2.4,.15-4.42,1.27-6.19,3.42-12.9,15.74-4.68,77.06-4.59,77.67l-2.33,.52c-4.25-13.59-17.36-49.1-26.93-50.18-1.8-.2-3.44,.99-4.99,3.65-12.09,20.75,23.65,58.19,24.02,58.57l-1.73,1.66Z"/></g><g><path class="cls-13" d="M1394.08,1036.56s-35.62-36.92-23.36-57.95c12.26-21.03,32.94,45.17,32.94,45.17,0,0-10.72-78.28,11.49-79.63,22.21-1.36,0,79.63,0,79.63,0,0,8.23-18.89,16.28-20.05,8.04-1.17,5.74,16.01-8.62,32.83h-28.72Z"/><path class="cls-15" d="M1396.61,1037.47c-.1-.11-10.29-10.72-18.63-24.14-11.37-18.3-14.08-32.82-8.06-43.16,2.25-3.86,4.94-5.64,8.04-5.29,10.45,1.18,21.89,28.81,27.82,45.27-.62-6.6-1.27-15.28-1.51-24.4-.68-25.92,2.17-42.95,8.45-50.62,2.39-2.92,5.3-4.5,8.65-4.71,3.27-.21,5.96,.97,7.99,3.48,10.09,12.42,1.05,56.89-3.91,77.71,3.69-6.07,8.92-12.82,14.27-13.6,2.52-.37,4.52,.57,5.67,2.64,3.31,5.99-1.12,21.37-14.25,36.75l-2-1.71c12.92-15.12,16.4-29.33,13.95-33.77-.61-1.1-1.56-1.52-2.99-1.31-6.89,1-14.93,16.2-17.45,21.97l-2.47-.87c.05-.18,4.94-18.09,8.2-37.67,4.27-25.6,3.91-42.37-1.06-48.49-1.49-1.84-3.39-2.65-5.79-2.51-2.62,.16-4.84,1.39-6.78,3.75-14.13,17.24-5.12,84.41-5.03,85.08l-2.56,.57c-4.65-14.89-19.02-53.78-29.5-54.97-1.98-.21-3.77,1.09-5.47,4-13.25,22.73,25.91,63.74,26.31,64.15l-1.89,1.82Z"/></g><g><path class="cls-13" d="M999.71,1033.4s-28.58-29.63-18.75-46.5c9.84-16.88,26.43,36.25,26.43,36.25,0,0-8.61-62.82,9.22-63.91,17.83-1.09,0,63.91,0,63.91,0,0,6.61-15.16,13.06-16.09,6.45-.94,4.61,12.85-6.92,26.35h-23.05Z"/><path class="cls-15" d="M1001.74,1034.13c-.08-.08-8.26-8.61-14.95-19.37-9.13-14.68-11.3-26.34-6.47-34.64,1.81-3.1,3.97-4.52,6.45-4.25,5.01,.57,10.64,8.26,17.23,23.52,1.97,4.56,3.71,9.11,5.08,12.89-1.58-16.51-3.4-49.33,5.58-60.28,1.92-2.34,4.26-3.61,6.94-3.78,2.61-.16,4.78,.78,6.42,2.79,8.09,9.97,.85,45.66-3.14,62.36,2.96-4.88,7.16-10.29,11.45-10.91,2.02-.29,3.63,.46,4.55,2.12,2.65,4.81-.9,17.15-11.44,29.49l-1.6-1.37c10.36-12.14,13.16-23.54,11.2-27.1-.49-.88-1.26-1.22-2.4-1.05-5.53,.8-11.98,13-14,17.63l-1.98-.7c.04-.14,3.96-14.52,6.58-30.23,3.43-20.55,3.14-34-.85-38.91-1.2-1.48-2.73-2.13-4.65-2.02-2.11,.13-3.89,1.11-5.44,3.01-11.34,13.83-4.11,67.74-4.04,68.28l-2.05,.46c-3.73-11.95-15.26-43.16-23.67-44.11-1.59-.16-3.03,.87-4.39,3.21-10.63,18.23,20.79,51.15,21.11,51.48l-1.52,1.46Z"/></g><path class="cls-13" d="M495.94,16.75S505.61-2.16,530.07,.21c24.46,2.37,21.55,21.33,33.2,19.55,11.65-1.78,27.96,0,31.45,11.85,3.49,11.85,19.22,5.33,19.8,15.4,.58,10.07-18.06,17.18-39.6,8.29-21.55-8.89-32.03,6.9-62.32,4.04-30.29-2.86-34.04-6.41-51.96-4.64-17.93,1.78-17.5-10.71-9.35-19,8.15-8.29,41.16-7.5,44.65-18.96Z"/><path class="cls-13" d="M1469.97,470.19s10.88-26.47,38.42-23.16c27.54,3.32,24.26,29.86,37.37,27.37,13.11-2.49,31.47,0,35.4,16.59,3.93,16.59,21.63,7.46,22.29,21.56,.66,14.1-20.32,24.05-44.58,11.61-24.26-12.44-36.06,9.66-70.15,5.66-34.09-4-38.32-8.98-58.49-6.49-20.18,2.49-19.7-14.99-10.52-26.6,9.18-11.61,46.33-10.51,50.27-26.54Z"/><g><path class="cls-17" d="M736.83,890.08c.99,.85,11.38,24.07,54.93,24.92,43.55,.85,66.07-23.22,66.07-23.22l-121-1.7Z"/><path class="cls-17" d="M804.98,804.5s74.42-180.76,255.18-94.1c180.76,86.66,375.13,43.33,375.13,43.33v142.74H795.82l9.16-91.97Z"/><path class="cls-17" d="M804.98,804.5s-46.77-134.88-175.95-139.98c-129.18-5.1-255.69,137.77-391.99,112.15l22.47,105.48,536.56,14.32,8.91-91.97Z"/><path class="cls-17" d="M815.88,799.18l-8-2.83c.33-1.18,8.3-29.26,27.69-60.28,11.42-18.26,24.44-33.72,38.71-45.92,17.91-15.33,37.82-25.55,59.18-30.39,68.87-15.59,132.15,15.67,199.13,48.77,57.73,28.52,117.43,58.01,185.31,59.81l-.2,9.44c-69.54-1.84-130.01-31.71-188.49-60.6-65.74-32.48-127.83-63.15-194.11-48.16-20.1,4.55-38.86,14.19-55.76,28.65-13.58,11.62-26,26.37-36.93,43.84-18.65,29.83-26.47,57.4-26.55,57.67Z"/><path class="cls-17" d="M807.79,821.05c-.07-.34-5.38-40.21,5.59-85.47,6.14-25.34,16.15-47.09,29.75-64.66,16.96-21.91,39.52-37.27,67.05-45.64,36.3-11.05,73.66-11.97,114.19-2.84,35.98,8.11,71.23,23.27,105.31,37.93,56.78,24.42,115.48,49.67,181.02,44.42,68.88-5.52,93.62-50.93,93.86-51.39l7.21,4.82c-.28,.52-6.94,12.95-22.75,26.07-14.41,11.96-39.6,26.86-77.73,29.91-6.15,.49-12.24,.73-18.27,.73-59.99,0-113.98-23.22-166.35-45.75-33.76-14.52-68.67-29.54-103.96-37.49-39.78-8.97-74.84-8.11-110.35,2.69-114.47,34.83-96.64,183.14-96.39,184.62l-8.19,2.04Z"/><path class="cls-17" d="M796.06,810.2c-13.47-63.57-44.9-107.37-93.43-130.19-39.42-18.54-89.48-22.56-144.76-11.62-47.65,9.43-97.17,29.98-135.84,56.39-31.69,21.63-79.62,49.67-128.02,60.39-29.37,6.5-45.01,3.55-45.67,3.42l1.56-9.96-.78,4.98,.76-4.98c.15,.03,15.13,2.76,43.11-3.54,46.89-10.56,93.52-37.89,124.38-58.95,39.59-27.03,90.24-48.06,138.95-57.7,56.97-11.27,108.77-7.04,149.78,12.25,24.32,11.44,44.87,28.17,61.08,49.72,17.64,23.46,30.3,52.88,37.62,87.46l-8.74,2.35Z"/><path class="cls-18" d="M1456.01,918.6l-597.36,6.09c-55.68,28.22-114.69-6.18-114.69-6.18l-497.75-12.7c-5.1-.14-9.18-4.9-9.18-10.74v-1.95c0-6.95,5-12.53,11.08-12.36l499.44,14.32c1.89,.05,3.74,.61,5.41,1.64,3.01,1.85,7.63,4.69,7.64,4.69,.36,.25,14.32,10.19,41.82,9.63,16.36-.34,26.87-7.37,38.29-13.09,1.95-.98,4.06-1.47,6.18-1.47h605.69c3.04,0,5.74,2.2,6.73,5.48l2.29,7.57c1.34,4.42-1.51,9.03-5.59,9.07Z"/><path class="cls-13" d="M828.99,836.76c-.27,0-.54-.11-.76-.33-.46-.47-.49-1.27-.07-1.78,.6-.74,15.15-18.28,49.42-28.59,20.06-6.04,42.74-8.29,67.41-6.69,30.79,1.99,64.79,10.01,101.05,23.83,.59,.22,.9,.94,.7,1.6-.2,.66-.84,1.02-1.42,.79-36.01-13.73-69.76-21.7-100.3-23.69-24.41-1.59-46.84,.61-66.66,6.54-17.62,5.27-29.88,12.58-37.06,17.79-7.78,5.64-11.44,10.08-11.48,10.13-.22,.27-.52,.41-.83,.41Z"/><path class="cls-13" d="M828.99,821.26c-.24,0-.49-.09-.69-.27-.49-.43-.57-1.23-.19-1.77,.18-.26,18.26-25.97,47.29-48.35,17.07-13.16,34.54-22.62,51.93-28.13,21.77-6.89,43.47-7.56,64.48-1.99,.6,.16,.98,.84,.84,1.52-.14,.68-.74,1.1-1.35,.94-20.64-5.47-41.95-4.81-63.36,1.96-17.15,5.43-34.4,14.78-51.27,27.78-28.75,22.17-46.62,47.57-46.79,47.83-.22,.32-.55,.48-.88,.48Z"/><path class="cls-13" d="M802.01,904.66c-.57,0-1.1-.41-1.28-1.06-.18-.64-4.34-15.8,0-30.84,2.39-8.27,1.63-12.81,.75-18.07-.64-3.84-1.31-7.81-.81-13.49,.39-4.37,1.23-8.7,2.05-12.9,1.67-8.56,3.41-17.4,1.26-26.96-.18-.81,.26-1.64,.98-1.84,.72-.2,1.45,.29,1.63,1.1,2.3,10.25,.5,19.46-1.25,28.36-.84,4.3-1.64,8.36-2.01,12.54-.46,5.25,.17,9,.77,12.63,.91,5.43,1.77,10.56-.83,19.57-4.08,14.13-.04,28.84,0,28.99,.22,.8-.17,1.65-.88,1.9-.14,.05-.27,.07-.41,.07Z"/><path class="cls-13" d="M1260.25,815.18c-22.63,0-44.8-1.31-66.32-3.94-48.13-5.87-93.09-18.35-133.63-37.1l.8-2.18c40.36,18.66,85.12,31.09,133.06,36.94,38.36,4.68,78.82,5.17,120.26,1.48,56.45-5.04,103.56-17.22,120.57-22.96l.6,2.26c-17.09,5.76-64.38,18-121.01,23.05-18.33,1.64-36.48,2.45-54.33,2.45Z"/><path class="cls-13" d="M303.51,828.53c-31.89,0-55.89-2.54-56.36-2.59-.62-.07-1.07-.68-1.01-1.38,.06-.7,.61-1.21,1.23-1.14,.93,.1,93.31,9.87,156.83-9.25,20.82-6.27,42.83-16.12,66.13-26.56,48.39-21.67,98.44-44.08,142.43-35.76,.61,.12,1.02,.77,.92,1.46-.1,.69-.68,1.15-1.29,1.04-43.38-8.21-93.12,14.07-141.23,35.61-23.36,10.46-45.43,20.35-66.38,26.65-31.56,9.5-70.16,11.92-101.26,11.92Z"/><path class="cls-13" d="M473.4,823.03c-.23,0-.38-.05-.53-.12-.57-.27-.84-1.01-.6-1.65,.2-.55,.71-.84,1.2-.76,.82-.1,4.75-1.48,9.28-3.08,22.76-8.02,83.23-29.32,127.74-24.32,.62,.07,1.07,.69,1.01,1.38-.06,.69-.61,1.2-1.23,1.13-44.06-4.95-104.21,16.24-126.85,24.21-7.17,2.53-9.16,3.2-10.03,3.2Zm.34-2.45s0,0,0,0c0,0,0,0,0,0Z"/></g><path class="cls-13" d="M318.65,146.52s13.94-32.93,49.2-28.8c35.26,4.13,31.07,37.13,47.86,34.04,16.79-3.09,40.3,0,45.34,20.63s27.71,9.28,28.55,26.82c.84,17.53-26.03,29.91-57.09,14.44-31.07-15.47-46.18,12.02-89.84,7.04-43.66-4.98-49.07-11.17-74.91-8.07-25.84,3.09-25.23-18.64-13.47-33.08,11.75-14.44,59.33-13.07,64.37-33.01Z"/><g><path class="cls-6" d="M718.13,528.83c-4.68-16.89-16.98-36.38-17.1-36.57l-7.34-17.88c11.27-8.11,30.14-19.08,36.16-6.28,3.43,7.29,31.6,80.91,37.42,74.84,22.32-23.25,24.62-25.27,27.04-30.27l27.25,1.77c-4.07,27.25-15.91,64.79-40.83,77.45-4.61,2.34-40.81,15.65-62.6-63.04Z"/><path class="cls-5" d="M777.29,853.55s3.56,23.61,13.03,35.65c6.24,7.93,23.47,23.65,11.22,28.88-9.78,4.18-28.62-14.44-34.74-19.07-6.12-4.63-15.34-13.4-13.29-20.87,4.24-15.47,2.84-34.93,2.84-34.93l20.94,10.33Z"/><path class="cls-5" d="M708.74,835.24s-4.74,23.4,.03,38.03c3.14,9.65,13.92,30.47,.64,31.05-10.6,.46-21.9-23.65-26.05-30.16-4.15-6.5-9.8-17.98-5.33-24.26,9.26-13.01,14.61-31.74,14.61-31.74l16.1,17.09Z"/><path class="cls-7" d="M715.38,851.77c127-86.13,120.72-161.59,103.12-191.09-20.44-34.27-52.8-61.37-102.4-73.46-13.22-3.22-25.81-5.09-36.33-6.16-15.23-1.55-28.35,10.81-27.95,26.37l1.14,43.94h-.1c21.19-.45,85.47,6.12,102.32,40.95,3.5,7.24-81.98,109.33-78.79,127.64,3.61,20.72,26.57,40.22,38.98,31.8Z"/><path class="cls-7" d="M764.62,864.67c14.6,.07,26.25-12.4,25.39-27.22-1.91-32.96-7.94-89.04-26.81-131.42-10.7-24.03-27.72-45.89-50.58-64.95-17.24-14.38-37.87-27.22-61.32-38.19-39-18.23-67.09-15.69-67.09-15.69l-21.32,31.96c.28,.06-5.98,32.24,39.08,60.93,24.86,15.83,74.85,25.51,95.41,66.42,14.68,29.21,20.29,67.94,22.15,95,.89,12.95,11.47,22.99,24.23,23.05l20.86,.11Z"/><path class="cls-16" d="M604.68,450.77s19.95-34.67,65.94-24.03c45.99,10.64,64.73,58.4,68.02,173.1,0,0-27.62,49.69-153.27,40.01-13.92-1.07-33.87-2.95-27.07-25.9,12.65-42.66,24.9-127.76,46.36-163.18Z"/><path class="cls-16" d="M554.08,460.89l47.31,9.04s82.72,24.87,105.88,25.07c23.16,.2,32.74-17.02,32.74-17.02,0,0-18.68-32.23-57.82-47.44-3.68-1.43-7.53-2.71-11.57-3.8-6.78-1.82-13.67-3.42-20.57-3.5-78.09-.91-95.97,37.66-95.97,37.66Z"/><path class="cls-10" d="M554.08,460.89c-1.02,3.79,8.89,10.12,22.15,14.13,13.26,4.01,24.83,4.19,25.85,.4s-8.89-10.12-22.15-14.13c-13.26-4.01-24.83-4.19-25.85-.4Z"/><path class="cls-2" d="M785.19,792c-.02-.29-2.04-29.72-10.99-63-8.25-30.67-24.23-70.98-53.55-88.82l.41-.68c16.31,9.92,38.9,33.47,53.91,89.3,8.97,33.35,10.99,62.85,11.01,63.14l-.79,.05Z"/><path class="cls-2" d="M720.46,848.01c-.32-45.73-15.02-81.01-15.17-81.36l.73-.31c.15,.35,14.91,35.77,15.23,81.67h-.79Z"/><path class="cls-10" d="M696.84,420.16s-12.01-1.39-15.36-7.04c-3.35-5.66-6.86-2.65-9.61-3.58-2.74-.93-.74-19.4-.74-19.4l20.17-14.57,5.56,29.88-.03,14.71Z"/><path class="cls-6" d="M641.56,423.3c5-.06,9.59-2.81,11.99-7.26l7.52-13.97,2.18-4.06,12.84-23.84-4.22,25.58-2.54,15.36-.72,4.38c-.59,3.57,1.59,6.99,5.02,7.97l.06,.02c1.58,3.28,3.59,9.82-4.38,11.58-9.36,2.06-23.37-6.62-27.84-15.74,.03,0,.05,0,.08,0Z"/><path class="cls-11" d="M661.1,401.63c0,.14-.01,.29-.01,.43-.17,8.36,8.2,13.08,8.2,13.08l.06-.04,2.54-15.36c-2.58-1.25-6.29-2.64-8.62-1.74-1.22,.47-2.06,1.56-2.17,3.63Z"/><path class="cls-6" d="M690.06,371.07c-4.3-15.98-18.12-26.05-30.85-22.5-12.74,3.55-19.57,19.37-15.27,35.35,4.3,15.98,18.12,26.05,30.85,22.5,12.74-3.55,19.57-19.37,15.27-35.35Z"/><path class="cls-4" d="M684.46,392.75s-7.83,2.38-16.46,1.76c0,0,1.47,8.08,10.15,6.23,5.04-1.07,6.32-7.99,6.32-7.99Z"/><path class="cls-14" d="M669.3,377.15c.14-.09,.24-.23,.26-.41,.03-.3-.18-.58-.48-.61-.18-.02-4.2-.88-6.38,3.43-.14,.27-.04,.6,.22,.75,.26,.14,.54,0,.74-.23,1.97-2.32,5.15-2.87,5.29-2.85,.12,.01,.24-.01,.34-.07Z"/><path class="cls-14" d="M665.55,384.2c.3,1.28,1.29,2.14,2.21,1.92,.92-.22,1.41-1.44,1.11-2.73-.3-1.28-1.29-2.14-2.21-1.92-.92,.22-1.41,1.44-1.11,2.73Z"/><path class="cls-14" d="M680.74,381.05c.22,1.3,1.15,2.22,2.08,2.06,.93-.16,1.5-1.35,1.28-2.65s-1.15-2.22-2.08-2.06-1.5,1.35-1.28,2.65Z"/><path class="cls-10" d="M650.82,362.08c18.8-.63,35.64,11.95,41.16,30.23,.32,1.06,.63,2.16,.94,3.29,0,0-11.2,6.01-8.63,18.08,.8,3.78,13.11,7.19,13.76,6.65,4.88-4.06,15.67-21.84,5.03-48.21-10.63-26.36-26.44-43.51-51.3-37.48-24.87,6.03-17.08,21.81-17.08,21.81,0,0,6.25,5.96,16.12,5.63Z"/><path class="cls-10" d="M654.29,361.17s-.34,.39-.88,1.11c-2.05,2.78-6.92,10.47-5.69,19.57,1.54,11.47,13.87,15.44,13.3,24.8-.57,9.36-10.75,1.87-16.52,5.05-5.77,3.18-11.07,1.51-14.86-10.9-3.78-12.41-8.78-42.44,5.79-46.5l18.85,6.87Z"/><path class="cls-6" d="M645.54,388.15c3.3,1.81,7.02,1.05,8.31-1.69,1.3-2.74-.32-6.43-3.62-8.24-3.29-1.81-7.02-1.05-8.31,1.69-1.3,2.74,.32,6.43,3.62,8.24Z"/><path class="cls-4" d="M701.54,404.6c-.14,0-.26-.1-.29-.24-3.14-18.41-14.17-34.03-23.71-41.35-7.73-5.93-14.39-7.29-18.62-7.38-4.55-.1-7.32,1.2-7.35,1.21-.14,.07-.32,0-.39-.14-.07-.14,0-.32,.14-.39,.11-.06,11.52-5.32,26.57,6.23,9.63,7.39,20.76,23.15,23.93,41.71,.03,.16-.08,.31-.24,.34-.02,0-.03,0-.05,0Z"/><path class="cls-4" d="M641.62,402.09c-.08,0-.16-.03-.22-.1-8.72-10.28-11.41-31.56-8.4-38.97,3.06-7.55,11.52-6.33,11.61-6.32,.16,.02,.27,.17,.24,.33-.02,.16-.17,.27-.33,.24-.33-.05-8.1-1.16-10.98,5.96-2.95,7.29-.29,28.24,8.31,38.37,.1,.12,.09,.31-.03,.41-.05,.05-.12,.07-.19,.07Z"/><g><g class="cls-19"><ellipse class="cls-13" cx="998.95" cy="327.21" rx="156" ry="160.16" transform="translate(-9.69 31.23) rotate(-1.78)"/></g><path class="cls-12" d="M1077.71,430.99c-.67,0-1.33-.29-1.78-.85-.8-.98-.66-2.43,.33-3.24,18.49-15.09,32.33-35.25,40.01-58.32,.4-1.2,1.7-1.86,2.91-1.46,1.2,.4,1.86,1.7,1.45,2.91-7.96,23.9-22.3,44.8-41.47,60.43-.43,.35-.94,.52-1.45,.52Z"/><path class="cls-18" d="M912.54,234.96c-.65,0-1.3-.25-1.78-.76-.94-.98-.91-2.55,.07-3.49,34.87-33.46,84.58-44.35,129.76-28.44,1.29,.45,1.96,1.86,1.51,3.15-.45,1.29-1.86,1.96-3.15,1.51-43.4-15.29-91.18-4.81-124.69,27.35-.48,.46-1.09,.69-1.71,.69Z"/><g><polygon class="cls-10" points="612.62 667.08 598.17 648.97 874.89 416.37 889.34 434.47 612.62 667.08"/><path class="cls-15" d="M604.24,667.22l-7.85-9.84c-3.12-3.91-2.57-9.67,1.24-12.87l144.36-121.35c3.81-3.2,9.42-2.62,12.54,1.29l7.85,9.84c3.12,3.91,2.57,9.67-1.24,12.87l-144.36,121.35c-3.81,3.2-9.42,2.62-12.54-1.29Z"/><path class="cls-10" d="M1125.22,221.07c-57.21-71.68-160.12-82.27-229.86-23.66-69.73,58.62-79.88,164.24-22.67,235.93,57.21,71.68,160.12,82.28,229.85,23.66,69.73-58.62,79.89-164.25,22.68-235.93Zm-241.46,202.97c-52.2-65.4-42.93-161.77,20.68-215.24,63.62-53.48,157.51-43.82,209.7,21.58,52.2,65.4,42.94,161.77-20.68,215.25-63.62,53.47-157.51,43.81-209.7-21.59Z"/></g></g><g><path class="cls-6" d="M832.95,485.89c-1.42-1.94-5.44,.62-8.24,3.62,0-.81-.03-1.6-.07-2.34-.38-6.9-1.88-8.95-1.88-8.95,0,0-6.36-14.02-8.94-10.83-2.58,3.2,3.06,15.33,3.06,15.33,0,0-8.87-15.97-10.43-12.18-1.45,3.53,4.37,14.23,5.17,15.69-.88-1.57-7.74-13.59-9.35-9.44-1.71,4.44,3.52,11.62,.94,14.82-.22,.27-3.95-10.82-6.35-4.57-.96,2.49-.87,9.54-.87,9.54-.41,.77-.13,2.59,0,3.52,.61,4.19-.35,10.46-3.9,16.23,0,0,24.64,12.97,24.77,11.96,0,0,8.72-26.34,11.04-31.42,2.32-5.07,7.04-8.24,5.03-10.99Z"/><path class="cls-3" d="M818.53,490.55s-.04,0-.06,0c-.17-.03-.29-.2-.26-.37,.72-3.83-1.57-7.24-1.6-7.28-.1-.15-.06-.34,.08-.44,.15-.1,.34-.06,.44,.08,.1,.15,2.46,3.67,1.7,7.75-.03,.15-.16,.26-.31,.26Z"/><path class="cls-3" d="M813.27,493.77s-.04,0-.05,0c-.17-.03-.29-.19-.26-.37,.76-4.43-1.44-6.76-1.46-6.78-.12-.13-.12-.33,0-.45,.13-.12,.33-.12,.45,0,.1,.1,2.45,2.57,1.63,7.33-.03,.16-.16,.27-.31,.27Z"/><path class="cls-3" d="M789.59,519.75c-.08,0-.17-.03-.23-.1-.12-.13-.12-.33,.01-.45,.07-.06,6.61-6.4,6.44-15.69-.01-.69-.04-1.49-.07-2.37-.23-7.32-.28-14.01,1.68-15.42,.77-.56,1.46-.75,2.1-.58,1.24,.33,1.99,1.96,2.86,3.86l.04,.08c1.23,2.7,2.79,6.19,2.79,6.19l-.58,.26s-1.56-3.48-2.79-6.18l-.04-.08c-.8-1.75-1.49-3.25-2.44-3.51-.44-.11-.95,.04-1.56,.48-1.84,1.34-1.57,9.82-1.41,14.89,.03,.88,.05,1.69,.07,2.38,.18,9.58-6.57,16.1-6.63,16.17-.06,.06-.14,.09-.22,.09Z"/></g><path class="cls-3" d="M762.04,566.99c-.14,0-.28-.1-.31-.25-3.02-12.84,5.19-23.89,5.27-24,.11-.14,.31-.17,.45-.06,.14,.11,.17,.31,.06,.45-.08,.11-8.11,10.93-5.16,23.47,.04,.17-.07,.34-.24,.38-.02,0-.05,0-.07,0Z"/><g><path class="cls-6" d="M657.01,569.5s27.69-15.69,38-13.11c10.31,2.58,21.57,13.81,14.84,13.59-6.73-.22-15.25-2.92-15.25-2.92,0,0,17.94,6.63,14.59,10.22-3.34,3.59-18.89-2.33-18.89-2.33,0,0,20.73,9.62,16.49,11.97-4.24,2.36-19.93-5.06-19.93-5.06,0,0,18.93,9.73,13.95,12.35-4.99,2.62-15.59-8.15-18.93-4.55-3.34,3.59-10.73,18.45-21.69,10.23l-3.18-30.4Z"/><path class="cls-3" d="M694.41,567.41s-4.67-2.54-7.4-1.11l-.37-.7c3.11-1.63,7.95,1,8.15,1.11l-.38,.69Z"/><path class="cls-3" d="M690.11,575.3s-4.55-2.58-8.98-1.29l-.22-.76c4.75-1.38,9.4,1.25,9.59,1.36l-.39,.68Z"/><path class="cls-3" d="M686.67,582.21c-.06-.03-5.54-3.03-8.32-1.26l-.43-.67c3.17-2.03,8.88,1.1,9.13,1.23l-.38,.69Z"/></g><path class="cls-6" d="M556.94,569.88c20.21,32.19,68.63,33.75,110.69,32.4l-4.53-36.02c-21.63,.41-58.51-1.9-68.74-24.54-6.04-13.37-.41-47.87,2.38-64.6,.27-1.59-.35-3.18-1.61-4.16-4.17-3.25-14.97-9.85-34.28-10.24-1.72-.03-3.24,1.14-3.68,2.83-8.08,30.93-18.27,75.61-.24,104.34Z"/><path class="cls-3" d="M571.94,571.96c-.27,0-.56-.03-.85-.09-2.16-.44-4.61-2.46-6.41-5.26-2.74-4.26-3.08-8.82-.79-10.36,.7-.47,1.59-.61,2.58-.41,2.16,.44,4.61,2.46,6.41,5.26,2.74,4.27,3.08,8.82,.79,10.36-.49,.33-1.07,.5-1.72,.5Zm-6.34-15.51c-.5,0-.95,.13-1.32,.38-1.91,1.29-1.45,5.59,.99,9.4,1.7,2.65,3.98,4.54,5.96,4.95,.81,.17,1.5,.06,2.04-.3,1.91-1.29,1.45-5.59-.99-9.4-1.7-2.65-3.98-4.54-5.96-4.95-.25-.05-.49-.08-.72-.08Z"/></g><path class="cls-8" d="M1192.79,808.01s60.74,3.92,66.62,38.78c5.88,34.86-31.35,104.59,36.25,141.45,0,0,4.57-18.26,9.8-20.92,0,0,20.25,15.27,33.31,15.94,0,0-32-37.19-22.86-73.71,9.14-36.52,16.98-90.75-28.74-101.82,0,0-46.95,0-94.38,.29Z"/></g></g></svg>