<svg xmlns="http://www.w3.org/2000/svg" width="255.808" height="135.79" viewBox="0 0 255.808 135.79">
  <g id="Vector_Smart_Object_copy" data-name="Vector Smart Object copy" transform="translate(-468 -240)">
    <g id="Vector_Smart_Object_copy-2" data-name="Vector Smart Object copy" transform="translate(159.829 48.989)">
      <g id="Group_110" data-name="Group 110">
        <g id="Group_88" data-name="Group 88">
          <g id="Group_56" data-name="Group 56">
            <rect id="Rectangle_41" data-name="Rectangle 41" width="7.995" height="7.812" transform="translate(308.171 191.011)" fill="#71c3ff"/>
          </g>
          <g id="Group_57" data-name="Group 57">
            <rect id="Rectangle_42" data-name="Rectangle 42" width="7.995" height="7.812" transform="translate(323.502 191.011)" fill="#71c3ff"/>
          </g>
          <g id="Group_58" data-name="Group 58">
            <rect id="Rectangle_43" data-name="Rectangle 43" width="7.995" height="7.812" transform="translate(338.834 191.011)" fill="#71c3ff"/>
          </g>
          <g id="Group_59" data-name="Group 59">
            <rect id="Rectangle_44" data-name="Rectangle 44" width="7.995" height="7.812" transform="translate(354.165 191.011)" fill="#71c3ff"/>
          </g>
          <g id="Group_60" data-name="Group 60">
            <rect id="Rectangle_45" data-name="Rectangle 45" width="7.995" height="7.812" transform="translate(316.439 198.432)" fill="#71c3ff"/>
          </g>
          <g id="Group_61" data-name="Group 61">
            <rect id="Rectangle_46" data-name="Rectangle 46" width="7.995" height="7.812" transform="translate(331.77 198.432)" fill="#71c3ff"/>
          </g>
          <g id="Group_62" data-name="Group 62">
            <rect id="Rectangle_47" data-name="Rectangle 47" width="7.995" height="7.812" transform="translate(347.102 198.432)" fill="#71c3ff"/>
          </g>
          <g id="Group_63" data-name="Group 63">
            <rect id="Rectangle_48" data-name="Rectangle 48" width="7.995" height="7.812" transform="translate(362.433 198.432)" fill="#71c3ff"/>
          </g>
          <g id="Group_64" data-name="Group 64">
            <rect id="Rectangle_49" data-name="Rectangle 49" width="7.995" height="7.812" transform="translate(308.171 206.244)" fill="#71c3ff"/>
          </g>
          <g id="Group_65" data-name="Group 65">
            <rect id="Rectangle_50" data-name="Rectangle 50" width="7.995" height="7.812" transform="translate(323.502 206.244)" fill="#71c3ff"/>
          </g>
          <g id="Group_66" data-name="Group 66">
            <rect id="Rectangle_51" data-name="Rectangle 51" width="7.995" height="7.812" transform="translate(338.834 206.244)" fill="#71c3ff"/>
          </g>
          <g id="Group_67" data-name="Group 67">
            <rect id="Rectangle_52" data-name="Rectangle 52" width="7.995" height="7.812" transform="translate(354.165 206.244)" fill="#71c3ff"/>
          </g>
          <g id="Group_68" data-name="Group 68">
            <rect id="Rectangle_53" data-name="Rectangle 53" width="7.995" height="7.812" transform="translate(316.439 213.665)" fill="#71c3ff"/>
          </g>
          <g id="Group_69" data-name="Group 69">
            <rect id="Rectangle_54" data-name="Rectangle 54" width="7.995" height="7.812" transform="translate(331.77 213.665)" fill="#71c3ff"/>
          </g>
          <g id="Group_70" data-name="Group 70">
            <rect id="Rectangle_55" data-name="Rectangle 55" width="7.995" height="7.812" transform="translate(347.102 213.665)" fill="#71c3ff"/>
          </g>
          <g id="Group_71" data-name="Group 71">
            <rect id="Rectangle_56" data-name="Rectangle 56" width="7.995" height="7.812" transform="translate(362.433 213.665)" fill="#71c3ff"/>
          </g>
          <g id="Group_72" data-name="Group 72">
            <rect id="Rectangle_57" data-name="Rectangle 57" width="7.995" height="7.812" transform="translate(308.171 221.477)" fill="#71c3ff"/>
          </g>
          <g id="Group_73" data-name="Group 73">
            <rect id="Rectangle_58" data-name="Rectangle 58" width="7.995" height="7.812" transform="translate(323.502 221.477)" fill="#71c3ff"/>
          </g>
          <g id="Group_74" data-name="Group 74">
            <rect id="Rectangle_59" data-name="Rectangle 59" width="7.995" height="7.812" transform="translate(338.834 221.477)" fill="#71c3ff"/>
          </g>
          <g id="Group_75" data-name="Group 75">
            <rect id="Rectangle_60" data-name="Rectangle 60" width="7.995" height="7.812" transform="translate(354.165 221.477)" fill="#71c3ff"/>
          </g>
          <g id="Group_76" data-name="Group 76">
            <rect id="Rectangle_61" data-name="Rectangle 61" width="7.995" height="7.812" transform="translate(316.439 228.898)" fill="#71c3ff"/>
          </g>
          <g id="Group_77" data-name="Group 77">
            <rect id="Rectangle_62" data-name="Rectangle 62" width="7.995" height="7.812" transform="translate(331.77 228.898)" fill="#71c3ff"/>
          </g>
          <g id="Group_78" data-name="Group 78">
            <rect id="Rectangle_63" data-name="Rectangle 63" width="7.995" height="7.812" transform="translate(347.102 228.898)" fill="#71c3ff"/>
          </g>
          <g id="Group_79" data-name="Group 79">
            <rect id="Rectangle_64" data-name="Rectangle 64" width="7.995" height="7.812" transform="translate(362.433 228.898)" fill="#71c3ff"/>
          </g>
          <g id="Group_80" data-name="Group 80">
            <rect id="Rectangle_65" data-name="Rectangle 65" width="7.995" height="7.812" transform="translate(308.171 236.71)" fill="#71c3ff"/>
          </g>
          <g id="Group_81" data-name="Group 81">
            <rect id="Rectangle_66" data-name="Rectangle 66" width="7.995" height="7.812" transform="translate(323.502 236.71)" fill="#71c3ff"/>
          </g>
          <g id="Group_82" data-name="Group 82">
            <rect id="Rectangle_67" data-name="Rectangle 67" width="7.995" height="7.812" transform="translate(338.834 236.71)" fill="#71c3ff"/>
          </g>
          <g id="Group_83" data-name="Group 83">
            <rect id="Rectangle_68" data-name="Rectangle 68" width="7.995" height="7.812" transform="translate(354.165 236.71)" fill="#71c3ff"/>
          </g>
          <g id="Group_84" data-name="Group 84">
            <rect id="Rectangle_69" data-name="Rectangle 69" width="7.995" height="7.812" transform="translate(316.439 244.131)" fill="#71c3ff"/>
          </g>
          <g id="Group_85" data-name="Group 85">
            <rect id="Rectangle_70" data-name="Rectangle 70" width="7.995" height="7.812" transform="translate(331.77 244.131)" fill="#71c3ff"/>
          </g>
          <g id="Group_86" data-name="Group 86">
            <rect id="Rectangle_71" data-name="Rectangle 71" width="7.995" height="7.812" transform="translate(347.102 244.131)" fill="#71c3ff"/>
          </g>
          <g id="Group_87" data-name="Group 87">
            <rect id="Rectangle_72" data-name="Rectangle 72" width="7.995" height="7.812" transform="translate(362.433 244.131)" fill="#71c3ff"/>
          </g>
        </g>
        <g id="Group_95" data-name="Group 95">
          <g id="Group_89" data-name="Group 89">
            <path id="Path_9" data-name="Path 9" d="M409.478,235.777,391.7,247.4a.579.579,0,0,1-.883-.628l5.779-20.108a1.625,1.625,0,0,0-.567-1.735l-14.452-11.17a1.624,1.624,0,0,1,.925-2.908l18.46-.718a1.638,1.638,0,0,0,1.469-1.061l6.412-17a1.635,1.635,0,0,1,3.061,0l6.415,17.007a1.627,1.627,0,0,0,1.459,1.053l18.454.719a1.629,1.629,0,0,1,.928,2.916l-14.445,11.165a1.618,1.618,0,0,0-.564,1.727l5.78,20.112a.579.579,0,0,1-.883.628l-17.775-11.622A1.64,1.64,0,0,0,409.478,235.777Z" fill="#fd7c05"/>
          </g>
          <g id="Group_90" data-name="Group 90">
            <path id="Path_10" data-name="Path 10" d="M389.912,228.142c.487,1.3-2.765,2.525-2.765,2.525l-3.251,1.225s-3.252,1.224-3.738-.076,2.765-2.525,2.765-2.525l3.251-1.224S389.425,226.842,389.912,228.142Z" fill="#fd7c05"/>
          </g>
          <g id="Group_91" data-name="Group 91">
            <path id="Path_11" data-name="Path 11" d="M430.841,228.142c-.487,1.3,2.764,2.525,2.764,2.525l3.252,1.225s3.251,1.224,3.738-.076-2.765-2.525-2.765-2.525l-3.251-1.224S431.328,226.842,430.841,228.142Z" fill="#fd7c05"/>
          </g>
          <g id="Group_92" data-name="Group 92">
            <path id="Path_12" data-name="Path 12" d="M390.13,197.215c-.979.982,1.477,3.444,1.477,3.444l2.455,2.463s2.456,2.463,3.435,1.48-1.477-3.444-1.477-3.444l-2.455-2.463S391.11,196.232,390.13,197.215Z" fill="#fd7c05"/>
          </g>
          <g id="Group_93" data-name="Group 93">
            <path id="Path_13" data-name="Path 13" d="M410.376,241.494c-1.385,0-1.385,3.483-1.385,3.483v3.483s0,3.482,1.385,3.482,1.385-3.482,1.385-3.482v-3.483S411.761,241.494,410.376,241.494Z" fill="#fd7c05"/>
          </g>
          <g id="Group_94" data-name="Group 94">
            <path id="Path_14" data-name="Path 14" d="M430.623,197.215c.979.982-1.477,3.444-1.477,3.444l-2.456,2.463s-2.455,2.463-3.435,1.48,1.476-3.444,1.476-3.444l2.456-2.463S429.643,196.232,430.623,197.215Z" fill="#fd7c05"/>
          </g>
        </g>
        <g id="Group_100" data-name="Group 100">
          <g id="Group_96" data-name="Group 96">
            <ellipse id="Ellipse_5" data-name="Ellipse 5" cx="15.51" cy="15.553" rx="15.51" ry="15.553" transform="translate(338.593 260.645)" fill="#eb3051"/>
          </g>
          <g id="Group_97" data-name="Group 97">
            <ellipse id="Ellipse_6" data-name="Ellipse 6" cx="15.51" cy="15.553" rx="15.51" ry="15.553" transform="translate(338.593 290.872)" fill="#eb3051"/>
          </g>
          <g id="Group_98" data-name="Group 98">
            <ellipse id="Ellipse_7" data-name="Ellipse 7" cx="15.51" cy="15.553" rx="15.51" ry="15.553" transform="translate(308.45 260.645)" fill="#eb3051"/>
          </g>
          <g id="Group_99" data-name="Group 99">
            <ellipse id="Ellipse_8" data-name="Ellipse 8" cx="15.51" cy="15.553" rx="15.51" ry="15.553" transform="translate(308.45 290.872)" fill="#eb3051"/>
          </g>
        </g>
        <g id="Group_109" data-name="Group 109">
          <g id="Group_101" data-name="Group 101">
            <rect id="Rectangle_73" data-name="Rectangle 73" width="34.172" height="9.595" transform="translate(407.415 260.699)" fill="#bacc00"/>
          </g>
          <g id="Group_102" data-name="Group 102">
            <rect id="Rectangle_74" data-name="Rectangle 74" width="34.172" height="9.595" transform="translate(407.415 274.863)" fill="#bacc00"/>
          </g>
          <g id="Group_103" data-name="Group 103">
            <rect id="Rectangle_75" data-name="Rectangle 75" width="34.172" height="9.595" transform="translate(379.166 298.165)" fill="#bacc00"/>
          </g>
          <g id="Group_104" data-name="Group 104">
            <rect id="Rectangle_76" data-name="Rectangle 76" width="34.172" height="9.595" transform="translate(379.166 312.329)" fill="#bacc00"/>
          </g>
          <g id="Group_105" data-name="Group 105">
            <rect id="Rectangle_77" data-name="Rectangle 77" width="34.267" height="9.568" transform="matrix(0, 1, -1, 0, 441.587, 287.656)" fill="#bacc00"/>
          </g>
          <g id="Group_106" data-name="Group 106">
            <rect id="Rectangle_78" data-name="Rectangle 78" width="34.267" height="9.568" transform="matrix(0, 1, -1, 0, 427.463, 287.656)" fill="#bacc00"/>
          </g>
          <g id="Group_107" data-name="Group 107">
            <rect id="Rectangle_79" data-name="Rectangle 79" width="34.267" height="9.568" transform="matrix(0, 1, -1, 0, 402.859, 260.699)" fill="#bacc00"/>
          </g>
          <g id="Group_108" data-name="Group 108">
            <rect id="Rectangle_80" data-name="Rectangle 80" width="34.267" height="9.568" transform="matrix(0, 1, -1, 0, 388.734, 260.699)" fill="#bacc00"/>
          </g>
        </g>
        <path id="Path_15" data-name="Path 15" d="M477.606,296.135H462.637V191.054h14.969Z" fill="#2a0045"/>
        <path id="Path_16" data-name="Path 16" d="M495.981,243.594v-52.54H510.95v52.54a37.492,37.492,0,0,0,37.425,37.53v15.012a52.46,52.46,0,0,1-52.395-52.541Z" fill="#2a0045"/>
        <text id="Education" transform="translate(460.979 321.801)" fill="#2a0045" font-size="23" font-family="Helvetica"><tspan x="0" y="0">Education</tspan></text>
      </g>
    </g>
    <path id="Color_Overlay" data-name="Color Overlay" d="M699.646,369.549a6.632,6.632,0,0,1-1.46-4.509,7.176,7.176,0,0,1,1.538-4.828,5.165,5.165,0,0,1,4.133-1.8,5.448,5.448,0,0,1,3.931,1.55,6.051,6.051,0,0,1,1.606,4.559,7.824,7.824,0,0,1-1.415,4.807,5.118,5.118,0,0,1-4.391,1.9A4.958,4.958,0,0,1,699.646,369.549Zm1.46-7.957a6.562,6.562,0,0,0-.842,3.415,5.7,5.7,0,0,0,.842,3.2,2.968,2.968,0,0,0,2.673,1.281,2.79,2.79,0,0,0,2.758-1.522,7.582,7.582,0,0,0,.746-3.386,6.022,6.022,0,0,0-.539-2.741,3.033,3.033,0,0,0-2.942-1.662A2.9,2.9,0,0,0,701.105,361.592Zm-62.857,7.934a6.611,6.611,0,0,1-1.471-4.5,7.763,7.763,0,0,1,1.342-4.554,4.392,4.392,0,0,1,3.835-1.926,4.279,4.279,0,0,1,2.314.584,5.436,5.436,0,0,1,1.224,1.179v-6.076h1.943V370.79h-1.82v-1.673a4.378,4.378,0,0,1-1.673,1.606,4.792,4.792,0,0,1-2.212.494A4.48,4.48,0,0,1,638.249,369.527Zm1.612-8.046a5.349,5.349,0,0,0-.949,3.436,5.964,5.964,0,0,0,.819,3.235,2.873,2.873,0,0,0,2.628,1.3,2.769,2.769,0,0,0,2.308-1.207,5.708,5.708,0,0,0,.9-3.465,5.122,5.122,0,0,0-.932-3.375,2.906,2.906,0,0,0-2.3-1.094A3.037,3.037,0,0,0,639.86,361.48Zm35.354,8.7a3.374,3.374,0,0,1-1.062-2.543,3.276,3.276,0,0,1,1.045-2.595,4.969,4.969,0,0,1,2.74-1.134l3.223-.4a1.1,1.1,0,0,0,.932-.584,1.791,1.791,0,0,0,.134-.775,1.641,1.641,0,0,0-.735-1.5,3.95,3.95,0,0,0-2.106-.466,2.674,2.674,0,0,0-2.246.853,2.807,2.807,0,0,0-.483,1.4h-1.886a3.473,3.473,0,0,1,1.443-3.094,5.932,5.932,0,0,1,3.218-.87,6.548,6.548,0,0,1,3.448.809,2.743,2.743,0,0,1,1.314,2.516v6.929a.9.9,0,0,0,.129.506.626.626,0,0,0,.545.191,2.942,2.942,0,0,0,.3-.017c.112-.011.232-.028.359-.05v1.493a5.626,5.626,0,0,1-.719.169,5.249,5.249,0,0,1-.673.033,1.662,1.662,0,0,1-1.517-.741,2.867,2.867,0,0,1-.348-1.112,5.145,5.145,0,0,1-1.774,1.4,5.488,5.488,0,0,1-2.55.595A3.79,3.79,0,0,1,675.214,370.178Zm6-5.116a8.062,8.062,0,0,1-1.146.225l-1.224.157a4.7,4.7,0,0,0-1.651.461,1.8,1.8,0,0,0-.932,1.685,1.664,1.664,0,0,0,.641,1.382,2.373,2.373,0,0,0,1.516.5,4.609,4.609,0,0,0,2.066-.494,2.78,2.78,0,0,0,1.685-2.684v-1.629A3.44,3.44,0,0,1,681.216,365.063ZM663.8,369.415a6.6,6.6,0,0,1-1.4-4.307,7.254,7.254,0,0,1,1.538-4.93,4.972,4.972,0,0,1,3.919-1.763,5.244,5.244,0,0,1,3.307.988,4.733,4.733,0,0,1,1.533,3.4h-1.965a3.637,3.637,0,0,0-.82-1.848,2.591,2.591,0,0,0-2.056-.735,2.841,2.841,0,0,0-2.763,1.886,7.5,7.5,0,0,0-.539,3.021,5.684,5.684,0,0,0,.764,3.044,2.96,2.96,0,0,0,4.4.465,4.224,4.224,0,0,0,1.017-2.105h1.965a4.752,4.752,0,0,1-5.132,4.6A4.606,4.606,0,0,1,663.8,369.415Zm-12.915-.017a5.122,5.122,0,0,1-.5-2.46v-8.176h2.066v7.985a3.372,3.372,0,0,0,.292,1.5,2.038,2.038,0,0,0,2.011,1.078,2.841,2.841,0,0,0,2.875-1.886,7.488,7.488,0,0,0,.416-2.775v-5.907h2.021V370.79h-1.909l.023-1.774a4.082,4.082,0,0,1-.977,1.156,4.3,4.3,0,0,1-2.807.943A3.623,3.623,0,0,1,650.883,369.4Zm37.533.859a3.213,3.213,0,0,1-.506-1.881v-7.962h-1.628v-1.651h1.628V355.4h2.044v3.358h1.921v1.651h-1.921v7.85a.849.849,0,0,0,.428.842,1.8,1.8,0,0,0,.786.124c.1,0,.2,0,.314-.006s.244-.013.393-.028v1.595a4.471,4.471,0,0,1-.725.146,6.734,6.734,0,0,1-.814.045A2.193,2.193,0,0,1,688.415,370.256ZM498.86,359.1a15.517,15.517,0,1,1-18.744-18.8,15.549,15.549,0,1,1,18.744-18.8A15.517,15.517,0,1,1,517.6,340.3a15.549,15.549,0,1,1-18.744,18.8Zm-11.4-18.8a15.556,15.556,0,0,1,11.4,11.429,15.558,15.558,0,0,1,11.4-11.429,15.556,15.556,0,0,1-11.4-11.429A15.555,15.555,0,0,1,487.462,340.3Zm104.387,30.613V336.645h9.568v34.267Zm-14.125,0V336.645h9.568v34.267Zm-38.729,0v-9.595h34.173v9.595Zm180.552-.122v-7.581a4.106,4.106,0,0,0-.326-1.774,1.975,1.975,0,0,0-1.954-1.123,3.987,3.987,0,0,0-1.18.146,3.04,3.04,0,0,0-1.46.988,2.988,2.988,0,0,0-.657,1.23,8.293,8.293,0,0,0-.151,1.814v6.3H711.8V358.763h1.92v1.707a5.4,5.4,0,0,1,1.808-1.517,4.828,4.828,0,0,1,2.123-.461,3.5,3.5,0,0,1,3.459,1.786,6.345,6.345,0,0,1,.494,2.8v7.715Zm-25.651,0V358.818h2.056V370.79Zm-71.122,0v-16.5H634.8v2.022h-9.849v5.008h9.108v1.909h-9.108v5.593H634.97v1.966Zm-83.778-14.042v-9.595h34.173v9.595Zm154.9-.165v-2.291h2.056v2.291Zm-22.742-26.847a50.69,50.69,0,0,1-15.343-37.154v-52.54h14.969v52.54a37.494,37.494,0,0,0,37.426,37.53v15.011A50.415,50.415,0,0,1,671.153,329.737Zm-48.687,15.387V240.043h14.97V345.124Zm-69.347-1.168V309.688h9.569v34.268Zm-14.125,0V309.688h9.569v34.268Zm28.249-10.509v-9.595h34.172v9.595Zm0-14.163v-9.595h34.172v9.595Zm-44.981-18.351V293.12h7.994v7.812Zm-15.332,0V293.12h7.063V285.7h-7.063v-7.812h7.063v-7.421h-7.063v-7.812h7.063v-7.421h-7.063v-7.812h7.063V240h7.995v7.812h-7.064v7.421h7.064v7.812h-7.064v7.421h7.064v7.812h-7.064V285.7h7.064v7.812h-7.064v7.421Zm-15.331,0V293.12h7.063V285.7H491.6v-7.812h7.063v-7.421H491.6v-7.812h7.063v-7.421H491.6v-7.812h7.063V240h7.995v7.812h-7.064v7.421h7.064v7.812h-7.064v7.421h7.064v7.812h-7.064V285.7h7.064v7.812h-7.064v7.421Zm-15.332,0V293.12h7.063V285.7h-7.063v-7.812h7.063v-7.421h-7.063v-7.812h7.063v-7.421h-7.063v-7.812h7.063V240h7.995v7.812h-7.064v7.421h7.064v7.812h-7.064v7.421h7.064v7.812h-7.064V285.7h7.064v7.812h-7.064v7.421Zm92.552-3.483v-3.483s0-3.483,1.385-3.483,1.385,3.483,1.385,3.483v3.483s0,3.482-1.385,3.482S568.821,297.449,568.821,297.449Zm20.058-1.061L571.1,284.765a1.643,1.643,0,0,0-1.8,0l-17.776,11.623a.579.579,0,0,1-.883-.629l5.779-20.107a1.624,1.624,0,0,0-.567-1.735l-14.452-11.17a1.624,1.624,0,0,1,.925-2.908l18.46-.718a1.64,1.64,0,0,0,1.47-1.061l6.412-17a1.635,1.635,0,0,1,3.061,0l6.415,17.006a1.627,1.627,0,0,0,1.459,1.053l18.454.719a1.629,1.629,0,0,1,.929,2.916L584.546,273.92a1.618,1.618,0,0,0-.564,1.727l5.781,20.111a.576.576,0,0,1-.562.727A.585.585,0,0,1,588.879,296.388ZM468,293.511V285.7h7.995v7.812Zm54.263-7.812v-7.812h7.994V285.7Zm74.424-4.818-3.252-1.225s-3.252-1.225-2.764-2.525,3.738-.076,3.738-.076l3.252,1.224s3.251,1.224,2.765,2.525c-.169.451-.671.6-1.255.6A8.612,8.612,0,0,1,596.687,280.881Zm-56.7-.077c-.487-1.3,2.765-2.525,2.765-2.525L546,277.056s3.251-1.225,3.738.076-2.765,2.525-2.765,2.525l-3.251,1.225a8.613,8.613,0,0,1-2.485.522C540.657,281.4,540.156,281.255,539.987,280.8ZM468,278.278v-7.812h7.995v7.812Zm54.263-7.812v-7.812h7.994v7.812ZM468,263.045v-7.812h7.995v7.812Zm54.263-7.812v-7.812h7.994v7.812Zm60.821-1.642c-.979-.982,1.477-3.444,1.477-3.444l2.456-2.463s2.455-2.462,3.435-1.48-1.477,3.444-1.477,3.444l-2.456,2.462s-1.706,1.712-2.842,1.712A.8.8,0,0,1,583.084,253.591Zm-29.192-1.48-2.455-2.462s-2.456-2.462-1.477-3.444,3.435,1.48,3.435,1.48l2.456,2.463s2.456,2.462,1.477,3.444a.8.8,0,0,1-.593.231C555.6,253.823,553.892,252.111,553.892,252.111ZM468,247.812V240h7.995v7.812Z" fill="#fff"/>
  </g>
</svg>
