<?xml version="1.0" encoding="utf-8"?>
<!-- Generator: Adobe Illustrator 27.0.0, SVG Export Plug-In . SVG Version: 6.00 Build 0)  -->
<svg version="1.1" id="Layer_1" xmlns="http://www.w3.org/2000/svg" xmlns:xlink="http://www.w3.org/1999/xlink" x="0px" y="0px"
	 viewBox="0 0 1673.53 390.77" style="enable-background:new 0 0 1673.53 390.77;" xml:space="preserve">
<style type="text/css">
	.st0{fill:#231F20;}
	.st1{fill:#1A1AE8;}
</style>
<g>
	<g>
		<path class="st0" d="M851.7,270.1c0,33.31,0,64.87,0,97.02c-10.13,0-19.77,0-30,0c0-80.31,0-160.78,0-241.76
			c9.64,0,19.27,0,29.71,0c0,8.72,0,17.35,0,25.98c19.69-24.35,45.12-33.24,74.97-30.66c24.28,2.1,43.75,13.67,59.14,32.32
			c31.3,37.93,25.51,96.45-12.03,129.64C945.04,307.79,885.8,315.2,851.7,270.1z M975.09,211.85c0.1-35.67-26.24-62.72-61.17-62.81
			c-35.4-0.09-62.42,27.08-62.32,62.66c0.1,35.39,26.8,62.37,61.8,62.43C948.54,274.19,974.99,247.49,975.09,211.85z"/>
		<path class="st0" d="M649.82,228.26c6.93,9.67,12.1,19.82,19.91,27.15c16.4,15.39,37.35,17.43,58.62,14.87
			c7.79-0.94,15.81-3.41,22.77-7.03c11.86-6.16,17.39-16.81,17.19-30.38c-0.19-12.9-6.01-22.62-17.6-27.49
			c-18.69-7.85-37.9-14.47-56.82-21.79c-8.88-3.43-17.71-7.03-26.36-10.98c-41.94-19.13-40.13-72.53-17.18-97.19
			c40-42.99,122.05-26.77,142.74,29.21c-8.46,4.89-17.04,9.85-26.24,15.16c-1.54-2.68-2.9-4.95-4.17-7.26
			c-14.3-25.93-45.75-37.2-73.3-26.05c-12.82,5.19-21.06,14.17-22.34,28.57c-1.35,15.17,5,26.21,18.76,31.93
			c18.73,7.78,37.92,14.46,56.9,21.65c14.56,5.51,28.43,11.8,40.69,22.09c23,19.32,22.9,67.28-1.89,89.56
			c-14.63,13.15-31.76,19.97-50.97,21.83c-29.74,2.88-57.6-1.89-81.37-21.68c-11.94-9.94-21.57-24.52-24.72-37.63
			C633.15,237.81,642.03,232.72,649.82,228.26z"/>
		<path class="st0" d="M1344.5,297.97c-9.66,0-19.31,0-29.8,0c0-3.1,0-5.8,0-8.51c0-30.41,0.05-60.82-0.05-91.22
			c-0.02-5.76-0.01-11.65-1.14-17.26c-4.55-22.79-24.37-35.19-49.68-31.52c-24.41,3.55-40.26,19.22-41.54,44.22
			c-1.45,28.33-0.91,56.75-1.21,85.14c-0.07,6.23-0.01,12.45-0.01,19.1c-10.35,0-19.99,0-30.04,0c0-57.55,0-114.74,0-172.51
			c9.67,0,19.3,0,29.78,0c0,7.02,0,14.13,0,23.1c2.55-2.8,3.84-4.11,5.02-5.52c24.97-29.92,76.46-30.82,102.46-1.75
			c11.63,13,16.51,28.74,16.72,45.72c0.44,36.18,0.22,72.37,0.24,108.56C1345.24,296.22,1344.83,296.92,1344.5,297.97z"/>
		<path class="st0" d="M1602.17,156.71c-9.09,5.07-17.1,9.53-25.48,14.21c-11.11-20.45-28.51-24.61-49.02-20.33
			c-4.04,0.84-8.13,2.86-11.5,5.3c-11.22,8.12-11.08,23.91,0.86,30.85c8.58,4.98,18.15,8.4,27.55,11.76
			c8.96,3.2,18.39,5.05,27.39,8.15c17.56,6.03,30.35,17.03,33,36.38c2.8,20.45-4.15,37.02-21.81,48.55
			c-27.59,18-72.99,14.52-96.96-8.07c-6.07-5.72-10.56-13.14-16.49-20.69c9.78-5.55,18.19-10.31,27.37-15.52
			c4.59,11.68,12.57,19.3,23.6,23.42c10.86,4.05,22.1,4.62,33.35,1.86c3.85-0.94,7.73-2.38,11.13-4.39
			c12.7-7.53,13.56-24.82,0.91-32.29c-9.17-5.42-19.54-8.94-29.62-12.64c-8.46-3.11-17.37-4.94-25.89-7.91
			c-17.52-6.11-30.27-16.95-32.78-36.46c-2.46-19.08,4.39-34.53,19.79-46c27.48-20.47,72.29-15.78,94.82,9.97
			C1595.93,146.92,1598.66,151.69,1602.17,156.71z"/>
		<path class="st0" d="M1391.21,153.63c-11.73,0-22.47,0-33.81,0c0-9.61,0-18.72,0-28.6c11.02,0,21.93,0,33.81,0
			c0-11.68,0.18-22.65-0.09-33.6c-0.11-4.44,0.98-6.79,5.7-7.9c8.01-1.88,15.83-4.57,24.77-7.24c0,16.44,0,32.11,0,48.52
			c15.83,0,30.77,0,46.08,0c0,9.69,0,18.64,0,28.37c-14.89,0-29.83,0-45.44,0c-0.23,2.87-0.55,5.02-0.55,7.17
			c-0.03,28.39-0.03,56.78-0.01,85.17c0,2.01,0.08,4.02,0.28,6.02c1.48,14.81,6.84,19.73,21.84,19.92c7.75,0.1,15.5,0.02,23.75,0.02
			c0,8.79,0,17.43,0,26.64c-15.96,2.53-31.85,3.13-47.52-1.6c-16.52-4.98-25.01-17.08-27.33-33.53c-1.25-8.91-1.38-18.01-1.43-27.04
			C1391.1,208.87,1391.21,181.76,1391.21,153.63z"/>
		<path class="st0" d="M1058.2,297.99c-10.32,0-19.78,0-29.85,0c0-57.34,0-114.7,0-172.6c9.54,0,19.17,0,29.46,0
			c0,8.19,0,16.37,0,24.46c7.88-7.12,14.56-15.47,23.21-20.31c8.85-4.96,19.62-6.47,30.81-9.88c0,12.51,0,22.65,0,33.16
			c-5.17,0.71-10.63,1.12-15.94,2.24c-21.41,4.5-35.64,19.26-36.57,41.13c-1.31,30.84-0.84,61.76-1.13,92.64
			C1058.17,291.75,1058.2,294.69,1058.2,297.99z"/>
		<path class="st0" d="M1164.68,298.36c-8.54,0-16.54,0.02-24.54-0.02c-1.46-0.01-2.91-0.22-4.79-0.37c0-57.48,0-114.65,0-172.47
			c9.5,0,19.11,0,29.33,0C1164.68,182.67,1164.68,240.02,1164.68,298.36z"/>
		<path class="st0" d="M1129.91,73.36c-0.15-11.6,8.56-20.72,19.96-20.91c11.19-0.19,20.62,9.03,20.78,20.3
			c0.15,10.92-8.81,20.16-19.79,20.41C1139.14,93.43,1130.05,84.84,1129.91,73.36z"/>
	</g>
	<path id="XMLID_5_" class="st1" d="M390.77,124.16c7.18-2.12,13.83-4.91,20.97-6.01c12.53-1.92,25.13,3.5,31.69,16.45
		c3.68,7.26,5.57,14.9,5.92,22.61c0.66,14.56-2.96,27.62-9.96,39.4c-9.47,15.95-22.82,28.15-38.05,38.49
		c-8.89,6.04-10.58,12.77-5.58,23.53c4.5,9.69,9.08,19.34,13.69,28.99c3.12,6.53,6.21,13.08,9.57,19.52
		c4.09,7.82,10.14,11.48,17.97,10.66c2.95-0.31,5.78-1.5,8.41-2.74c18.04-8.51,33.48-20.36,47.37-34.11
		c11.36-11.25,22.17-22.99,30.3-36.98c17.82-30.65,23.13-64.8,16.55-102.37c-2.85-16.26-7.6-32.12-14.89-47.49
		c-19.52-41.17-51.99-63.02-95.24-68.73c-2.41-0.32-3.04,0.68-3.68,2.47c-7.63,21.2-15.31,42.37-23.01,63.54
		C398.82,102.33,394.78,113.24,390.77,124.16z M219.65,217c-1.81,0.66-2.93,1.13-4.1,1.47c-6.18,1.82-12.16,4.48-18.61,5.22
		c-11.42,1.3-23.03-3.53-29.67-15.65c-3.83-6.99-5.59-14.42-6.19-21.91c-1.21-15.1,2.46-28.57,9.59-40.76
		c9.48-16.21,23.03-28.48,38.4-38.97c8.67-5.92,10.28-12.89,5.35-23.36c-4.79-10.17-9.55-20.35-14.39-30.51
		c-2.77-5.83-5.53-11.68-8.52-17.43c-5.32-10.25-13.95-13.84-23.7-9.9c-3.2,1.3-6.25,2.92-9.27,4.54
		c-22.88,12.29-41.29,29.61-57.78,49.03c-25.91,30.52-36.18,67.43-31.86,109.92c1.97,19.33,7.31,38.37,15.64,56.89
		c8.5,18.89,20.55,35.22,37.6,48.04c17.63,13.25,37.14,19.75,57.67,22.73c2.64,0.38,3.91-0.46,4.78-2.9
		c7.2-20.28,14.55-40.49,21.9-60.71C210.77,241.04,215.11,229.36,219.65,217z M404.38,23.76c-6.34,0.23-12.28,0.33-18.16,0.68
		c-17.04,1.01-32.46,5.86-46.44,14.1c-16.68,9.82-28.3,24.51-39.04,40.04c-12.47,18.03-21.61,38.07-29.35,58.8
		c-21.89,58.62-43.31,117.45-64.9,176.2c-0.33,0.91-0.52,1.89-0.83,3c0.71,0.19,1.13,0.4,1.51,0.39c6.46-0.23,12.95-0.27,19.36-0.77
		c16.1-1.26,30.63-6.15,43.87-14.01c15.73-9.34,26.9-23.1,37.26-37.65c12.24-17.2,21.45-36.29,28.92-56.25
		c22.6-60.4,44.72-121.03,67.02-181.57C403.89,25.91,404.05,25.04,404.38,23.76z"/>
</g>
</svg>
